<svg xmlns="http://www.w3.org/2000/svg" width="24.396" height="24.952" viewBox="0 0 24.396 24.952">
  <g id="Group_5615" data-name="Group 5615" transform="translate(-1572.1 2293.601)">
    <path id="Path_16576" data-name="Path 16576" d="M1594.484-2228.772H1574.11c-.109-.026-.22-.048-.328-.08a2.233,2.233,0,0,1-1.681-2.306q0-8.71.005-17.42a3.066,3.066,0,0,1,.145-.906,2.155,2.155,0,0,1,2.013-1.432v.263c0,.877,0,1.754,0,2.631a2.475,2.475,0,0,0,2.5,2.555c.5.012,1.007.013,1.511,0a2.487,2.487,0,0,0,2.507-2.577c0-.877,0-1.754,0-2.631v-.26h7.022c0,.967,0,1.916,0,2.865a2.5,2.5,0,0,0,2.58,2.6q.694.008,1.389,0a2.482,2.482,0,0,0,2.552-2.58c0-.877,0-1.754,0-2.631V-2251a6.225,6.225,0,0,1,.94.313,2.232,2.232,0,0,1,1.227,2.156q-.008,8.661,0,17.322a4.07,4.07,0,0,1-.016.414,2.222,2.222,0,0,1-.75,1.457A2.515,2.515,0,0,1,1594.484-2228.772Zm-10.2-13.453h-8.212a1,1,0,0,0-1.123,1.124q0,4.41,0,8.819a1,1,0,0,0,1.125,1.123h16.4a1,1,0,0,0,1.134-1.136q0-4.4,0-8.795a1,1,0,0,0-1.136-1.134Z" transform="translate(0 -39.876)" fill="#fff"/>
    <path id="Path_16577" data-name="Path 16577" d="M1842.766-2290.285c0-.771,0-1.542,0-2.313a.882.882,0,0,1,1-1c.438,0,.877,0,1.315,0a.856.856,0,0,1,.927.927c.006,1.274,0,2.548,0,3.823,0,.324.005.649,0,.974a.848.848,0,0,1-.915.911q-.706.007-1.412,0a.845.845,0,0,1-.914-.911C1842.76-2288.678,1842.766-2289.482,1842.766-2290.285Z" transform="translate(-253.342 0)" fill="#fff"/>
    <path id="Path_16578" data-name="Path 16578" d="M1634.442-2290.275q0,1.169,0,2.337a.865.865,0,0,1-.968.979q-.645,0-1.291,0a.867.867,0,0,1-.982-.99c0-.917,0-1.834,0-2.751,0-.641,0-1.282,0-1.924a.869.869,0,0,1,.98-.972q.645,0,1.291,0a.872.872,0,0,1,.97.982Q1634.444-2291.444,1634.442-2290.275Z" transform="translate(-55.316 -0.005)" fill="#fff"/>
    <path id="Path_16579" data-name="Path 16579" d="M1739.864-2087.321c.3,0,.6,0,.9,0a.581.581,0,0,1,.641.632c.009.609.007,1.217,0,1.826a.573.573,0,0,1-.606.643q-.949.025-1.9,0a.573.573,0,0,1-.605-.644c-.007-.608-.008-1.217,0-1.826a.581.581,0,0,1,.642-.631C1739.247-2087.325,1739.555-2087.321,1739.864-2087.321Z" transform="translate(-155.554 -193.077)" fill="#fff"/>
    <path id="Path_16580" data-name="Path 16580" d="M1741.417-2008.7c0,.3.006.6,0,.9a.585.585,0,0,1-.638.638q-.913.01-1.826,0a.589.589,0,0,1-.647-.653q-.009-.9,0-1.8a.592.592,0,0,1,.65-.653q.9-.012,1.8,0a.6.6,0,0,1,.66.668C1741.421-2009.3,1741.417-2009,1741.417-2008.7Z" transform="translate(-155.562 -265.193)" fill="#fff"/>
    <path id="Path_16581" data-name="Path 16581" d="M1662.782-2087.324c.308,0,.617-.005.925,0a.553.553,0,0,1,.614.578q.027.973,0,1.947a.533.533,0,0,1-.567.573q-.973.031-1.947,0a.558.558,0,0,1-.581-.636q-.008-.913,0-1.825a.572.572,0,0,1,.631-.637C1662.165-2087.329,1662.474-2087.324,1662.782-2087.324Z" transform="translate(-83.418 -193.073)" fill="#fff"/>
    <path id="Path_16582" data-name="Path 16582" d="M1817.058-2087.328c.308,0,.617-.006.925,0a.561.561,0,0,1,.607.611q.011.937,0,1.874a.55.55,0,0,1-.579.613c-.64.02-1.282.019-1.923,0a.559.559,0,0,1-.6-.623q-.019-.925,0-1.85c.009-.425.232-.624.667-.628C1816.458-2087.331,1816.758-2087.329,1817.058-2087.328Z" transform="translate(-227.804 -193.07)" fill="#fff"/>
    <path id="Path_16583" data-name="Path 16583" d="M1662.759-2007.193c-.3,0-.6,0-.9,0a.575.575,0,0,1-.637-.633q-.009-.925,0-1.85a.564.564,0,0,1,.6-.622q.949-.022,1.9,0a.556.556,0,0,1,.6.6q.024.949,0,1.9a.571.571,0,0,1-.636.611C1663.376-2007.188,1663.068-2007.193,1662.759-2007.193Z" transform="translate(-83.413 -265.161)" fill="#fff"/>
    <path id="Path_16584" data-name="Path 16584" d="M1818.591-2008.731c0,.308.005.617,0,.925a.571.571,0,0,1-.618.627c-.617.009-1.234.007-1.85,0a.57.57,0,0,1-.631-.615q-.021-.937,0-1.875a.572.572,0,0,1,.631-.617c.617-.01,1.234-.011,1.85,0a.572.572,0,0,1,.618.629C1818.6-2009.348,1818.591-2009.039,1818.591-2008.731Z" transform="translate(-227.804 -265.177)" fill="#fff"/>
  </g>
</svg>
