<svg xmlns="http://www.w3.org/2000/svg" width="27.388" height="27.402" viewBox="0 0 27.388 27.402">
  <g id="downloadicon" transform="translate(-794.429 -7252)">
    <path id="Path_1492" data-name="Path 1492" d="M2046.764,3605.4h1.659a1.517,1.517,0,0,0,.206.043,13.036,13.036,0,0,1,5.765,1.785,13.522,13.522,0,0,1,6.662,9.51c.093.5.141,1,.21,1.5v1.659c-.016.086-.032.171-.046.258-.11.7-.172,1.417-.335,2.108a13.693,13.693,0,1,1-16.021-16.593C2045.49,3605.552,2046.13,3605.49,2046.764,3605.4Zm-.334,14.787-.106.078a1.411,1.411,0,0,0-.16-.248c-.76-.765-1.518-1.533-2.289-2.287a1.138,1.138,0,0,0-1.606,1.613q2.234,2.249,4.482,4.482a1.109,1.109,0,0,0,1.627,0c1.492-1.482,2.983-2.967,4.455-4.47a1.42,1.42,0,0,0,.338-.729,1.075,1.075,0,0,0-.629-1.11,1.116,1.116,0,0,0-1.306.229c-.768.758-1.527,1.524-2.29,2.286-.064.064-.133.122-.243.221v-9.825c0-.116,0-.232-.007-.348a1.131,1.131,0,0,0-1.411-1.006,1.145,1.145,0,0,0-.856,1.228q0,4.787,0,9.574Zm1.11,7.739c1.5,0,3,.005,4.494,0a1.143,1.143,0,1,0,0-2.286c-.2,0-.393,0-.589,0q-4.133,0-8.265,0a1.147,1.147,0,1,0-.054,2.289C2044.6,3627.932,2046.068,3627.927,2047.539,3627.926Z" transform="translate(-1239.448 3646.599)" fill="#1c75bc"/>
  </g>
</svg>
