<svg xmlns="http://www.w3.org/2000/svg" width="42.412" height="51" viewBox="0 0 42.412 51">
  <g id="fileicon" transform="translate(-1357.909 -7095)">
    <path id="Path_1491" data-name="Path 1491" d="M3044.046,3195.532q0-9.373,0-18.745a6.38,6.38,0,0,1,6.762-6.764q14.443,0,28.886,0a6.376,6.376,0,0,1,6.761,6.763q0,18.746,0,37.491a6.388,6.388,0,0,1-6.728,6.741q-14.476.007-28.952,0a6.388,6.388,0,0,1-6.728-6.741Q3044.043,3204.905,3044.046,3195.532Zm21.237-14.909c-3.511,0-7.023-.006-10.534,0a2.118,2.118,0,1,0-.031,4.232q10.534.012,21.068-.012a2.566,2.566,0,0,0,1.24-.368,2.007,2.007,0,0,0,.862-2.306,2.087,2.087,0,0,0-2.07-1.545C3072.306,3180.617,3068.794,3180.623,3065.283,3180.623Zm-.011,12.72c3.511,0,7.023.008,10.534,0a2.116,2.116,0,1,0-.01-4.231q-10.534-.012-21.068,0a2.072,2.072,0,0,0-1.849.97,1.973,1.973,0,0,0-.095,2.135,2.086,2.086,0,0,0,1.954,1.136Zm-.02,8.48q5.234,0,10.468,0a2.123,2.123,0,1,0-.036-4.236q-8.15-.01-16.3,0c-1.568,0-3.136-.009-4.7,0a2.1,2.1,0,0,0-2.01,1.355,2.122,2.122,0,0,0,2.112,2.877C3058.273,3201.83,3061.762,3201.823,3065.252,3201.823Zm-.037,8.48q5.2,0,10.4,0a2.132,2.132,0,1,0-.027-4.238q-5.135,0-10.269,0-5.267,0-10.534,0a2.121,2.121,0,1,0-.04,4.237C3058.236,3210.313,3061.725,3210.3,3065.214,3210.3Z" transform="translate(-1686.136 3924.978)" fill="#61d281"/>
  </g>
</svg>
