<svg xmlns="http://www.w3.org/2000/svg" width="56.673" height="48.301" viewBox="0 0 56.673 48.301">
  <g id="graphicon" transform="translate(-1281.538 -7399.058)">
    <path id="Path_1484" data-name="Path 1484" d="M854.253,3667.17l25-18.527c-.763-.757-1.472-1.476-2.2-2.177a1.061,1.061,0,0,1-.376-1.247,1.074,1.074,0,0,1,1.094-.609c3.735-.158,7.469-.333,11.2-.5,1.08-.047,1.395.261,1.348,1.347q-.246,5.631-.509,11.262a1.05,1.05,0,0,1-.655,1.067,1.062,1.062,0,0,1-1.2-.374c-1-1.01-2-2.012-3.032-3.04-2.028,1.521-4.023,3.017-6.018,4.514L855.179,3676.7c-.13.1-.259.2-.391.292a1.033,1.033,0,0,1-1.674-.214q-3.585-4.428-7.166-8.86-1.647-2.038-3.294-4.076c-.125-.155-.263-.3-.419-.478l-5.09,4.5c-.579.511-1.162,1.017-1.737,1.532-.345.308-.767.524-1.15.229a1.479,1.479,0,0,1-.57-.97q-.071-3.778,0-7.557a1.616,1.616,0,0,1,.532-1.022c2.4-2.164,4.825-4.3,7.245-6.436.772-.683,1.217-.65,1.878.16q5.218,6.4,10.429,12.806C853.92,3666.787,854.08,3666.967,854.253,3667.17Z" transform="translate(447.887 3754.949)" fill="#61d281"/>
    <path id="Path_1485" data-name="Path 1485" d="M1129.767,3770.178q0,6.857,0,13.714c0,1.119-.283,1.4-1.4,1.4q-3.048,0-6.1,0c-.956,0-1.278-.323-1.278-1.28q0-13.836,0-27.672c0-.958.321-1.277,1.279-1.278q3.109,0,6.218,0c.956,0,1.279.323,1.279,1.279Q1129.768,3763.261,1129.767,3770.178Z" transform="translate(207.336 3662.062)" fill="#61d281"/>
    <path id="Path_1486" data-name="Path 1486" d="M1039.91,3830.7q0,4.236,0,8.472c0,.956-.324,1.278-1.28,1.279q-3.109,0-6.218,0c-.956,0-1.278-.323-1.278-1.28q0-8.472,0-16.944c0-.958.321-1.277,1.279-1.278q3.109,0,6.218,0c.957,0,1.278.323,1.279,1.279Q1039.913,3826.46,1039.91,3830.7Z" transform="translate(282.562 3606.907)" fill="#61d281"/>
    <path id="Path_1487" data-name="Path 1487" d="M944.06,3874.708c0,1.544,0,3.088,0,4.632,0,.875-.344,1.215-1.219,1.217q-3.17.007-6.34,0c-.875,0-1.216-.342-1.217-1.219q-.005-4.632,0-9.264c0-.876.341-1.215,1.218-1.217q3.17-.006,6.34,0c.876,0,1.215.342,1.218,1.218C944.064,3871.62,944.06,3873.164,944.06,3874.708Z" transform="translate(362.806 3566.797)" fill="#61d281"/>
  </g>
</svg>
