<svg id="jeddah" xmlns="http://www.w3.org/2000/svg" xmlns:xlink="http://www.w3.org/1999/xlink" width="36.135" height="70" viewBox="0 0 36.135 70">
  <defs>
    <clipPath id="clip-path">
      <rect id="Rectangle_3733" data-name="Rectangle 3733" width="36.135" height="70" fill="none"/>
    </clipPath>
  </defs>
  <g id="Group_5262" data-name="Group 5262" clip-path="url(#clip-path)">
    <path id="Path_9448" data-name="Path 9448" d="M39.76,91.728H37.8a.133.133,0,0,1-.133-.133V40.754a.133.133,0,0,1,.133-.133H39.76a.133.133,0,0,1,.133.133V91.595a.133.133,0,0,1-.133.133m-1.83-.266h1.7V40.887h-1.7Z" transform="translate(-31.394 -33.859)" fill="#73bc45"/>
    <path id="Path_9449" data-name="Path 9449" d="M21.025,54.212a.133.133,0,0,1-.13-.107L18.26,40.887H13.652v1.859a.133.133,0,0,1-.133.133H10.574a.133.133,0,0,1,0-.266h2.812V40.754a.133.133,0,0,1,.133-.133h4.85a.132.132,0,0,1,.13.107l2.656,13.326a.133.133,0,0,1-.1.156l-.026,0" transform="translate(-8.703 -33.859)" fill="#73bc45"/>
    <path id="Path_9450" data-name="Path 9450" d="M37.481,346.313h-15.2a.133.133,0,0,1,0-.266h15.2a.133.133,0,0,1,0,.266" transform="translate(-18.461 -288.444)" fill="#73bc45"/>
    <path id="Path_9451" data-name="Path 9451" d="M57.4,31.344a.133.133,0,0,1-.133-.133V29.306a.133.133,0,0,1,.266,0v1.905a.133.133,0,0,1-.133.133" transform="translate(-47.737 -24.317)" fill="#73bc45"/>
    <path id="Path_9452" data-name="Path 9452" d="M60.059,16.6H57.4a.133.133,0,0,1,0-.266h2.656a.133.133,0,0,1,0,.266" transform="translate(-47.737 -13.619)" fill="#73bc45"/>
    <path id="Path_9453" data-name="Path 9453" d="M28.265,17.041a.133.133,0,0,1-.133-.133V12.147a.133.133,0,0,1,.266,0v4.762a.133.133,0,0,1-.133.133" transform="translate(-23.449 -10.014)" fill="#73bc45"/>
    <path id="Path_9454" data-name="Path 9454" d="M23.755,16.763a.133.133,0,0,1-.133-.133V9.492a.133.133,0,0,1,.266,0V16.63a.133.133,0,0,1-.133.133" transform="translate(-19.69 -7.801)" fill="#73bc45"/>
    <path id="Path_9455" data-name="Path 9455" d="M19.246,14.55a.133.133,0,0,1-.133-.133V6.837a.133.133,0,1,1,.266,0v7.58a.133.133,0,0,1-.133.133" transform="translate(-15.931 -5.588)" fill="#73bc45"/>
    <path id="Path_9456" data-name="Path 9456" d="M14.737,12.785a.133.133,0,0,1-.133-.133V4.72a.133.133,0,0,1,.266,0v7.933a.133.133,0,0,1-.133.133" transform="translate(-12.173 -3.823)" fill="#73bc45"/>
    <path id="Path_9457" data-name="Path 9457" d="M29.927,358.525a35.793,35.793,0,0,1-7.678-.768.133.133,0,1,1,.064-.258,37.864,37.864,0,0,0,15.141,0,.133.133,0,0,1,.055.26,36.781,36.781,0,0,1-7.581.767" transform="translate(-18.461 -297.986)" fill="#73bc45"/>
    <path id="Path_9458" data-name="Path 9458" d="M10.574,367.72a.133.133,0,0,1-.133-.133v-9.96a.133.133,0,1,1,.266,0v9.96a.133.133,0,0,1-.133.133" transform="translate(-8.703 -297.986)" fill="#73bc45"/>
    <path id="Path_9459" data-name="Path 9459" d="M19.44,368.447h-.8a.133.133,0,0,1-.133-.133v-.8a.133.133,0,0,1,.133-.133h.8a.133.133,0,0,1,.133.133v.8a.133.133,0,0,1-.133.133m-.668-.266h.536v-.535h-.536Z" transform="translate(-15.425 -306.226)" fill="#73bc45"/>
    <path id="Path_9460" data-name="Path 9460" d="M19.44,378.2h-.8a.133.133,0,0,1-.133-.133v-.8a.133.133,0,0,1,.133-.133h.8a.133.133,0,0,1,.133.133v.8a.133.133,0,0,1-.133.133m-.668-.266h.536V377.4h-.536Z" transform="translate(-15.425 -314.358)" fill="#73bc45"/>
    <path id="Path_9461" data-name="Path 9461" d="M19.44,387.959h-.8a.133.133,0,0,1-.133-.133v-.8a.133.133,0,0,1,.133-.133h.8a.133.133,0,0,1,.133.133v.8a.133.133,0,0,1-.133.133m-.668-.266h.536v-.536h-.536Z" transform="translate(-15.425 -322.49)" fill="#73bc45"/>
    <path id="Path_9462" data-name="Path 9462" d="M19.44,397.715h-.8a.133.133,0,0,1-.133-.133v-.8a.133.133,0,0,1,.133-.133h.8a.133.133,0,0,1,.133.133v.8a.133.133,0,0,1-.133.133m-.668-.266h.536v-.536h-.536Z" transform="translate(-15.425 -330.622)" fill="#73bc45"/>
    <path id="Path_9463" data-name="Path 9463" d="M19.44,407.471h-.8a.133.133,0,0,1-.133-.133v-.8a.133.133,0,0,1,.133-.133h.8a.133.133,0,0,1,.133.133v.8a.133.133,0,0,1-.133.133m-.668-.266h.536v-.536h-.536Z" transform="translate(-15.425 -338.754)" fill="#73bc45"/>
    <path id="Path_9464" data-name="Path 9464" d="M33.786,368.447h-.8a.133.133,0,0,1-.133-.133v-.8a.133.133,0,0,1,.133-.133h.8a.133.133,0,0,1,.133.133v.8a.133.133,0,0,1-.133.133m-.668-.266h.535v-.535h-.535Z" transform="translate(-27.383 -306.226)" fill="#73bc45"/>
    <path id="Path_9465" data-name="Path 9465" d="M33.786,378.2h-.8a.133.133,0,0,1-.133-.133v-.8a.133.133,0,0,1,.133-.133h.8a.133.133,0,0,1,.133.133v.8a.133.133,0,0,1-.133.133m-.668-.266h.535V377.4h-.535Z" transform="translate(-27.383 -314.358)" fill="#73bc45"/>
    <path id="Path_9466" data-name="Path 9466" d="M33.786,387.959h-.8a.133.133,0,0,1-.133-.133v-.8a.133.133,0,0,1,.133-.133h.8a.133.133,0,0,1,.133.133v.8a.133.133,0,0,1-.133.133m-.668-.266h.535v-.536h-.535Z" transform="translate(-27.383 -322.49)" fill="#73bc45"/>
    <path id="Path_9467" data-name="Path 9467" d="M33.786,397.715h-.8a.133.133,0,0,1-.133-.133v-.8a.133.133,0,0,1,.133-.133h.8a.133.133,0,0,1,.133.133v.8a.133.133,0,0,1-.133.133m-.668-.266h.535v-.536h-.535Z" transform="translate(-27.383 -330.622)" fill="#73bc45"/>
    <path id="Path_9468" data-name="Path 9468" d="M33.786,407.471h-.8a.133.133,0,0,1-.133-.133v-.8a.133.133,0,0,1,.133-.133h.8a.133.133,0,0,1,.133.133v.8a.133.133,0,0,1-.133.133m-.668-.266h.535v-.536h-.535Z" transform="translate(-27.383 -338.754)" fill="#73bc45"/>
    <path id="Path_9469" data-name="Path 9469" d="M48.132,368.447h-.8a.133.133,0,0,1-.133-.133v-.8a.133.133,0,0,1,.133-.133h.8a.133.133,0,0,1,.133.133v.8a.133.133,0,0,1-.133.133m-.669-.266H48v-.535h-.536Z" transform="translate(-39.341 -306.226)" fill="#73bc45"/>
    <path id="Path_9470" data-name="Path 9470" d="M48.132,378.2h-.8a.133.133,0,0,1-.133-.133v-.8a.133.133,0,0,1,.133-.133h.8a.133.133,0,0,1,.133.133v.8a.133.133,0,0,1-.133.133m-.669-.266H48V377.4h-.536Z" transform="translate(-39.341 -314.358)" fill="#73bc45"/>
    <path id="Path_9471" data-name="Path 9471" d="M48.132,387.959h-.8a.133.133,0,0,1-.133-.133v-.8a.133.133,0,0,1,.133-.133h.8a.133.133,0,0,1,.133.133v.8a.133.133,0,0,1-.133.133m-.669-.266H48v-.536h-.536Z" transform="translate(-39.341 -322.49)" fill="#73bc45"/>
    <path id="Path_9472" data-name="Path 9472" d="M48.132,397.715h-.8a.133.133,0,0,1-.133-.133v-.8a.133.133,0,0,1,.133-.133h.8a.133.133,0,0,1,.133.133v.8a.133.133,0,0,1-.133.133m-.669-.266H48v-.536h-.536Z" transform="translate(-39.341 -330.622)" fill="#73bc45"/>
    <path id="Path_9473" data-name="Path 9473" d="M48.132,407.471h-.8a.133.133,0,0,1-.133-.133v-.8a.133.133,0,0,1,.133-.133h.8a.133.133,0,0,1,.133.133v.8a.133.133,0,0,1-.133.133m-.669-.266H48v-.536h-.536Z" transform="translate(-39.341 -338.754)" fill="#73bc45"/>
    <path id="Path_9474" data-name="Path 9474" d="M62.477,368.447h-.8a.133.133,0,0,1-.133-.133v-.8a.133.133,0,0,1,.133-.133h.8a.133.133,0,0,1,.133.133v.8a.133.133,0,0,1-.133.133m-.669-.266h.536v-.535h-.536Z" transform="translate(-51.299 -306.226)" fill="#73bc45"/>
    <path id="Path_9475" data-name="Path 9475" d="M62.477,378.2h-.8a.133.133,0,0,1-.133-.133v-.8a.133.133,0,0,1,.133-.133h.8a.133.133,0,0,1,.133.133v.8a.133.133,0,0,1-.133.133m-.669-.266h.536V377.4h-.536Z" transform="translate(-51.299 -314.358)" fill="#73bc45"/>
    <path id="Path_9476" data-name="Path 9476" d="M62.477,387.959h-.8a.133.133,0,0,1-.133-.133v-.8a.133.133,0,0,1,.133-.133h.8a.133.133,0,0,1,.133.133v.8a.133.133,0,0,1-.133.133m-.669-.266h.536v-.536h-.536Z" transform="translate(-51.299 -322.49)" fill="#73bc45"/>
    <path id="Path_9477" data-name="Path 9477" d="M62.477,397.715h-.8a.133.133,0,0,1-.133-.133v-.8a.133.133,0,0,1,.133-.133h.8a.133.133,0,0,1,.133.133v.8a.133.133,0,0,1-.133.133m-.669-.266h.536v-.536h-.536Z" transform="translate(-51.299 -330.622)" fill="#73bc45"/>
    <path id="Path_9478" data-name="Path 9478" d="M62.477,407.471h-.8a.133.133,0,0,1-.133-.133v-.8a.133.133,0,0,1,.133-.133h.8a.133.133,0,0,1,.133.133v.8a.133.133,0,0,1-.133.133m-.669-.266h.536v-.536h-.536Z" transform="translate(-51.299 -338.754)" fill="#73bc45"/>
    <path id="Path_9479" data-name="Path 9479" d="M76.823,368.447h-.8a.133.133,0,0,1-.133-.133v-.8a.133.133,0,0,1,.133-.133h.8a.133.133,0,0,1,.133.133v.8a.133.133,0,0,1-.133.133m-.668-.266h.536v-.535h-.536Z" transform="translate(-63.257 -306.226)" fill="#73bc45"/>
    <path id="Path_9480" data-name="Path 9480" d="M76.823,378.2h-.8a.133.133,0,0,1-.133-.133v-.8a.133.133,0,0,1,.133-.133h.8a.133.133,0,0,1,.133.133v.8a.133.133,0,0,1-.133.133m-.668-.266h.536V377.4h-.536Z" transform="translate(-63.257 -314.358)" fill="#73bc45"/>
    <path id="Path_9481" data-name="Path 9481" d="M76.823,387.959h-.8a.133.133,0,0,1-.133-.133v-.8a.133.133,0,0,1,.133-.133h.8a.133.133,0,0,1,.133.133v.8a.133.133,0,0,1-.133.133m-.668-.266h.536v-.536h-.536Z" transform="translate(-63.257 -322.49)" fill="#73bc45"/>
    <path id="Path_9482" data-name="Path 9482" d="M76.823,397.715h-.8a.133.133,0,0,1-.133-.133v-.8a.133.133,0,0,1,.133-.133h.8a.133.133,0,0,1,.133.133v.8a.133.133,0,0,1-.133.133m-.668-.266h.536v-.536h-.536Z" transform="translate(-63.257 -330.622)" fill="#73bc45"/>
    <path id="Path_9483" data-name="Path 9483" d="M76.823,407.471h-.8a.133.133,0,0,1-.133-.133v-.8a.133.133,0,0,1,.133-.133h.8a.133.133,0,0,1,.133.133v.8a.133.133,0,0,1-.133.133m-.668-.266h.536v-.536h-.536Z" transform="translate(-63.257 -338.754)" fill="#73bc45"/>
    <path id="Path_9484" data-name="Path 9484" d="M91.17,368.447h-.8a.133.133,0,0,1-.133-.133v-.8a.133.133,0,0,1,.133-.133h.8a.133.133,0,0,1,.133.133v.8a.133.133,0,0,1-.133.133m-.668-.266h.535v-.535H90.5Z" transform="translate(-75.215 -306.226)" fill="#73bc45"/>
    <path id="Path_9485" data-name="Path 9485" d="M91.17,378.2h-.8a.133.133,0,0,1-.133-.133v-.8a.133.133,0,0,1,.133-.133h.8a.133.133,0,0,1,.133.133v.8a.133.133,0,0,1-.133.133m-.668-.266h.535V377.4H90.5Z" transform="translate(-75.215 -314.358)" fill="#73bc45"/>
    <path id="Path_9486" data-name="Path 9486" d="M91.17,387.959h-.8a.133.133,0,0,1-.133-.133v-.8a.133.133,0,0,1,.133-.133h.8a.133.133,0,0,1,.133.133v.8a.133.133,0,0,1-.133.133m-.668-.266h.535v-.536H90.5Z" transform="translate(-75.215 -322.49)" fill="#73bc45"/>
    <path id="Path_9487" data-name="Path 9487" d="M91.17,397.715h-.8a.133.133,0,0,1-.133-.133v-.8a.133.133,0,0,1,.133-.133h.8a.133.133,0,0,1,.133.133v.8a.133.133,0,0,1-.133.133m-.668-.266h.535v-.536H90.5Z" transform="translate(-75.215 -330.622)" fill="#73bc45"/>
    <path id="Path_9488" data-name="Path 9488" d="M91.17,407.471h-.8a.133.133,0,0,1-.133-.133v-.8a.133.133,0,0,1,.133-.133h.8a.133.133,0,0,1,.133.133v.8a.133.133,0,0,1-.133.133m-.668-.266h.535v-.536H90.5Z" transform="translate(-75.215 -338.754)" fill="#73bc45"/>
    <path id="Path_9489" data-name="Path 9489" d="M105.515,368.447h-.8a.133.133,0,0,1-.133-.133v-.8a.133.133,0,0,1,.133-.133h.8a.133.133,0,0,1,.133.133v.8a.133.133,0,0,1-.133.133m-.668-.266h.536v-.535h-.536Z" transform="translate(-87.172 -306.226)" fill="#73bc45"/>
    <path id="Path_9490" data-name="Path 9490" d="M105.515,378.2h-.8a.133.133,0,0,1-.133-.133v-.8a.133.133,0,0,1,.133-.133h.8a.133.133,0,0,1,.133.133v.8a.133.133,0,0,1-.133.133m-.668-.266h.536V377.4h-.536Z" transform="translate(-87.172 -314.358)" fill="#73bc45"/>
    <path id="Path_9491" data-name="Path 9491" d="M105.515,387.959h-.8a.133.133,0,0,1-.133-.133v-.8a.133.133,0,0,1,.133-.133h.8a.133.133,0,0,1,.133.133v.8a.133.133,0,0,1-.133.133m-.668-.266h.536v-.536h-.536Z" transform="translate(-87.172 -322.49)" fill="#73bc45"/>
    <path id="Path_9492" data-name="Path 9492" d="M105.515,397.715h-.8a.133.133,0,0,1-.133-.133v-.8a.133.133,0,0,1,.133-.133h.8a.133.133,0,0,1,.133.133v.8a.133.133,0,0,1-.133.133m-.668-.266h.536v-.536h-.536Z" transform="translate(-87.172 -330.622)" fill="#73bc45"/>
    <path id="Path_9493" data-name="Path 9493" d="M105.515,407.471h-.8a.133.133,0,0,1-.133-.133v-.8a.133.133,0,0,1,.133-.133h.8a.133.133,0,0,1,.133.133v.8a.133.133,0,0,1-.133.133m-.668-.266h.536v-.536h-.536Z" transform="translate(-87.172 -338.754)" fill="#73bc45"/>
    <path id="Path_9494" data-name="Path 9494" d="M119.861,368.447h-.8a.133.133,0,0,1-.133-.133v-.8a.133.133,0,0,1,.133-.133h.8a.133.133,0,0,1,.133.133v.8a.133.133,0,0,1-.133.133m-.668-.266h.536v-.535h-.536Z" transform="translate(-99.13 -306.226)" fill="#73bc45"/>
    <path id="Path_9495" data-name="Path 9495" d="M119.861,378.2h-.8a.133.133,0,0,1-.133-.133v-.8a.133.133,0,0,1,.133-.133h.8a.133.133,0,0,1,.133.133v.8a.133.133,0,0,1-.133.133m-.668-.266h.536V377.4h-.536Z" transform="translate(-99.13 -314.358)" fill="#73bc45"/>
    <path id="Path_9496" data-name="Path 9496" d="M119.861,387.959h-.8a.133.133,0,0,1-.133-.133v-.8a.133.133,0,0,1,.133-.133h.8a.133.133,0,0,1,.133.133v.8a.133.133,0,0,1-.133.133m-.668-.266h.536v-.536h-.536Z" transform="translate(-99.13 -322.49)" fill="#73bc45"/>
    <path id="Path_9497" data-name="Path 9497" d="M119.861,397.715h-.8a.133.133,0,0,1-.133-.133v-.8a.133.133,0,0,1,.133-.133h.8a.133.133,0,0,1,.133.133v.8a.133.133,0,0,1-.133.133m-.668-.266h.536v-.536h-.536Z" transform="translate(-99.13 -330.622)" fill="#73bc45"/>
    <path id="Path_9498" data-name="Path 9498" d="M119.861,407.471h-.8a.133.133,0,0,1-.133-.133v-.8a.133.133,0,0,1,.133-.133h.8a.133.133,0,0,1,.133.133v.8a.133.133,0,0,1-.133.133m-.668-.266h.536v-.536h-.536Z" transform="translate(-99.13 -338.754)" fill="#73bc45"/>
    <path id="Path_9499" data-name="Path 9499" d="M143.927,368.447h-.8a.133.133,0,0,1-.133-.133v-.8a.133.133,0,0,1,.133-.133h.8a.133.133,0,0,1,.133.133v.8a.133.133,0,0,1-.133.133m-.668-.266h.536v-.535h-.536Z" transform="translate(-119.19 -306.226)" fill="#73bc45"/>
    <path id="Path_9500" data-name="Path 9500" d="M143.927,378.2h-.8a.133.133,0,0,1-.133-.133v-.8a.133.133,0,0,1,.133-.133h.8a.133.133,0,0,1,.133.133v.8a.133.133,0,0,1-.133.133m-.668-.266h.536V377.4h-.536Z" transform="translate(-119.19 -314.358)" fill="#73bc45"/>
    <path id="Path_9501" data-name="Path 9501" d="M143.927,387.959h-.8a.133.133,0,0,1-.133-.133v-.8a.133.133,0,0,1,.133-.133h.8a.133.133,0,0,1,.133.133v.8a.133.133,0,0,1-.133.133m-.668-.266h.536v-.536h-.536Z" transform="translate(-119.19 -322.49)" fill="#73bc45"/>
    <path id="Path_9502" data-name="Path 9502" d="M143.927,397.715h-.8a.133.133,0,0,1-.133-.133v-.8a.133.133,0,0,1,.133-.133h.8a.133.133,0,0,1,.133.133v.8a.133.133,0,0,1-.133.133m-.668-.266h.536v-.536h-.536Z" transform="translate(-119.19 -330.622)" fill="#73bc45"/>
    <path id="Path_9503" data-name="Path 9503" d="M143.927,407.471h-.8a.133.133,0,0,1-.133-.133v-.8a.133.133,0,0,1,.133-.133h.8a.133.133,0,0,1,.133.133v.8a.133.133,0,0,1-.133.133m-.668-.266h.536v-.536h-.536Z" transform="translate(-119.19 -338.754)" fill="#73bc45"/>
    <path id="Path_9504" data-name="Path 9504" d="M158.272,368.447h-.8a.133.133,0,0,1-.133-.133v-.8a.133.133,0,0,1,.133-.133h.8a.133.133,0,0,1,.133.133v.8a.133.133,0,0,1-.133.133m-.668-.266h.536v-.535H157.6Z" transform="translate(-131.148 -306.226)" fill="#73bc45"/>
    <path id="Path_9505" data-name="Path 9505" d="M158.272,378.2h-.8a.133.133,0,0,1-.133-.133v-.8a.133.133,0,0,1,.133-.133h.8a.133.133,0,0,1,.133.133v.8a.133.133,0,0,1-.133.133m-.668-.266h.536V377.4H157.6Z" transform="translate(-131.148 -314.358)" fill="#73bc45"/>
    <path id="Path_9506" data-name="Path 9506" d="M158.272,387.959h-.8a.133.133,0,0,1-.133-.133v-.8a.133.133,0,0,1,.133-.133h.8a.133.133,0,0,1,.133.133v.8a.133.133,0,0,1-.133.133m-.668-.266h.536v-.536H157.6Z" transform="translate(-131.148 -322.49)" fill="#73bc45"/>
    <path id="Path_9507" data-name="Path 9507" d="M158.272,397.715h-.8a.133.133,0,0,1-.133-.133v-.8a.133.133,0,0,1,.133-.133h.8a.133.133,0,0,1,.133.133v.8a.133.133,0,0,1-.133.133m-.668-.266h.536v-.536H157.6Z" transform="translate(-131.148 -330.622)" fill="#73bc45"/>
    <path id="Path_9508" data-name="Path 9508" d="M158.272,407.471h-.8a.133.133,0,0,1-.133-.133v-.8a.133.133,0,0,1,.133-.133h.8a.133.133,0,0,1,.133.133v.8a.133.133,0,0,1-.133.133m-.668-.266h.536v-.536H157.6Z" transform="translate(-131.148 -338.754)" fill="#73bc45"/>
    <path id="Path_9509" data-name="Path 9509" d="M172.618,368.447h-.8a.133.133,0,0,1-.133-.133v-.8a.133.133,0,0,1,.133-.133h.8a.133.133,0,0,1,.133.133v.8a.133.133,0,0,1-.133.133m-.668-.266h.535v-.535h-.535Z" transform="translate(-143.106 -306.226)" fill="#73bc45"/>
    <path id="Path_9510" data-name="Path 9510" d="M172.618,378.2h-.8a.133.133,0,0,1-.133-.133v-.8a.133.133,0,0,1,.133-.133h.8a.133.133,0,0,1,.133.133v.8a.133.133,0,0,1-.133.133m-.668-.266h.535V377.4h-.535Z" transform="translate(-143.106 -314.358)" fill="#73bc45"/>
    <path id="Path_9511" data-name="Path 9511" d="M172.618,387.959h-.8a.133.133,0,0,1-.133-.133v-.8a.133.133,0,0,1,.133-.133h.8a.133.133,0,0,1,.133.133v.8a.133.133,0,0,1-.133.133m-.668-.266h.535v-.536h-.535Z" transform="translate(-143.106 -322.49)" fill="#73bc45"/>
    <path id="Path_9512" data-name="Path 9512" d="M172.618,397.715h-.8a.133.133,0,0,1-.133-.133v-.8a.133.133,0,0,1,.133-.133h.8a.133.133,0,0,1,.133.133v.8a.133.133,0,0,1-.133.133m-.668-.266h.535v-.536h-.535Z" transform="translate(-143.106 -330.622)" fill="#73bc45"/>
    <path id="Path_9513" data-name="Path 9513" d="M172.618,407.471h-.8a.133.133,0,0,1-.133-.133v-.8a.133.133,0,0,1,.133-.133h.8a.133.133,0,0,1,.133.133v.8a.133.133,0,0,1-.133.133m-.668-.266h.535v-.536h-.535Z" transform="translate(-143.106 -338.754)" fill="#73bc45"/>
    <path id="Path_9514" data-name="Path 9514" d="M186.964,368.447h-.8a.133.133,0,0,1-.133-.133v-.8a.133.133,0,0,1,.133-.133h.8a.133.133,0,0,1,.133.133v.8a.133.133,0,0,1-.133.133m-.669-.266h.536v-.535H186.3Z" transform="translate(-155.063 -306.226)" fill="#73bc45"/>
    <path id="Path_9515" data-name="Path 9515" d="M186.964,378.2h-.8a.133.133,0,0,1-.133-.133v-.8a.133.133,0,0,1,.133-.133h.8a.133.133,0,0,1,.133.133v.8a.133.133,0,0,1-.133.133m-.669-.266h.536V377.4H186.3Z" transform="translate(-155.063 -314.358)" fill="#73bc45"/>
    <path id="Path_9516" data-name="Path 9516" d="M186.964,387.959h-.8a.133.133,0,0,1-.133-.133v-.8a.133.133,0,0,1,.133-.133h.8a.133.133,0,0,1,.133.133v.8a.133.133,0,0,1-.133.133m-.669-.266h.536v-.536H186.3Z" transform="translate(-155.063 -322.49)" fill="#73bc45"/>
    <path id="Path_9517" data-name="Path 9517" d="M186.964,397.715h-.8a.133.133,0,0,1-.133-.133v-.8a.133.133,0,0,1,.133-.133h.8a.133.133,0,0,1,.133.133v.8a.133.133,0,0,1-.133.133m-.669-.266h.536v-.536H186.3Z" transform="translate(-155.063 -330.622)" fill="#73bc45"/>
    <path id="Path_9518" data-name="Path 9518" d="M186.964,407.471h-.8a.133.133,0,0,1-.133-.133v-.8a.133.133,0,0,1,.133-.133h.8a.133.133,0,0,1,.133.133v.8a.133.133,0,0,1-.133.133m-.669-.266h.536v-.536H186.3Z" transform="translate(-155.063 -338.754)" fill="#73bc45"/>
    <path id="Path_9519" data-name="Path 9519" d="M32.9,348.7a.133.133,0,0,1-.118-.071l-1-1.906v1.667a.133.133,0,1,1-.266,0v-2.2a.133.133,0,0,1,.25-.062l1.252,2.382a.133.133,0,0,1-.056.179.131.131,0,0,1-.062.015" transform="translate(-26.27 -288.445)" fill="#73bc45"/>
    <path id="Path_9520" data-name="Path 9520" d="M46.928,348.918a.133.133,0,0,1-.118-.071l-1.118-2.128v1.96a.133.133,0,1,1-.265,0v-2.5a.133.133,0,0,1,.25-.062l1.369,2.6a.133.133,0,0,1-.056.179.13.13,0,0,1-.062.015" transform="translate(-37.864 -288.445)" fill="#73bc45"/>
    <path id="Path_9521" data-name="Path 9521" d="M60.873,348.989a.133.133,0,0,1-.118-.071l-1.156-2.2v2.112a.133.133,0,0,1-.266,0v-2.65a.133.133,0,0,1,.25-.062l1.406,2.675a.132.132,0,0,1-.056.179.131.131,0,0,1-.062.015" transform="translate(-49.457 -288.445)" fill="#73bc45"/>
    <path id="Path_9522" data-name="Path 9522" d="M73.376,348.979a.133.133,0,0,1-.133-.133v-2.665a.133.133,0,0,1,.25-.062l1.372,2.611a.133.133,0,0,1-.235.124l-1.122-2.134v2.127a.133.133,0,0,1-.133.133" transform="translate(-61.051 -288.445)" fill="#73bc45"/>
    <path id="Path_9523" data-name="Path 9523" d="M87.286,348.857a.133.133,0,0,1-.133-.133v-2.543a.133.133,0,0,1,.25-.062l1.27,2.416a.133.133,0,0,1-.235.124l-1.019-1.939v2.005a.133.133,0,0,1-.133.133" transform="translate(-72.646 -288.445)" fill="#73bc45"/>
    <path id="Path_9524" data-name="Path 9524" d="M101.195,348.59a.133.133,0,0,1-.133-.133v-2.276a.133.133,0,0,1,.25-.062l1.1,2.1a.133.133,0,0,1-.235.124l-.852-1.622v1.738a.133.133,0,0,1-.133.133" transform="translate(-84.239 -288.445)" fill="#73bc45"/>
    <path id="Path_9525" data-name="Path 9525" d="M16.947,341.408h-.91a.133.133,0,0,1,0-.266h.91a.133.133,0,0,1,0,.266" transform="translate(-13.257 -284.356)" fill="#73bc45"/>
    <path id="Path_9526" data-name="Path 9526" d="M27.615,341.408h-.909a.133.133,0,0,1,0-.266h.909a.133.133,0,0,1,0,.266" transform="translate(-22.15 -284.356)" fill="#73bc45"/>
    <path id="Path_9527" data-name="Path 9527" d="M16.947,332.785h-.91a.133.133,0,1,1,0-.266h.91a.133.133,0,1,1,0,.266" transform="translate(-13.257 -277.168)" fill="#73bc45"/>
    <path id="Path_9528" data-name="Path 9528" d="M27.615,332.785h-.909a.133.133,0,1,1,0-.266h.909a.133.133,0,1,1,0,.266" transform="translate(-22.15 -277.168)" fill="#73bc45"/>
    <path id="Path_9529" data-name="Path 9529" d="M16.947,324.162h-.91a.133.133,0,0,1,0-.266h.91a.133.133,0,0,1,0,.266" transform="translate(-13.257 -269.98)" fill="#73bc45"/>
    <path id="Path_9530" data-name="Path 9530" d="M27.615,324.162h-.909a.133.133,0,0,1,0-.266h.909a.133.133,0,0,1,0,.266" transform="translate(-22.15 -269.98)" fill="#73bc45"/>
    <path id="Path_9531" data-name="Path 9531" d="M16.947,315.539h-.91a.133.133,0,0,1,0-.266h.91a.133.133,0,0,1,0,.266" transform="translate(-13.257 -262.793)" fill="#73bc45"/>
    <path id="Path_9532" data-name="Path 9532" d="M27.615,315.539h-.909a.133.133,0,0,1,0-.266h.909a.133.133,0,0,1,0,.266" transform="translate(-22.15 -262.793)" fill="#73bc45"/>
    <path id="Path_9533" data-name="Path 9533" d="M16.947,306.916h-.91a.133.133,0,0,1,0-.266h.91a.133.133,0,0,1,0,.266" transform="translate(-13.257 -255.605)" fill="#73bc45"/>
    <path id="Path_9534" data-name="Path 9534" d="M27.615,306.916h-.909a.133.133,0,0,1,0-.266h.909a.133.133,0,0,1,0,.266" transform="translate(-22.15 -255.605)" fill="#73bc45"/>
    <path id="Path_9535" data-name="Path 9535" d="M16.947,298.294h-.91a.133.133,0,1,1,0-.266h.91a.133.133,0,1,1,0,.266" transform="translate(-13.257 -248.418)" fill="#73bc45"/>
    <path id="Path_9536" data-name="Path 9536" d="M27.615,298.294h-.909a.133.133,0,1,1,0-.266h.909a.133.133,0,1,1,0,.266" transform="translate(-22.15 -248.418)" fill="#73bc45"/>
    <path id="Path_9537" data-name="Path 9537" d="M16.947,289.671h-.91a.133.133,0,1,1,0-.266h.91a.133.133,0,1,1,0,.266" transform="translate(-13.257 -241.231)" fill="#73bc45"/>
    <path id="Path_9538" data-name="Path 9538" d="M27.615,289.671h-.909a.133.133,0,1,1,0-.266h.909a.133.133,0,1,1,0,.266" transform="translate(-22.15 -241.231)" fill="#73bc45"/>
    <path id="Path_9539" data-name="Path 9539" d="M16.947,281.048h-.91a.133.133,0,1,1,0-.266h.91a.133.133,0,1,1,0,.266" transform="translate(-13.257 -234.043)" fill="#73bc45"/>
    <path id="Path_9540" data-name="Path 9540" d="M27.615,281.048h-.909a.133.133,0,1,1,0-.266h.909a.133.133,0,1,1,0,.266" transform="translate(-22.15 -234.043)" fill="#73bc45"/>
    <path id="Path_9541" data-name="Path 9541" d="M16.947,272.424h-.91a.133.133,0,0,1,0-.266h.91a.133.133,0,0,1,0,.266" transform="translate(-13.257 -226.855)" fill="#73bc45"/>
    <path id="Path_9542" data-name="Path 9542" d="M27.615,272.424h-.909a.133.133,0,0,1,0-.266h.909a.133.133,0,0,1,0,.266" transform="translate(-22.15 -226.855)" fill="#73bc45"/>
    <path id="Path_9543" data-name="Path 9543" d="M16.947,263.8h-.91a.133.133,0,0,1,0-.266h.91a.133.133,0,0,1,0,.266" transform="translate(-13.257 -219.667)" fill="#73bc45"/>
    <path id="Path_9544" data-name="Path 9544" d="M27.615,263.8h-.909a.133.133,0,0,1,0-.266h.909a.133.133,0,0,1,0,.266" transform="translate(-22.15 -219.667)" fill="#73bc45"/>
    <path id="Path_9545" data-name="Path 9545" d="M16.947,255.179h-.91a.133.133,0,1,1,0-.266h.91a.133.133,0,1,1,0,.266" transform="translate(-13.257 -212.48)" fill="#73bc45"/>
    <path id="Path_9546" data-name="Path 9546" d="M27.615,255.179h-.909a.133.133,0,1,1,0-.266h.909a.133.133,0,1,1,0,.266" transform="translate(-22.15 -212.48)" fill="#73bc45"/>
    <path id="Path_9547" data-name="Path 9547" d="M16.947,246.556h-.91a.133.133,0,0,1,0-.266h.91a.133.133,0,0,1,0,.266" transform="translate(-13.257 -205.293)" fill="#73bc45"/>
    <path id="Path_9548" data-name="Path 9548" d="M27.615,246.556h-.909a.133.133,0,0,1,0-.266h.909a.133.133,0,0,1,0,.266" transform="translate(-22.15 -205.293)" fill="#73bc45"/>
    <path id="Path_9549" data-name="Path 9549" d="M16.947,237.933h-.91a.133.133,0,1,1,0-.266h.91a.133.133,0,1,1,0,.266" transform="translate(-13.257 -198.105)" fill="#73bc45"/>
    <path id="Path_9550" data-name="Path 9550" d="M27.615,237.933h-.909a.133.133,0,1,1,0-.266h.909a.133.133,0,1,1,0,.266" transform="translate(-22.15 -198.105)" fill="#73bc45"/>
    <path id="Path_9551" data-name="Path 9551" d="M16.947,229.31h-.91a.133.133,0,0,1,0-.266h.91a.133.133,0,0,1,0,.266" transform="translate(-13.257 -190.917)" fill="#73bc45"/>
    <path id="Path_9552" data-name="Path 9552" d="M27.615,229.31h-.909a.133.133,0,0,1,0-.266h.909a.133.133,0,0,1,0,.266" transform="translate(-22.15 -190.917)" fill="#73bc45"/>
    <path id="Path_9553" data-name="Path 9553" d="M16.947,220.687h-.91a.133.133,0,1,1,0-.266h.91a.133.133,0,1,1,0,.266" transform="translate(-13.257 -183.73)" fill="#73bc45"/>
    <path id="Path_9554" data-name="Path 9554" d="M27.615,220.687h-.909a.133.133,0,1,1,0-.266h.909a.133.133,0,1,1,0,.266" transform="translate(-22.15 -183.73)" fill="#73bc45"/>
    <path id="Path_9555" data-name="Path 9555" d="M16.947,212.064h-.91a.133.133,0,0,1,0-.266h.91a.133.133,0,1,1,0,.266" transform="translate(-13.257 -176.542)" fill="#73bc45"/>
    <path id="Path_9556" data-name="Path 9556" d="M27.615,212.064h-.909a.133.133,0,1,1,0-.266h.909a.133.133,0,1,1,0,.266" transform="translate(-22.15 -176.542)" fill="#73bc45"/>
    <path id="Path_9557" data-name="Path 9557" d="M16.947,203.442h-.91a.133.133,0,0,1,0-.266h.91a.133.133,0,1,1,0,.266" transform="translate(-13.257 -169.355)" fill="#73bc45"/>
    <path id="Path_9558" data-name="Path 9558" d="M27.615,203.442h-.909a.133.133,0,1,1,0-.266h.909a.133.133,0,1,1,0,.266" transform="translate(-22.15 -169.355)" fill="#73bc45"/>
    <path id="Path_9559" data-name="Path 9559" d="M16.947,194.819h-.91a.133.133,0,0,1,0-.266h.91a.133.133,0,0,1,0,.266" transform="translate(-13.257 -162.168)" fill="#73bc45"/>
    <path id="Path_9560" data-name="Path 9560" d="M27.615,194.819h-.909a.133.133,0,0,1,0-.266h.909a.133.133,0,0,1,0,.266" transform="translate(-22.15 -162.168)" fill="#73bc45"/>
    <path id="Path_9561" data-name="Path 9561" d="M16.947,186.2h-.91a.133.133,0,0,1,0-.266h.91a.133.133,0,1,1,0,.266" transform="translate(-13.257 -154.98)" fill="#73bc45"/>
    <path id="Path_9562" data-name="Path 9562" d="M27.615,186.2h-.909a.133.133,0,1,1,0-.266h.909a.133.133,0,1,1,0,.266" transform="translate(-22.15 -154.98)" fill="#73bc45"/>
    <path id="Path_9563" data-name="Path 9563" d="M16.947,177.573h-.91a.133.133,0,0,1,0-.266h.91a.133.133,0,1,1,0,.266" transform="translate(-13.257 -147.793)" fill="#73bc45"/>
    <path id="Path_9564" data-name="Path 9564" d="M27.615,177.573h-.909a.133.133,0,1,1,0-.266h.909a.133.133,0,1,1,0,.266" transform="translate(-22.15 -147.793)" fill="#73bc45"/>
    <path id="Path_9565" data-name="Path 9565" d="M16.947,168.95h-.91a.133.133,0,0,1,0-.266h.91a.133.133,0,0,1,0,.266" transform="translate(-13.257 -140.605)" fill="#73bc45"/>
    <path id="Path_9566" data-name="Path 9566" d="M27.615,168.95h-.909a.133.133,0,0,1,0-.266h.909a.133.133,0,0,1,0,.266" transform="translate(-22.15 -140.605)" fill="#73bc45"/>
    <path id="Path_9567" data-name="Path 9567" d="M16.947,160.328h-.91a.133.133,0,0,1,0-.266h.91a.133.133,0,1,1,0,.266" transform="translate(-13.257 -133.418)" fill="#73bc45"/>
    <path id="Path_9568" data-name="Path 9568" d="M27.615,160.328h-.909a.133.133,0,1,1,0-.266h.909a.133.133,0,1,1,0,.266" transform="translate(-22.15 -133.418)" fill="#73bc45"/>
    <path id="Path_9569" data-name="Path 9569" d="M16.947,151.7h-.91a.133.133,0,0,1,0-.266h.91a.133.133,0,1,1,0,.266" transform="translate(-13.257 -126.23)" fill="#73bc45"/>
    <path id="Path_9570" data-name="Path 9570" d="M27.615,151.7h-.909a.133.133,0,1,1,0-.266h.909a.133.133,0,1,1,0,.266" transform="translate(-22.15 -126.23)" fill="#73bc45"/>
    <path id="Path_9571" data-name="Path 9571" d="M16.947,143.082h-.91a.133.133,0,0,1,0-.266h.91a.133.133,0,1,1,0,.266" transform="translate(-13.257 -119.043)" fill="#73bc45"/>
    <path id="Path_9572" data-name="Path 9572" d="M27.615,143.082h-.909a.133.133,0,1,1,0-.266h.909a.133.133,0,1,1,0,.266" transform="translate(-22.15 -119.043)" fill="#73bc45"/>
    <path id="Path_9573" data-name="Path 9573" d="M16.947,134.459h-.91a.133.133,0,0,1,0-.266h.91a.133.133,0,1,1,0,.266" transform="translate(-13.257 -111.855)" fill="#73bc45"/>
    <path id="Path_9574" data-name="Path 9574" d="M27.615,134.459h-.909a.133.133,0,1,1,0-.266h.909a.133.133,0,1,1,0,.266" transform="translate(-22.15 -111.855)" fill="#73bc45"/>
    <path id="Path_9575" data-name="Path 9575" d="M16.947,125.836h-.91a.133.133,0,0,1,0-.266h.91a.133.133,0,1,1,0,.266" transform="translate(-13.257 -104.668)" fill="#73bc45"/>
    <path id="Path_9576" data-name="Path 9576" d="M27.615,125.836h-.909a.133.133,0,1,1,0-.266h.909a.133.133,0,1,1,0,.266" transform="translate(-22.15 -104.668)" fill="#73bc45"/>
    <path id="Path_9577" data-name="Path 9577" d="M16.947,117.213h-.91a.133.133,0,0,1,0-.266h.91a.133.133,0,1,1,0,.266" transform="translate(-13.257 -97.48)" fill="#73bc45"/>
    <path id="Path_9578" data-name="Path 9578" d="M27.615,117.213h-.909a.133.133,0,1,1,0-.266h.909a.133.133,0,1,1,0,.266" transform="translate(-22.15 -97.48)" fill="#73bc45"/>
    <path id="Path_9579" data-name="Path 9579" d="M16.947,108.59h-.91a.133.133,0,0,1,0-.266h.91a.133.133,0,1,1,0,.266" transform="translate(-13.257 -90.292)" fill="#73bc45"/>
    <path id="Path_9580" data-name="Path 9580" d="M27.615,108.59h-.909a.133.133,0,1,1,0-.266h.909a.133.133,0,1,1,0,.266" transform="translate(-22.15 -90.292)" fill="#73bc45"/>
    <path id="Path_9581" data-name="Path 9581" d="M16.947,99.967h-.91a.133.133,0,0,1,0-.266h.91a.133.133,0,0,1,0,.266" transform="translate(-13.257 -83.105)" fill="#73bc45"/>
    <path id="Path_9582" data-name="Path 9582" d="M27.615,99.967h-.909a.133.133,0,0,1,0-.266h.909a.133.133,0,1,1,0,.266" transform="translate(-22.15 -83.105)" fill="#73bc45"/>
    <path id="Path_9583" data-name="Path 9583" d="M16.947,91.344h-.91a.133.133,0,0,1,0-.266h.91a.133.133,0,0,1,0,.266" transform="translate(-13.257 -75.917)" fill="#73bc45"/>
    <path id="Path_9584" data-name="Path 9584" d="M27.615,91.344h-.909a.133.133,0,0,1,0-.266h.909a.133.133,0,1,1,0,.266" transform="translate(-22.15 -75.917)" fill="#73bc45"/>
    <path id="Path_9585" data-name="Path 9585" d="M16.947,82.722h-.91a.133.133,0,0,1,0-.266h.91a.133.133,0,0,1,0,.266" transform="translate(-13.257 -68.73)" fill="#73bc45"/>
    <path id="Path_9586" data-name="Path 9586" d="M27.615,82.722h-.909a.133.133,0,0,1,0-.266h.909a.133.133,0,1,1,0,.266" transform="translate(-22.15 -68.73)" fill="#73bc45"/>
    <path id="Path_9587" data-name="Path 9587" d="M16.947,74.1h-.91a.133.133,0,1,1,0-.266h.91a.133.133,0,1,1,0,.266" transform="translate(-13.257 -61.543)" fill="#73bc45"/>
    <path id="Path_9588" data-name="Path 9588" d="M27.615,74.1h-.909a.133.133,0,1,1,0-.266h.909a.133.133,0,1,1,0,.266" transform="translate(-22.15 -61.543)" fill="#73bc45"/>
    <path id="Path_9589" data-name="Path 9589" d="M16.947,65.476h-.91a.133.133,0,0,1,0-.266h.91a.133.133,0,0,1,0,.266" transform="translate(-13.257 -54.355)" fill="#73bc45"/>
    <path id="Path_9590" data-name="Path 9590" d="M27.615,65.476h-.909a.133.133,0,0,1,0-.266h.909a.133.133,0,1,1,0,.266" transform="translate(-22.15 -54.355)" fill="#73bc45"/>
    <path id="Path_9591" data-name="Path 9591" d="M16.947,56.853h-.91a.133.133,0,0,1,0-.266h.91a.133.133,0,1,1,0,.266" transform="translate(-13.257 -47.168)" fill="#73bc45"/>
    <path id="Path_9592" data-name="Path 9592" d="M27.615,56.853h-.909a.133.133,0,0,1,0-.266h.909a.133.133,0,1,1,0,.266" transform="translate(-22.15 -47.168)" fill="#73bc45"/>
    <path id="Path_9593" data-name="Path 9593" d="M60.927,341.408H49.669a.133.133,0,0,1,0-.266H60.927a.133.133,0,0,1,0,.266" transform="translate(-41.29 -284.356)" fill="#73bc45"/>
    <path id="Path_9594" data-name="Path 9594" d="M60.641,332.785H49.669a.133.133,0,1,1,0-.266H60.641a.133.133,0,1,1,0,.266" transform="translate(-41.29 -277.168)" fill="#73bc45"/>
    <path id="Path_9595" data-name="Path 9595" d="M60.356,324.162H49.67a.133.133,0,0,1,0-.266H60.356a.133.133,0,0,1,0,.266" transform="translate(-41.291 -269.98)" fill="#73bc45"/>
    <path id="Path_9596" data-name="Path 9596" d="M60.07,315.539H49.67a.133.133,0,0,1,0-.266h10.4a.133.133,0,0,1,0,.266" transform="translate(-41.291 -262.793)" fill="#73bc45"/>
    <path id="Path_9597" data-name="Path 9597" d="M59.783,306.916H49.669a.133.133,0,0,1,0-.266H59.783a.133.133,0,0,1,0,.266" transform="translate(-41.29 -255.605)" fill="#73bc45"/>
    <path id="Path_9598" data-name="Path 9598" d="M59.5,298.294H49.669a.133.133,0,1,1,0-.266H59.5a.133.133,0,1,1,0,.266" transform="translate(-41.29 -248.418)" fill="#73bc45"/>
    <path id="Path_9599" data-name="Path 9599" d="M59.211,289.671H49.67a.133.133,0,1,1,0-.266h9.541a.133.133,0,1,1,0,.266" transform="translate(-41.291 -241.231)" fill="#73bc45"/>
    <path id="Path_9600" data-name="Path 9600" d="M58.925,281.048H49.67a.133.133,0,0,1,0-.266h9.256a.133.133,0,1,1,0,.266" transform="translate(-41.291 -234.043)" fill="#73bc45"/>
    <path id="Path_9601" data-name="Path 9601" d="M58.638,272.424H49.669a.133.133,0,0,1,0-.266h8.969a.133.133,0,0,1,0,.266" transform="translate(-41.29 -226.855)" fill="#73bc45"/>
    <path id="Path_9602" data-name="Path 9602" d="M58.352,263.8H49.669a.133.133,0,0,1,0-.266h8.683a.133.133,0,0,1,0,.266" transform="translate(-41.29 -219.667)" fill="#73bc45"/>
    <path id="Path_9603" data-name="Path 9603" d="M58.067,255.179h-8.4a.133.133,0,1,1,0-.266h8.4a.133.133,0,1,1,0,.266" transform="translate(-41.291 -212.48)" fill="#73bc45"/>
    <path id="Path_9604" data-name="Path 9604" d="M57.781,246.556H49.67a.133.133,0,0,1,0-.266h8.111a.133.133,0,0,1,0,.266" transform="translate(-41.291 -205.293)" fill="#73bc45"/>
    <path id="Path_9605" data-name="Path 9605" d="M57.494,237.933H49.669a.133.133,0,1,1,0-.266h7.825a.133.133,0,1,1,0,.266" transform="translate(-41.29 -198.105)" fill="#73bc45"/>
    <path id="Path_9606" data-name="Path 9606" d="M57.208,229.31H49.669a.133.133,0,0,1,0-.266h7.539a.133.133,0,0,1,0,.266" transform="translate(-41.29 -190.917)" fill="#73bc45"/>
    <path id="Path_9607" data-name="Path 9607" d="M56.923,220.687H49.67a.133.133,0,1,1,0-.266h7.253a.133.133,0,1,1,0,.266" transform="translate(-41.291 -183.73)" fill="#73bc45"/>
    <path id="Path_9608" data-name="Path 9608" d="M56.637,212.064H49.67a.133.133,0,0,1,0-.266h6.967a.133.133,0,1,1,0,.266" transform="translate(-41.291 -176.542)" fill="#73bc45"/>
    <path id="Path_9609" data-name="Path 9609" d="M56.35,203.442H49.669a.133.133,0,0,1,0-.266H56.35a.133.133,0,1,1,0,.266" transform="translate(-41.29 -169.355)" fill="#73bc45"/>
    <path id="Path_9610" data-name="Path 9610" d="M56.063,194.819H49.669a.133.133,0,0,1,0-.266h6.395a.133.133,0,0,1,0,.266" transform="translate(-41.29 -162.168)" fill="#73bc45"/>
    <path id="Path_9611" data-name="Path 9611" d="M55.778,186.2H49.67a.133.133,0,1,1,0-.266h6.108a.133.133,0,1,1,0,.266" transform="translate(-41.291 -154.98)" fill="#73bc45"/>
    <path id="Path_9612" data-name="Path 9612" d="M55.492,177.573H49.67a.133.133,0,0,1,0-.266h5.822a.133.133,0,1,1,0,.266" transform="translate(-41.291 -147.793)" fill="#73bc45"/>
    <path id="Path_9613" data-name="Path 9613" d="M55.205,168.95H49.669a.133.133,0,0,1,0-.266h5.536a.133.133,0,0,1,0,.266" transform="translate(-41.29 -140.605)" fill="#73bc45"/>
    <path id="Path_9614" data-name="Path 9614" d="M54.919,160.328h-5.25a.133.133,0,0,1,0-.266h5.25a.133.133,0,1,1,0,.266" transform="translate(-41.29 -133.418)" fill="#73bc45"/>
    <path id="Path_9615" data-name="Path 9615" d="M54.634,151.7H49.67a.133.133,0,1,1,0-.266h4.964a.133.133,0,1,1,0,.266" transform="translate(-41.291 -126.23)" fill="#73bc45"/>
    <path id="Path_9616" data-name="Path 9616" d="M54.348,143.082H49.67a.133.133,0,0,1,0-.266h4.678a.133.133,0,1,1,0,.266" transform="translate(-41.291 -119.043)" fill="#73bc45"/>
    <path id="Path_9617" data-name="Path 9617" d="M54.061,134.459H49.669a.133.133,0,0,1,0-.266h4.392a.133.133,0,1,1,0,.266" transform="translate(-41.29 -111.855)" fill="#73bc45"/>
    <path id="Path_9618" data-name="Path 9618" d="M53.775,125.836H49.669a.133.133,0,0,1,0-.266h4.106a.133.133,0,0,1,0,.266" transform="translate(-41.29 -104.668)" fill="#73bc45"/>
    <path id="Path_9619" data-name="Path 9619" d="M53.489,117.213H49.67a.133.133,0,1,1,0-.266h3.82a.133.133,0,1,1,0,.266" transform="translate(-41.291 -97.48)" fill="#73bc45"/>
    <path id="Path_9620" data-name="Path 9620" d="M53.2,108.59H49.67a.133.133,0,0,1,0-.266H53.2a.133.133,0,1,1,0,.266" transform="translate(-41.291 -90.292)" fill="#73bc45"/>
    <path id="Path_9621" data-name="Path 9621" d="M52.916,99.967H49.669a.133.133,0,0,1,0-.266h3.247a.133.133,0,1,1,0,.266" transform="translate(-41.29 -83.105)" fill="#73bc45"/>
    <path id="Path_9622" data-name="Path 9622" d="M52.63,91.344H49.669a.133.133,0,0,1,0-.266H52.63a.133.133,0,0,1,0,.266" transform="translate(-41.29 -75.917)" fill="#73bc45"/>
    <path id="Path_9623" data-name="Path 9623" d="M52.345,82.722H49.67a.133.133,0,0,1,0-.266h2.675a.133.133,0,1,1,0,.266" transform="translate(-41.291 -68.73)" fill="#73bc45"/>
    <path id="Path_9624" data-name="Path 9624" d="M52.059,74.1H49.67a.133.133,0,0,1,0-.266h2.389a.133.133,0,1,1,0,.266" transform="translate(-41.291 -61.543)" fill="#73bc45"/>
    <path id="Path_9625" data-name="Path 9625" d="M51.772,65.476h-2.1a.133.133,0,0,1,0-.266h2.1a.133.133,0,0,1,0,.266" transform="translate(-41.29 -54.355)" fill="#73bc45"/>
    <path id="Path_9626" data-name="Path 9626" d="M51.486,56.853H49.669a.133.133,0,0,1,0-.266h1.817a.133.133,0,1,1,0,.266" transform="translate(-41.29 -47.168)" fill="#73bc45"/>
    <path id="Path_9627" data-name="Path 9627" d="M51.2,48.23H49.67a.133.133,0,1,1,0-.266H51.2a.133.133,0,1,1,0,.266" transform="translate(-41.291 -39.98)" fill="#73bc45"/>
    <path id="Path_9628" data-name="Path 9628" d="M33.744,70H1.871a.4.4,0,0,1-.392-.324L.007,61.881a.4.4,0,0,1,.062-.3l1.472-2.165a.4.4,0,0,1,.33-.174h1.55V58.135H1.871a.4.4,0,0,1-.4-.4V.4a.4.4,0,0,1,.6-.343L9.267,4.293V3.055l-1.8-1.324a.4.4,0,0,1,.236-.72h6.582a.4.4,0,0,1,.236.72l-1.8,1.324V20.182l7.47,37.477a.4.4,0,0,1-.391.476h-.381v1.109H35.736a.4.4,0,0,1,.391.477l-1.992,9.96a.4.4,0,0,1-.391.32M2.2,69.2H33.417L35.25,60.04H19.02a.4.4,0,0,1-.4-.4V57.736a.4.4,0,0,1,.4-.4h.294L11.931,20.3a.407.407,0,0,1-.008-.078V2.853a.4.4,0,0,1,.162-.321l.985-.724H8.917l.985.724a.4.4,0,0,1,.162.321V4.99a.4.4,0,0,1-.6.343L2.269,1.1V57.338h1.55a.4.4,0,0,1,.4.4v1.906a.4.4,0,0,1-.4.4H2.081L.82,61.9Z" transform="translate(0 -0.001)" fill="#73bc45"/>
  </g>
</svg>
