<svg xmlns="http://www.w3.org/2000/svg" width="110.414" height="70" viewBox="0 0 110.414 70">
  <g id="khobar" transform="translate(-675.5 -834.221)">
    <g id="Group_4998" data-name="Group 4998" transform="translate(692.709 851.109)">
      <path id="Path_1420" data-name="Path 1420" d="M829.734,960.039h-76l3.453-6.134h18.124c4.14,0,7.293-1.106,9.372-3.287a10.374,10.374,0,0,0,2.658-6.961V921.549l-12.078-9.835a.4.4,0,0,1,.255-.716h32.43a.4.4,0,0,1,.255.716l-12.079,9.835v22.092a10.378,10.378,0,0,0,2.658,6.977c2.079,2.181,5.232,3.287,9.373,3.287h18.124Zm-74.867-.66h73.739l-2.71-4.814H808.157c-4.332,0-7.648-1.177-9.857-3.5a10.857,10.857,0,0,1-2.833-7.442V921.236l11.762-9.578H776.242L788,921.236v22.405a10.851,10.851,0,0,1-2.833,7.426c-2.208,2.322-5.525,3.5-9.857,3.5H757.576Z" transform="translate(-753.738 -910.998)" fill="#73bc45"/>
    </g>
    <g id="Group_5011" data-name="Group 5011" transform="translate(698.556 895.062)">
      <g id="Group_4999" data-name="Group 4999" transform="translate(0 0)">
        <path id="Path_1421" data-name="Path 1421" d="M784.409,1115.91h-4.091v-4.3h.663l.576-.492a1.238,1.238,0,0,1,1.612,0l.577.492h.663Zm-3.431-.66h2.772v-2.978H783.5l-.762-.649a.58.58,0,0,0-.756,0l-.761.649h-.246Z" transform="translate(-780.318 -1110.822)" fill="#73bc45"/>
      </g>
      <g id="Group_5000" data-name="Group 5000" transform="translate(5.474 0)">
        <path id="Path_1422" data-name="Path 1422" d="M809.295,1115.91H805.2v-4.3h.663l.576-.492a1.238,1.238,0,0,1,1.612,0l.576.492h.663Zm-3.432-.66h2.772v-2.978h-.247l-.761-.649a.581.581,0,0,0-.756,0l-.761.649h-.247Z" transform="translate(-805.203 -1110.822)" fill="#73bc45"/>
      </g>
      <g id="Group_5001" data-name="Group 5001" transform="translate(10.948 0)">
        <path id="Path_1423" data-name="Path 1423" d="M834.18,1115.91h-4.091v-4.3h.663l.576-.492a1.238,1.238,0,0,1,1.612,0l.576.492h.663Zm-3.431-.66h2.772v-2.978h-.246l-.762-.649a.58.58,0,0,0-.756,0l-.761.649h-.246Z" transform="translate(-830.089 -1110.822)" fill="#73bc45"/>
      </g>
      <g id="Group_5002" data-name="Group 5002" transform="translate(16.421 0)">
        <path id="Path_1424" data-name="Path 1424" d="M859.066,1115.91h-4.091v-4.3h.663l.577-.492a1.238,1.238,0,0,1,1.612,0l.577.492h.663Zm-3.431-.66h2.772v-2.978h-.246l-.762-.649a.58.58,0,0,0-.756,0l-.761.649h-.246Z" transform="translate(-854.975 -1110.822)" fill="#73bc45"/>
      </g>
      <g id="Group_5003" data-name="Group 5003" transform="translate(21.895 0)">
        <path id="Path_1425" data-name="Path 1425" d="M883.951,1115.909H879.86v-4.3h.663l.577-.492a1.236,1.236,0,0,1,1.612,0l.577.492h.663Zm-3.432-.66h2.772v-2.978h-.246l-.762-.649a.58.58,0,0,0-.755,0l-.762.649h-.246Z" transform="translate(-879.86 -1110.821)" fill="#73bc45"/>
      </g>
      <g id="Group_5004" data-name="Group 5004" transform="translate(27.369 0)">
        <path id="Path_1426" data-name="Path 1426" d="M908.837,1115.909h-4.091v-4.3h.663l.577-.492a1.237,1.237,0,0,1,1.612,0l.577.492h.663Zm-3.432-.66h2.772v-2.978h-.246l-.762-.649a.58.58,0,0,0-.755,0l-.762.649h-.246Z" transform="translate(-904.746 -1110.821)" fill="#73bc45"/>
      </g>
      <g id="Group_5005" data-name="Group 5005" transform="translate(32.843 0)">
        <path id="Path_1427" data-name="Path 1427" d="M933.722,1115.91h-4.091v-4.3h.663l.577-.492a1.238,1.238,0,0,1,1.612,0l.576.492h.663Zm-3.432-.66h2.772v-2.978h-.247l-.762-.649a.58.58,0,0,0-.756,0l-.761.649h-.247Z" transform="translate(-929.631 -1110.822)" fill="#73bc45"/>
      </g>
      <g id="Group_5006" data-name="Group 5006" transform="translate(38.317 0)">
        <path id="Path_1428" data-name="Path 1428" d="M958.608,1115.91h-4.091v-4.3h.663l.576-.492a1.238,1.238,0,0,1,1.612,0l.577.492h.663Zm-3.431-.66h2.771v-2.978H957.7l-.762-.649a.58.58,0,0,0-.756,0l-.761.649h-.247Z" transform="translate(-954.517 -1110.822)" fill="#73bc45"/>
      </g>
      <g id="Group_5007" data-name="Group 5007" transform="translate(43.79 0)">
        <path id="Path_1429" data-name="Path 1429" d="M983.493,1115.91H979.4v-4.3h.663l.577-.492a1.238,1.238,0,0,1,1.612,0l.577.492h.663Zm-3.432-.66h2.772v-2.978h-.246l-.762-.649a.58.58,0,0,0-.756,0l-.762.649h-.246Z" transform="translate(-979.402 -1110.822)" fill="#73bc45"/>
      </g>
      <g id="Group_5008" data-name="Group 5008" transform="translate(49.264 0)">
        <path id="Path_1430" data-name="Path 1430" d="M1008.379,1115.91h-4.091v-4.3h.663l.577-.492a1.238,1.238,0,0,1,1.612,0l.577.492h.663Zm-3.432-.66h2.772v-2.978h-.246l-.762-.649a.58.58,0,0,0-.756,0l-.761.649h-.246Z" transform="translate(-1004.288 -1110.822)" fill="#73bc45"/>
      </g>
      <g id="Group_5009" data-name="Group 5009" transform="translate(54.738 0)">
        <path id="Path_1431" data-name="Path 1431" d="M1033.265,1115.909h-4.091v-4.3h.663l.577-.492a1.236,1.236,0,0,1,1.612,0l.577.492h.663Zm-3.432-.66h2.772v-2.978h-.246l-.762-.649a.58.58,0,0,0-.755,0l-.762.649h-.246Z" transform="translate(-1029.174 -1110.821)" fill="#73bc45"/>
      </g>
      <g id="Group_5010" data-name="Group 5010" transform="translate(60.212 0)">
        <path id="Path_1432" data-name="Path 1432" d="M1058.151,1115.909h-4.091v-4.3h.663l.577-.492a1.236,1.236,0,0,1,1.612,0l.577.492h.663Zm-3.431-.66h2.771v-2.978h-.246l-.762-.649a.58.58,0,0,0-.755,0l-.762.649h-.246Z" transform="translate(-1054.06 -1110.821)" fill="#73bc45"/>
      </g>
    </g>
    <g id="Group_5012" data-name="Group 5012" transform="translate(696.355 894.016)">
      <line id="Line_72" data-name="Line 72" x2="68.705" transform="translate(0 0.33)" fill="#fff"/>
      <rect id="Rectangle_3595" data-name="Rectangle 3595" width="68.705" height="0.66" transform="translate(0)" fill="#73bc45"/>
    </g>
    <g id="Group_5013" data-name="Group 5013" transform="translate(723.024 892.427)">
      <path id="Path_1433" data-name="Path 1433" d="M906.926,1101.093H891.561v-2.249h15.365Zm-14.706-.66h14.046v-.929H892.221Z" transform="translate(-891.561 -1098.844)" fill="#73bc45"/>
    </g>
    <g id="Group_5014" data-name="Group 5014" transform="translate(713.983 843.693)">
      <path id="Path_1434" data-name="Path 1434" d="M883.5,885.358H850.859a.4.4,0,0,1-.383-.53c.259-.773,2.749-7.546,10.474-7.546h12.46c7.724,0,10.215,6.773,10.474,7.546a.4.4,0,0,1-.383.53Zm-32.274-.66h31.907a10.346,10.346,0,0,0-9.723-6.756h-12.46A10.346,10.346,0,0,0,851.226,884.7Z" transform="translate(-850.455 -877.282)" fill="#73bc45"/>
    </g>
    <g id="Group_5015" data-name="Group 5015" transform="translate(720.395 839.997)">
      <path id="Path_1435" data-name="Path 1435" d="M899.856,865.387H879.981a.376.376,0,0,1-.307-.158.371.371,0,0,1-.047-.337,6.8,6.8,0,0,1,6.5-4.41h7.587a6.8,6.8,0,0,1,6.5,4.409.37.37,0,0,1-.046.337A.376.376,0,0,1,899.856,865.387Zm-19.445-.66h19.016a6.1,6.1,0,0,0-5.715-3.585h-7.587A6.1,6.1,0,0,0,880.411,864.727Z" transform="translate(-879.606 -860.482)" fill="#73bc45"/>
    </g>
    <g id="Group_5016" data-name="Group 5016" transform="translate(729.127 841.015)">
      <path id="Path_1436" data-name="Path 1436" d="M922.465,868.994H919.3v-3.311h.54l.4-.337a.991.991,0,0,1,1.291,0l.4.337h.54Zm-2.5-.66H921.8v-1.992h-.122l-.58-.495a.333.333,0,0,0-.435,0l-.58.495h-.123Z" transform="translate(-919.304 -865.106)" fill="#73bc45"/>
    </g>
    <g id="Group_5019" data-name="Group 5019" transform="translate(724.417 841.015)">
      <g id="Group_5017" data-name="Group 5017" transform="translate(9.419)">
        <path id="Path_1437" data-name="Path 1437" d="M943.876,868.994h-3.161v-3.311h.54l.4-.337a.991.991,0,0,1,1.291,0l.4.337h.54Zm-2.5-.66h1.841v-1.992h-.122l-.58-.495a.333.333,0,0,0-.435,0l-.58.495h-.123Z" transform="translate(-940.715 -865.106)" fill="#73bc45"/>
      </g>
      <g id="Group_5018" data-name="Group 5018">
        <path id="Path_1438" data-name="Path 1438" d="M901.054,868.994h-3.161v-3.311h.54l.4-.337a.991.991,0,0,1,1.291,0l.4.337h.54Zm-2.5-.66h1.841l0-1.992h-.122l-.58-.495a.333.333,0,0,0-.434,0l-.58.495h-.123Z" transform="translate(-897.893 -865.106)" fill="#73bc45"/>
      </g>
    </g>
    <g id="Group_5026" data-name="Group 5026" transform="translate(717.353 847.881)">
      <g id="Group_5020" data-name="Group 5020" transform="translate(0 0)">
        <path id="Path_1439" data-name="Path 1439" d="M868.938,900.212h-3.161V896.9h.54l.4-.337a.991.991,0,0,1,1.291,0l.4.337h.54Zm-2.5-.66h1.841V897.56h-.122l-.58-.494a.334.334,0,0,0-.435,0l-.58.494h-.123Z" transform="translate(-865.777 -896.324)" fill="#73bc45"/>
      </g>
      <g id="Group_5021" data-name="Group 5021" transform="translate(4.71 0)">
        <path id="Path_1440" data-name="Path 1440" d="M890.349,900.212h-3.161V896.9h.54l.4-.337a.991.991,0,0,1,1.291,0l.4.337h.54Zm-2.5-.66h1.841l0-1.992h-.122l-.58-.494a.334.334,0,0,0-.435,0l-.58.494h-.123Z" transform="translate(-887.188 -896.324)" fill="#73bc45"/>
      </g>
      <g id="Group_5022" data-name="Group 5022" transform="translate(9.419 0)">
        <path id="Path_1441" data-name="Path 1441" d="M911.76,900.212H908.6V896.9h.54l.4-.337a.991.991,0,0,1,1.291,0l.4.337h.54Zm-2.5-.66H911.1l0-1.992h-.122l-.58-.494a.334.334,0,0,0-.435,0l-.58.494h-.123Z" transform="translate(-908.599 -896.324)" fill="#73bc45"/>
      </g>
      <g id="Group_5023" data-name="Group 5023" transform="translate(14.128 0)">
        <path id="Path_1442" data-name="Path 1442" d="M933.17,900.212h-3.161V896.9h.54l.4-.337a.991.991,0,0,1,1.291,0l.4.337h.54Zm-2.5-.66h1.841l0-1.992h-.122l-.58-.494a.334.334,0,0,0-.435,0l-.58.494h-.123Z" transform="translate(-930.009 -896.324)" fill="#73bc45"/>
      </g>
      <g id="Group_5024" data-name="Group 5024" transform="translate(18.838 0)">
        <path id="Path_1443" data-name="Path 1443" d="M954.581,900.212H951.42V896.9h.54l.4-.337a.991.991,0,0,1,1.291,0l.4.337h.54Zm-2.5-.66h1.841l0-1.992H953.8l-.58-.494a.334.334,0,0,0-.435,0l-.58.494h-.123Z" transform="translate(-951.42 -896.324)" fill="#73bc45"/>
      </g>
      <g id="Group_5025" data-name="Group 5025" transform="translate(23.547 0)">
        <path id="Path_1444" data-name="Path 1444" d="M975.991,900.212H972.83V896.9h.54l.4-.337a.99.99,0,0,1,1.29,0l.4.337h.54Zm-2.5-.66h1.841l0-1.992h-.121l-.58-.494a.334.334,0,0,0-.435,0l-.58.494h-.123Z" transform="translate(-972.83 -896.324)" fill="#73bc45"/>
      </g>
    </g>
    <g id="Group_5027" data-name="Group 5027" transform="translate(729.273 861.041)">
      <path id="Path_1445" data-name="Path 1445" d="M922.837,986.61h-2.868V956.153h2.868Zm-2.208-.66h1.549V956.813h-1.549Z" transform="translate(-919.969 -956.153)" fill="#73bc45"/>
    </g>
    <g id="Group_5030" data-name="Group 5030" transform="translate(726.416 858.352)">
      <g id="Group_5028" data-name="Group 5028" transform="translate(5.024 0)">
        <path id="Path_1446" data-name="Path 1446" d="M933.378,975.154h-.66V947.039L931.6,945.2l-1.119,1.841v28.115h-.66v-28.3l1.779-2.927,1.779,2.927Z" transform="translate(-929.82 -943.928)" fill="#73bc45"/>
      </g>
      <g id="Group_5029" data-name="Group 5029" transform="translate(0 0)">
        <path id="Path_1447" data-name="Path 1447" d="M910.539,975.154h-.66V947.039L908.76,945.2l-1.119,1.841v28.115h-.66v-28.3l1.779-2.927,1.779,2.927Z" transform="translate(-906.98 -943.928)" fill="#73bc45"/>
      </g>
    </g>
    <g id="Group_5031" data-name="Group 5031" transform="translate(729.603 863.69)">
      <line id="Line_73" data-name="Line 73" x2="2.208" transform="translate(0 0.33)" fill="#fff"/>
      <rect id="Rectangle_3596" data-name="Rectangle 3596" width="2.208" height="0.66" transform="translate(0 0)" fill="#73bc45"/>
    </g>
    <g id="Group_5032" data-name="Group 5032" transform="translate(729.603 868.589)">
      <line id="Line_74" data-name="Line 74" x2="2.208" transform="translate(0 0.33)" fill="#fff"/>
      <rect id="Rectangle_3597" data-name="Rectangle 3597" width="2.208" height="0.66" transform="translate(0 0)" fill="#73bc45"/>
    </g>
    <g id="Group_5033" data-name="Group 5033" transform="translate(729.603 873.49)">
      <line id="Line_75" data-name="Line 75" x2="2.208" transform="translate(0 0.33)" fill="#fff"/>
      <rect id="Rectangle_3598" data-name="Rectangle 3598" width="2.208" height="0.66" transform="translate(0)" fill="#73bc45"/>
    </g>
    <g id="Group_5034" data-name="Group 5034" transform="translate(729.603 878.389)">
      <line id="Line_76" data-name="Line 76" x2="2.208" transform="translate(0 0.33)" fill="#fff"/>
      <rect id="Rectangle_3599" data-name="Rectangle 3599" width="2.208" height="0.66" transform="translate(0)" fill="#73bc45"/>
    </g>
    <g id="Group_5035" data-name="Group 5035" transform="translate(729.603 883.289)">
      <line id="Line_77" data-name="Line 77" x2="2.208" transform="translate(0 0.33)" fill="#fff"/>
      <rect id="Rectangle_3600" data-name="Rectangle 3600" width="2.208" height="0.66" transform="translate(0)" fill="#73bc45"/>
    </g>
    <g id="Group_5036" data-name="Group 5036" transform="translate(729.603 888.189)">
      <line id="Line_78" data-name="Line 78" x2="2.208" transform="translate(0 0.33)" fill="#fff"/>
      <rect id="Rectangle_3601" data-name="Rectangle 3601" width="2.208" height="0.66" transform="translate(0)" fill="#73bc45"/>
    </g>
    <g id="Group_5037" data-name="Group 5037" transform="translate(724.564 890.838)">
      <path id="Path_1448" data-name="Path 1448" d="M910.845,1093.868H898.558v-2.249h12.287Zm-11.627-.66h10.968v-.929H899.218Z" transform="translate(-898.558 -1091.619)" fill="#73bc45"/>
    </g>
    <g id="Group_5038" data-name="Group 5038" transform="translate(726.374 889.249)">
      <path id="Path_1449" data-name="Path 1449" d="M915.456,1086.644h-8.665V1084.4h8.665Zm-8.006-.66H914.8v-.929h-7.346Z" transform="translate(-906.791 -1084.395)" fill="#73bc45"/>
    </g>
    <g id="Group_5039" data-name="Group 5039" transform="translate(690.781 899.49)">
      <path id="Path_1450" data-name="Path 1450" d="M824.823,1133.159H744.97v-2.2h79.853Zm-79.193-.66h78.534v-.885H745.63Z" transform="translate(-744.97 -1130.954)" fill="#73bc45"/>
    </g>
    <g id="Group_5042" data-name="Group 5042" transform="translate(719.268 852.782)">
      <g id="Group_5040" data-name="Group 5040" transform="translate(0 0.001)">
        <line id="Line_79" data-name="Line 79" x2="7.973" y2="7.168" transform="translate(0.221 0.245)" fill="#fff"/>
        <rect id="Rectangle_3602" data-name="Rectangle 3602" width="0.66" height="10.721" transform="matrix(0.669, -0.744, 0.744, 0.669, 0, 0.491)" fill="#73bc45"/>
      </g>
      <g id="Group_5041" data-name="Group 5041" transform="translate(14.466 0)">
        <line id="Line_80" data-name="Line 80" x1="7.973" y2="7.168" transform="translate(0.22 0.246)" fill="#fff"/>
        <rect id="Rectangle_3603" data-name="Rectangle 3603" width="10.721" height="0.66" transform="translate(0 7.169) rotate(-41.965)" fill="#73bc45"/>
      </g>
    </g>
    <g id="Group_5043" data-name="Group 5043" transform="translate(675.5 901.035)">
      <path id="Path_1451" data-name="Path 1451" d="M785.914,1141.165H675.5v-3.186H785.914Zm-109.754-.66H785.254v-1.866H676.16Z" transform="translate(-675.5 -1137.979)" fill="#73bc45"/>
    </g>
    <g id="Group_5046" data-name="Group 5046" transform="translate(724.697 852.866)">
      <g id="Group_5044" data-name="Group 5044" transform="translate(0 0)">
        <line id="Line_81" data-name="Line 81" x2="3.343" y2="5.959" transform="translate(0.288 0.162)" fill="#fff"/>
        <rect id="Rectangle_3604" data-name="Rectangle 3604" width="0.66" height="6.833" transform="translate(0 0.323) rotate(-29.294)" fill="#73bc45"/>
      </g>
      <g id="Group_5045" data-name="Group 5045" transform="translate(8.1 0)">
        <line id="Line_82" data-name="Line 82" x1="3.343" y2="5.959" transform="translate(0.288 0.161)" fill="#fff"/>
        <rect id="Rectangle_3605" data-name="Rectangle 3605" width="6.833" height="0.66" transform="matrix(0.489, -0.872, 0.872, 0.489, 0, 5.959)" fill="#73bc45"/>
      </g>
    </g>
    <g id="Group_5047" data-name="Group 5047" transform="translate(730.377 853.028)">
      <line id="Line_83" data-name="Line 83" y2="6.576" transform="translate(0.33 0)" fill="#fff"/>
      <rect id="Rectangle_3606" data-name="Rectangle 3606" width="0.66" height="6.576" transform="translate(0)" fill="#73bc45"/>
    </g>
    <g id="Group_5048" data-name="Group 5048" transform="translate(725.405 834.221)">
      <path id="Path_1452" data-name="Path 1452" d="M912.988,840.657h-10.6v-.33c0-3.367,2.379-6.106,5.3-6.106s5.3,2.739,5.3,6.106Zm-9.937-.66h9.268c-.146-2.85-2.169-5.117-4.634-5.117S903.2,837.147,903.051,840Z" transform="translate(-902.383 -834.221)" fill="#73bc45"/>
    </g>
    <g id="Group_5054" data-name="Group 5054" transform="translate(727.562 837.439)">
      <g id="Group_5049" data-name="Group 5049" transform="translate(0 0)">
        <line id="Line_84" data-name="Line 84" y2="2.888" transform="translate(0.33 0)" fill="#fff"/>
        <rect id="Rectangle_3607" data-name="Rectangle 3607" width="0.66" height="2.888" fill="#73bc45"/>
      </g>
      <g id="Group_5050" data-name="Group 5050" transform="translate(1.408 0)">
        <line id="Line_85" data-name="Line 85" y2="2.888" transform="translate(0.33 0)" fill="#fff"/>
        <rect id="Rectangle_3608" data-name="Rectangle 3608" width="0.66" height="2.888" fill="#73bc45"/>
      </g>
      <g id="Group_5051" data-name="Group 5051" transform="translate(2.815 0)">
        <line id="Line_86" data-name="Line 86" y2="2.888" transform="translate(0.33 0)" fill="#fff"/>
        <rect id="Rectangle_3609" data-name="Rectangle 3609" width="0.66" height="2.888" fill="#73bc45"/>
      </g>
      <g id="Group_5052" data-name="Group 5052" transform="translate(4.223 0)">
        <line id="Line_87" data-name="Line 87" y2="2.888" transform="translate(0.33 0)" fill="#fff"/>
        <rect id="Rectangle_3610" data-name="Rectangle 3610" width="0.66" height="2.888" fill="#73bc45"/>
      </g>
      <g id="Group_5053" data-name="Group 5053" transform="translate(5.631 0)">
        <line id="Line_88" data-name="Line 88" y2="2.888" transform="translate(0.33 0)" fill="#fff"/>
        <rect id="Rectangle_3611" data-name="Rectangle 3611" width="0.66" height="2.888" fill="#73bc45"/>
      </g>
    </g>
  </g>
</svg>
