<svg xmlns="http://www.w3.org/2000/svg" width="28.527" height="28.532" viewBox="0 0 28.527 28.532">
  <g id="logowhitecircle" transform="translate(-4.761 -2667.693)">
    <path id="Path_9107" data-name="Path 9107" d="M395.777,2785.059c-.026-.069-.049-.138-.076-.206-.068-.168-.139-.335-.212-.5q-.271.021-.542.05l-.117.016q.2.273.388.555Q395.5,2785.011,395.777,2785.059Z" transform="translate(-367.385 -109.874)" fill="#fff"/>
    <path id="Path_9108" data-name="Path 9108" d="M426.691,2922.281c-.218.1-.439.19-.662.278-.022.136-.045.272-.072.407s-.062.288-.1.431c.288-.035.574-.08.858-.132C426.723,2922.938,426.712,2922.609,426.691,2922.281Z" transform="translate(-396.612 -239.783)" fill="#fff"/>
    <path id="Path_9109" data-name="Path 9109" d="M392.91,2798.447c.044.015.088.03.131.046-.061-.091-.125-.18-.188-.269l-.2-.017.063.057C392.786,2798.323,392.848,2798.384,392.91,2798.447Z" transform="translate(-365.339 -122.924)" fill="#fff"/>
    <path id="Path_9110" data-name="Path 9110" d="M381.1,2787.015l.3.027q-.162-.219-.333-.43c-.123.02-.246.043-.369.067q.186.152.368.308Z" transform="translate(-354.077 -112.004)" fill="#fff"/>
    <path id="Path_9111" data-name="Path 9111" d="M383.542,2766.836c.238-.028.476-.052.715-.068-.136-.3-.282-.593-.44-.88q-.414.131-.819.288c.1.111.193.222.288.334S383.458,2766.727,383.542,2766.836Z" transform="translate(-356.241 -92.485)" fill="#fff"/>
    <path id="Path_9112" data-name="Path 9112" d="M421.473,2905.71l-.028.081.164-.107c.014-.108.027-.217.039-.325l-.094.1C421.529,2905.545,421.5,2905.628,421.473,2905.71Z" transform="translate(-392.452 -223.844)" fill="#fff"/>
    <path id="Path_9113" data-name="Path 9113" d="M367.883,2745.58h0q.385.368.741.766.429-.161.867-.3c-.023-.04-.043-.081-.066-.12q-.283-.477-.6-.933Q368.346,2745.273,367.883,2745.58Z" transform="translate(-342.003 -72.811)" fill="#fff"/>
    <path id="Path_9114" data-name="Path 9114" d="M429.37,2906.582c.037-.014.074-.026.11-.041.168-.068.335-.139.5-.212q-.021-.271-.05-.542c-.008-.073-.02-.145-.03-.217q-.222.174-.452.34C429.428,2906.134,429.4,2906.359,429.37,2906.582Z" transform="translate(-399.917 -224.044)" fill="#fff"/>
    <path id="Path_9115" data-name="Path 9115" d="M441.911,2894.977q.448-.2.88-.44c-.1-.312-.21-.622-.331-.926-.2.186-.415.366-.63.54C441.864,2894.426,441.892,2894.7,441.911,2894.977Z" transform="translate(-411.652 -212.78)" fill="#fff"/>
    <path id="Path_9116" data-name="Path 9116" d="M416.019,2916.66q-.086.224-.179.445.179-.054.357-.115.05-.267.09-.536-.127.085-.255.168Z" transform="translate(-387.173 -234.295)" fill="#fff"/>
    <path id="Path_9117" data-name="Path 9117" d="M431.972,2881.026l0,.086c.061-.075.12-.15.18-.226-.026-.116-.052-.231-.08-.346q-.048.112-.1.224C431.974,2880.852,431.975,2880.939,431.972,2881.026Z" transform="translate(-402.365 -200.47)" fill="#fff"/>
    <path id="Path_9118" data-name="Path 9118" d="M431.261,2892.137c-.009.16-.02.32-.032.479q.2-.139.389-.284c-.029-.186-.062-.372-.1-.556-.084.108-.17.214-.257.321Z" transform="translate(-401.667 -211.051)" fill="#fff"/>
    <path id="Path_9119" data-name="Path 9119" d="M326.993,2953.4c.18-.07.359-.143.537-.219.049-.021.1-.045.146-.067-.124-.085-.247-.171-.369-.259-.22.048-.442.093-.664.131l.073.092C326.806,2953.191,326.9,2953.3,326.993,2953.4Z" transform="translate(-303.162 -268.582)" fill="#fff"/>
    <path id="Path_9120" data-name="Path 9120" d="M387.438,2732.457c-.232.11-.46.231-.685.355.244.35.473.712.687,1.083.411-.12.827-.223,1.246-.307-.077-.246-.158-.491-.249-.73s-.191-.476-.294-.71C387.905,2732.246,387.67,2732.347,387.438,2732.457Z" transform="translate(-359.778 -60.707)" fill="#fff"/>
    <path id="Path_9121" data-name="Path 9121" d="M458.209,2845.015q.366-.416.7-.855-.409-.373-.844-.718c-.036-.028-.073-.054-.109-.082q-.218.471-.469.927.327.4.625.828C458.147,2845.082,458.179,2845.049,458.209,2845.015Z" transform="translate(-426.402 -165.451)" fill="#fff"/>
    <path id="Path_9122" data-name="Path 9122" d="M423.807,2756.929q.187.612.318,1.243.643.018,1.28.093c0-.185,0-.368,0-.552q-.334-.478-.7-.924l-.13.015C424.314,2756.836,424.06,2756.88,423.807,2756.929Z" transform="translate(-394.677 -83.914)" fill="#fff"/>
    <path id="Path_9123" data-name="Path 9123" d="M441.545,2851.112c.04-.061.083-.12.122-.182q.144-.231.281-.467c-.118-.138-.237-.275-.359-.409-.049-.053-.1-.1-.152-.157-.06.211-.126.422-.2.631C441.346,2850.72,441.449,2850.915,441.545,2851.112Z" transform="translate(-411.097 -171.608)" fill="#fff"/>
    <path id="Path_9124" data-name="Path 9124" d="M435.04,2824.506c.02-.071.041-.141.059-.211q.065-.264.123-.53-.232-.143-.468-.279c-.064-.036-.129-.069-.193-.1.008.22.01.44.009.66C434.73,2824.194,434.887,2824.347,435.04,2824.506Z" transform="translate(-404.806 -146.636)" fill="#fff"/>
    <path id="Path_9125" data-name="Path 9125" d="M400.124,2760.068q.253.453.474.924.519-.027,1.038-.019c-.009-.045-.016-.09-.026-.134q-.121-.542-.279-1.072c-.361.074-.72.161-1.076.26C400.211,2760.04,400.168,2760.055,400.124,2760.068Z" transform="translate(-372.371 -86.719)" fill="#fff"/>
    <path id="Path_9126" data-name="Path 9126" d="M468.033,2821.723a14.351,14.351,0,0,0-.563-1.686c-.046-.022-.093-.045-.139-.067-.139.4-.3.8-.473,1.192q.509.393.981.828C467.9,2821.9,467.968,2821.813,468.033,2821.723Z" transform="translate(-435.224 -143.422)" fill="#fff"/>
    <path id="Path_9127" data-name="Path 9127" d="M422.186,2817.61q.191.161.377.329c0-.188,0-.377,0-.564q-.251-.129-.508-.247Q422.124,2817.367,422.186,2817.61Z" transform="translate(-393.026 -140.744)" fill="#fff"/>
    <path id="Path_9128" data-name="Path 9128" d="M471.335,2860.761c.029-.023.057-.048.086-.071q-.066-.588-.182-1.174-.187-.188-.38-.37-.386.511-.819.988.362.531.677,1.09C470.927,2861.075,471.134,2860.922,471.335,2860.761Z" transform="translate(-438.221 -180.319)" fill="#fff"/>
    <path id="Path_9129" data-name="Path 9129" d="M413.628,2731.464c.095.25.181.5.262.759.263-.05.527-.093.792-.128l.024,0a14.11,14.11,0,0,0-1.324-1.361l-.048.018C413.437,2730.985,413.536,2731.223,413.628,2731.464Z" transform="translate(-384.812 -59.373)" fill="#fff"/>
    <path id="Path_9130" data-name="Path 9130" d="M456.711,2879.526c-.182-.32-.376-.635-.581-.943-.026-.038-.053-.074-.079-.112q-.352.382-.732.736.187.485.339.981c.04-.022.08-.043.12-.066Q456.255,2879.84,456.711,2879.526Z" transform="translate(-424.357 -198.521)" fill="#fff"/>
    <path id="Path_9131" data-name="Path 9131" d="M434.668,2840.473c-.133-.133-.268-.264-.407-.391,0,.167-.013.333-.024.5.088.142.174.285.257.429Q434.588,2840.744,434.668,2840.473Z" transform="translate(-404.501 -162.363)" fill="#fff"/>
    <path id="Path_9132" data-name="Path 9132" d="M355.347,2954.846q.224-.184.443-.375c.04-.035.078-.072.118-.108-.144-.043-.288-.087-.431-.133q-.292.172-.591.33c.033.021.065.045.1.066C355.1,2954.7,355.225,2954.774,355.347,2954.846Z" transform="translate(-329.763 -269.874)" fill="#fff"/>
    <path id="Path_9133" data-name="Path 9133" d="M417.025,2801.9c.2.095.4.193.591.3,0-.073,0-.146-.009-.219q-.02-.272-.047-.543c-.176-.042-.354-.083-.531-.12-.072-.015-.144-.026-.216-.039C416.889,2801.48,416.959,2801.688,417.025,2801.9Z" transform="translate(-388.09 -125.811)" fill="#fff"/>
    <path id="Path_9134" data-name="Path 9134" d="M358.8,2945.692c-.083.03-.166.059-.249.082l-.082.025.183.07c.1-.053.192-.105.286-.16Z" transform="translate(-333.135 -261.833)" fill="#fff"/>
    <path id="Path_9135" data-name="Path 9135" d="M278.024,2847.638c.034-.071.071-.142.106-.212,0-.049,0-.1,0-.147-.048.062-.1.125-.143.188C278,2847.524,278.012,2847.581,278.024,2847.638Z" transform="translate(-257.341 -169.142)" fill="#fff"/>
    <path id="Path_9136" data-name="Path 9136" d="M343.945,2949.6q-.143-.052-.286-.108l-.039.012c-.155.041-.31.08-.465.117q.15.113.3.221Q343.7,2949.731,343.945,2949.6Z" transform="translate(-318.715 -265.415)" fill="#fff"/>
    <path id="Path_9137" data-name="Path 9137" d="M370.282,2946.794q-.152-.006-.305-.015l-.034.023q-.2.13-.406.255c.118.04.237.08.357.116Q370.091,2946.988,370.282,2946.794Z" transform="translate(-343.563 -262.856)" fill="#fff"/>
    <path id="Path_9138" data-name="Path 9138" d="M333.873,2944.409l.153.123c.107-.02.215-.041.322-.064l-.134-.061Q334.043,2944.41,333.873,2944.409Z" transform="translate(-309.973 -260.622)" fill="#fff"/>
    <path id="Path_9139" data-name="Path 9139" d="M383.754,2947.712q.156-.244.305-.493c.027-.046.052-.094.079-.139-.15,0-.3.007-.451.007-.15.168-.3.335-.46.5l.113.031C383.478,2947.649,383.616,2947.681,383.754,2947.712Z" transform="translate(-356.457 -263.14)" fill="#fff"/>
    <path id="Path_9140" data-name="Path 9140" d="M318.778,2943.922q-.12-.094-.238-.191H318.5q-.24-.013-.479-.032.108.153.22.3C318.42,2943.979,318.6,2943.953,318.778,2943.922Z" transform="translate(-295.042 -259.954)" fill="#fff"/>
    <path id="Path_9141" data-name="Path 9141" d="M311.874,2934.111l-.108-.1c-.109-.033-.217-.067-.325-.1.035.055.071.11.107.164C311.657,2934.086,311.765,2934.1,311.874,2934.111Z" transform="translate(-288.845 -250.734)" fill="#fff"/>
    <path id="Path_9142" data-name="Path 9142" d="M395.209,2935c-.1.028-.2.054-.295.08l-.025.032q-.151.186-.308.368c.125,0,.25,0,.375,0Q395.088,2935.248,395.209,2935Z" transform="translate(-367.152 -251.766)" fill="#fff"/>
    <path id="Path_9143" data-name="Path 9143" d="M383.071,2938.9c-.091.069-.182.136-.275.2l.2.009c.075-.08.15-.159.223-.241Z" transform="translate(-356.051 -255.409)" fill="#fff"/>
    <path id="Path_9144" data-name="Path 9144" d="M348.856,2722.407c-.151.143-.3.291-.441.441q.433.338.844.7c.053.047.1.1.155.146q.478-.319.978-.6c-.149-.211-.3-.417-.463-.618s-.328-.394-.5-.584C349.235,2722.062,349.042,2722.231,348.856,2722.407Z" transform="translate(-323.669 -51.051)" fill="#fff"/>
    <path id="Path_9145" data-name="Path 9145" d="M444.642,2913.8q-.111-.542-.261-1.076c-.013-.044-.027-.087-.04-.131q-.453.253-.924.474.028.519.019,1.038c.045-.009.09-.016.134-.026Q444.111,2913.956,444.642,2913.8Z" transform="translate(-413.147 -230.657)" fill="#fff"/>
    <path id="Path_9146" data-name="Path 9146" d="M275.578,2832.091c.079-.1.159-.192.24-.286l.028-.03q.012-.152.027-.3c-.118.087-.235.176-.349.266C275.539,2831.855,275.559,2831.973,275.578,2832.091Z" transform="translate(-255.016 -154.253)" fill="#fff"/>
    <path id="Path_9147" data-name="Path 9147" d="M463.8,2900.608c-.1-.236-.2-.472-.309-.7s-.23-.459-.355-.685q-.525.367-1.084.688c.12.411.224.827.307,1.245.246-.077.49-.158.731-.249S463.563,2900.712,463.8,2900.608Z" transform="translate(-430.696 -218.061)" fill="#fff"/>
    <path id="Path_9148" data-name="Path 9148" d="M483.734,2889.138c-.208.167-.423.327-.64.483.128.235.252.472.366.714s.214.47.312.707l.023-.011a14.186,14.186,0,0,0-.058-1.9Z" transform="translate(-450.516 -208.565)" fill="#fff"/>
    <path id="Path_9149" data-name="Path 9149" d="M332.271,2744.939l0,0q.48.232.941.5c.2-.162.41-.321.621-.471-.026-.023-.051-.047-.077-.069q-.422-.363-.866-.695Q332.569,2744.563,332.271,2744.939Z" transform="translate(-308.462 -72.063)" fill="#fff"/>
    <path id="Path_9150" data-name="Path 9150" d="M368.591,2709.072c.167.208.328.422.484.64.235-.128.473-.252.714-.366s.47-.213.707-.312c-.044-.1-.09-.189-.136-.283a14.388,14.388,0,0,0-1.327-.98c-.323.224-.639.461-.943.712C368.261,2708.675,368.43,2708.87,368.591,2709.072Z" transform="translate(-342.2 -37.746)" fill="#fff"/>
    <path id="Path_9151" data-name="Path 9151" d="M273.335,2797.912c.1-.042.194-.083.292-.123.128-.05.258-.1.388-.143q.058-.292.128-.581c-.274.036-.547.08-.818.133Q273.321,2797.555,273.335,2797.912Z" transform="translate(-252.946 -121.849)" fill="#fff"/>
    <path id="Path_9152" data-name="Path 9152" d="M309.166,2728.4c-.1.172-.2.345-.3.523s-.193.368-.283.556q.516.188,1.02.409c.065.028.128.061.193.09q.309-.392.643-.761c-.2-.147-.406-.289-.616-.423S309.387,2728.525,309.166,2728.4Z" transform="translate(-286.153 -57.174)" fill="#fff"/>
    <path id="Path_9153" data-name="Path 9153" d="M273.926,2815.771c0,.02,0,.04.007.06q.228-.165.461-.32c.02-.149.043-.3.068-.446-.049.021-.1.038-.149.059-.142.06-.283.123-.423.186C273.9,2815.463,273.912,2815.617,273.926,2815.771Z" transform="translate(-253.478 -138.801)" fill="#fff"/>
    <path id="Path_9154" data-name="Path 9154" d="M298.97,2755.179v0c.352.048.7.11,1.049.184.143-.217.291-.431.445-.641-.032-.013-.063-.029-.1-.042-.342-.142-.688-.274-1.038-.392Q299.138,2754.729,298.97,2755.179Z" transform="translate(-277.099 -81.561)" fill="#fff"/>
    <path id="Path_9155" data-name="Path 9155" d="M273.677,2775.576q-.052.464-.078.931c.3-.051.611-.091.918-.123.069-.251.143-.5.225-.746-.035,0-.069-.008-.1-.01Q274.158,2775.588,273.677,2775.576Z" transform="translate(-253.204 -101.61)" fill="#fff"/>
    <path id="Path_9156" data-name="Path 9156" d="M436.663,2865.8q-.084.235-.177.468c.04.162.078.325.112.488q.171-.225.331-.458Q436.8,2866.05,436.663,2865.8Z" transform="translate(-406.619 -186.59)" fill="#fff"/>
    <path id="Path_9157" data-name="Path 9157" d="M429.915,2783.677q.1.508.165,1.025.5.134.993.3c.005-.045.012-.09.017-.136q.052-.552.066-1.105-.549-.061-1.1-.084C430.006,2783.678,429.96,2783.679,429.915,2783.677Z" transform="translate(-400.43 -109.239)" fill="#fff"/>
    <path id="Path_9158" data-name="Path 9158" d="M409.011,2930.691c.141-.009.283-.022.424-.036q.073-.281.138-.563c.012-.052.021-.1.032-.157-.142.05-.284.1-.427.146q-.135.311-.284.615Z" transform="translate(-380.63 -246.992)" fill="#fff"/>
    <path id="Path_9159" data-name="Path 9159" d="M428.482,2996.419a14.745,14.745,0,0,1-1.878-.26,14.751,14.751,0,0,1-.584,1.8c.333.127.67.242,1.01.341s.693.187,1.042.26l.082-.142c.075-.312.142-.627.2-.946Q428.437,2996.952,428.482,2996.419Z" transform="translate(-396.761 -309.365)" fill="#fff"/>
    <path id="Path_9160" data-name="Path 9160" d="M161.6,2838.236a1.231,1.231,0,0,0,.165-2.421c-.246.163-.488.333-.72.513-.252.194-.5.4-.735.6q.31.359.646.7C161.165,2837.84,161.381,2838.041,161.6,2838.236Z" transform="translate(-146.506 -158.345)" fill="#fff"/>
    <path id="Path_9161" data-name="Path 9161" d="M135.511,2799.075a13.8,13.8,0,0,0-1.854,1.069,13.658,13.658,0,0,0,1.2,1.77,14.571,14.571,0,0,1,1.524-1.144A14.575,14.575,0,0,1,135.511,2799.075Z" transform="translate(-121.4 -123.742)" fill="#fff"/>
    <path id="Path_9162" data-name="Path 9162" d="M404.7,2924.957c-.066.093-.131.185-.2.276l.189-.051c.046-.1.093-.2.137-.3Z" transform="translate(-376.49 -242.235)" fill="#fff"/>
    <path id="Path_9163" data-name="Path 9163" d="M312.574,2780.187c-.188-.044-.378-.084-.567-.121-.073.121-.146.243-.217.365-.019.035-.037.07-.055.1q.339,0,.677.011.156-.163.317-.321C312.677,2780.213,312.626,2780.2,312.574,2780.187Z" transform="translate(-289.122 -105.838)" fill="#fff"/>
    <path id="Path_9164" data-name="Path 9164" d="M344.488,2788.364c.087.008.173.022.26.036l.133-.04c-.1-.037-.206-.072-.31-.106l-.168.1Z" transform="translate(-319.891 -113.55)" fill="#fff"/>
    <path id="Path_9165" data-name="Path 9165" d="M339.725,2772.565c-.045-.028-.09-.058-.135-.085q-.249-.15-.5-.291c-.107.093-.214.186-.319.281-.029.027-.056.055-.085.082q.323.1.64.221C339.457,2772.7,339.591,2772.633,339.725,2772.565Z" transform="translate(-314.504 -98.42)" fill="#fff"/>
    <path id="Path_9166" data-name="Path 9166" d="M439.7,2879.271q.208-.174.411-.357-.1-.251-.215-.5c-.03-.067-.064-.132-.1-.2-.122.183-.25.362-.381.539.041.217.078.433.108.651C439.583,2879.361,439.641,2879.317,439.7,2879.271Z" transform="translate(-409.379 -198.281)" fill="#fff"/>
    <path id="Path_9167" data-name="Path 9167" d="M320.749,2794.979l.084-.017c.085-.019.172-.033.258-.046l.114-.079c-.109,0-.219-.005-.328-.006Z" transform="translate(-297.612 -119.745)" fill="#fff"/>
    <path id="Path_9168" data-name="Path 9168" d="M431.566,2872.5l.013-.03c-.006-.022-.013-.043-.019-.066C431.562,2872.44,431.564,2872.472,431.566,2872.5Z" transform="translate(-401.979 -192.81)" fill="#fff"/>
    <path id="Path_9169" data-name="Path 9169" d="M11.6,2841.022l.181-.28-.132-.283q-.14.451-.251.912C11.464,2841.254,11.529,2841.137,11.6,2841.022Z" transform="translate(-6.251 -162.718)" fill="#fff"/>
    <path id="Path_9170" data-name="Path 9170" d="M192.6,3075.636l-.082-.235h0l-.246.039c-.164.025-.327.053-.491.075-.329.033-.656.078-.983.087-.239.017-.477.021-.715.022q.052.227.109.451c.086.3.162.593.267.879.05.144.1.289.149.43l.167.421.08.2.045.1.108-.007.217-.025.45-.052c.15-.019.3-.048.45-.072.3-.043.6-.116.9-.18.15-.037.3-.076.449-.117-.112-.21-.22-.422-.319-.64-.147-.293-.262-.6-.388-.908C192.708,3075.949,192.656,3075.792,192.6,3075.636Z" transform="translate(-174.543 -383.997)" fill="#fff"/>
    <path id="Path_9171" data-name="Path 9171" d="M128.6,3126.045c-.091-.02-.181-.042-.271-.065q.342.195.693.37l-.094-.242Z" transform="translate(-116.384 -431.636)" fill="#fff"/>
    <path id="Path_9172" data-name="Path 9172" d="M153.061,3131.5c-.067-.112-.133-.224-.2-.337-.08-.13-.15-.269-.222-.406l-.216-.414-.074-.16-.175.011-.467.006c-.155,0-.311.005-.463,0-.305-.013-.609-.021-.908-.054-.15-.016-.3-.025-.448-.045l-.349-.05c.065.162.134.322.2.481A14.364,14.364,0,0,0,153.061,3131.5Z" transform="translate(-136.36 -435.469)" fill="#fff"/>
    <path id="Path_9173" data-name="Path 9173" d="M186.143,3028.058a14.177,14.177,0,0,1-2.2-.04l.006.178c.006.159.009.318.017.476.029.317.044.632.09.943.03.268.073.533.123.8.267,0,.535,0,.8-.02.314-.009.628-.051.944-.078.157-.019.314-.045.472-.067l.177-.026A14.265,14.265,0,0,1,186.143,3028.058Z" transform="translate(-168.76 -339.37)" fill="#fff"/>
    <path id="Path_9174" data-name="Path 9174" d="M102.373,2703.691l.052.45c.019.15.048.3.072.45.043.3.116.6.18.9.037.149.076.3.117.449.21-.112.422-.22.64-.318.293-.147.6-.262.908-.388.155-.058.312-.11.468-.166l.235-.082h0l-.039-.246c-.025-.165-.053-.327-.075-.492-.033-.328-.078-.655-.087-.983-.016-.239-.021-.477-.022-.715q-.227.052-.451.109c-.3.086-.593.162-.879.267-.144.05-.289.095-.43.149l-.421.167-.2.079-.1.076.005.078Z" transform="translate(-91.907 -32.829)" fill="#fff"/>
    <path id="Path_9175" data-name="Path 9175" d="M230.689,2987.1a14.407,14.407,0,0,1-1.587.006c-.012.3-.017.59-.008.885q.013.477.057.949.473-.04.945-.112c.291-.043.58-.1.869-.165A14.322,14.322,0,0,1,230.689,2987.1Z" transform="translate(-211.283 -300.836)" fill="#fff"/>
    <path id="Path_9176" data-name="Path 9176" d="M346.423,3107.5l-.2-.142-.108-.083-.163.166c-.116.117-.229.236-.347.35-.243.22-.476.449-.731.652-.186.159-.379.309-.573.455.064.056.128.11.192.166a14.329,14.329,0,0,0,2.339-1.285C346.692,3107.684,346.558,3107.588,346.423,3107.5Z" transform="translate(-319.79 -414.014)" fill="#fff"/>
    <path id="Path_9177" data-name="Path 9177" d="M231.622,3025.085a13.736,13.736,0,0,0,2.055-.6,14.6,14.6,0,0,1-.618-1.8,14.687,14.687,0,0,1-1.881.308A13.7,13.7,0,0,0,231.622,3025.085Z" transform="translate(-213.25 -334.346)" fill="#fff"/>
    <path id="Path_9178" data-name="Path 9178" d="M95.857,2826.048c.108.115.221.228.332.342l.125.128a14.286,14.286,0,0,1,1.495-1.618,14.338,14.338,0,0,1-1.262-1.806l-.141.11c-.125.1-.252.194-.376.293-.238.209-.485.407-.71.627-.2.182-.388.372-.571.566.155.217.316.431.489.639C95.431,2825.579,95.649,2825.809,95.857,2826.048Z" transform="translate(-84.756 -146.365)" fill="#fff"/>
    <path id="Path_9179" data-name="Path 9179" d="M409.291,3031.915a13.824,13.824,0,0,0,1.5.719,14.259,14.259,0,0,0,1.412-1.931,14.934,14.934,0,0,1-2-.628A14.924,14.924,0,0,1,409.291,3031.915Z" transform="translate(-381.005 -341.309)" fill="#fff"/>
    <path id="Path_9180" data-name="Path 9180" d="M426.262,2832.717c-.089-.078-.178-.156-.268-.232q.036.159.067.318.093.134.183.269C426.252,2832.954,426.257,2832.835,426.262,2832.717Z" transform="translate(-396.737 -155.208)" fill="#fff"/>
    <path id="Path_9181" data-name="Path 9181" d="M410.942,2784.6q-.056-.49-.146-.973-.492,0-.984.028c.114.252.22.508.319.767C410.4,2784.471,410.674,2784.53,410.942,2784.6Z" transform="translate(-381.496 -109.189)" fill="#fff"/>
    <path id="Path_9182" data-name="Path 9182" d="M449.333,2863.249q-.286-.4-.6-.779c-.137.24-.282.476-.432.708.117.251.229.5.332.761Q448.995,2863.606,449.333,2863.249Z" transform="translate(-417.746 -183.45)" fill="#fff"/>
    <path id="Path_9183" data-name="Path 9183" d="M486.089,2854.149q-.042-.19-.09-.381c-.042.058-.083.116-.125.173C485.946,2854.01,486.017,2854.08,486.089,2854.149Z" transform="translate(-453.135 -175.254)" fill="#fff"/>
    <path id="Path_9184" data-name="Path 9184" d="M289.8,2795.385c-.193.017-.385.037-.577.06-.032.138-.064.276-.093.415-.008.039-.013.077-.021.116q.321-.107.648-.2c.065-.136.133-.27.2-.4C289.906,2795.379,289.853,2795.38,289.8,2795.385Z" transform="translate(-267.812 -120.257)" fill="#fff"/>
    <path id="Path_9185" data-name="Path 9185" d="M404.867,2799.445c-.159-.025-.318-.047-.478-.067q.13.2.255.406l.02.036c.127.052.253.105.378.161C404.987,2799.8,404.929,2799.623,404.867,2799.445Z" transform="translate(-376.388 -124.027)" fill="#fff"/>
    <path id="Path_9186" data-name="Path 9186" d="M450.623,2812.193q.22-.508.4-1.031-.5-.228-1.024-.421c-.043-.016-.086-.029-.129-.044q-.061.515-.16,1.026.436.283.851.594C450.584,2812.276,450.605,2812.235,450.623,2812.193Z" transform="translate(-419.078 -134.687)" fill="#fff"/>
    <path id="Path_9187" data-name="Path 9187" d="M433.148,2856.54q.065-.165.126-.332c-.06-.1-.121-.2-.183-.3-.01.108-.022.216-.034.324C433.088,2856.332,433.119,2856.436,433.148,2856.54Z" transform="translate(-403.389 -177.266)" fill="#fff"/>
    <path id="Path_9188" data-name="Path 9188" d="M433.2,2804.907c.03.275.052.552.067.828.242.134.482.273.716.42.065-.322.12-.645.162-.971Q433.68,2805.029,433.2,2804.907Z" transform="translate(-403.526 -129.235)" fill="#fff"/>
    <path id="Path_9189" data-name="Path 9189" d="M454.427,2777.453c-.073-.118-.149-.234-.225-.349,0,.106,0,.212,0,.318Z" transform="translate(-423.304 -103.048)" fill="#fff"/>
    <path id="Path_9190" data-name="Path 9190" d="M452.811,2786.814c.4.145.8.305,1.188.484.017-.049.032-.1.048-.148a14.354,14.354,0,0,0-.817-1.571c-.112-.017-.225-.032-.338-.046C452.884,2785.96,452.856,2786.388,452.811,2786.814Z" transform="translate(-421.994 -110.987)" fill="#fff"/>
    <path id="Path_9191" data-name="Path 9191" d="M446.275,2833.334c.162-.286.314-.577.454-.873q-.4-.292-.812-.555c-.056.271-.121.54-.192.808C445.913,2832.915,446.1,2833.122,446.275,2833.334Z" transform="translate(-415.32 -154.663)" fill="#fff"/>
    <path id="Path_9192" data-name="Path 9192" d="M412.536,2813l.042.074c.044.075.084.153.124.232.065.05.129.1.192.151-.03-.115-.061-.229-.093-.344C412.713,2813.079,412.625,2813.041,412.536,2813Z" transform="translate(-384.061 -136.86)" fill="#fff"/>
    <path id="Path_9193" data-name="Path 9193" d="M320.918,2763.086c-.143.2-.28.4-.413.607.143.033.287.065.429.1s.266.073.4.113c.146-.135.294-.267.445-.395C321.5,2763.36,321.209,2763.217,320.918,2763.086Z" transform="translate(-297.382 -89.845)" fill="#fff"/>
    <path id="Path_9194" data-name="Path 9194" d="M420,2827.551l-.026-.02c.013.029.027.058.04.087C420.014,2827.6,420.01,2827.573,420,2827.551Z" transform="translate(-391.072 -150.542)" fill="#fff"/>
    <path id="Path_9195" data-name="Path 9195" d="M329.111,2784.215l.262-.157q-.259-.082-.522-.152c-.088.089-.174.18-.259.271q.24.014.479.033Z" transform="translate(-304.999 -109.455)" fill="#fff"/>
    <path id="Path_9196" data-name="Path 9196" d="M305.779,2795.039c.066-.077.133-.154.2-.23-.181,0-.362.007-.543.016-.056.112-.11.225-.163.338.155-.041.31-.08.465-.116Z" transform="translate(-283.037 -119.724)" fill="#fff"/>
    <path id="Path_9197" data-name="Path 9197" d="M300.535,2807.236l.074-.042c.075-.044.153-.084.232-.123.028-.038.056-.075.084-.111-.1.03-.209.063-.314.1Z" transform="translate(-278.574 -131.168)" fill="#fff"/>
    <path id="Path_9198" data-name="Path 9198" d="M287.352,2810.578c.039-.094.079-.188.12-.28-.172.057-.342.118-.511.183-.019.124-.035.248-.05.372q.2-.13.407-.255Z" transform="translate(-265.741 -134.312)" fill="#fff"/>
    <path id="Path_9199" data-name="Path 9199" d="M285.738,2825.381c.078-.082.157-.163.237-.244.016-.047.032-.093.048-.139-.091.062-.18.125-.269.188C285.749,2825.25,285.743,2825.316,285.738,2825.381Z" transform="translate(-264.637 -148.156)" fill="#fff"/>
    <path id="Path_9200" data-name="Path 9200" d="M368.3,2774.282c-.034-.041-.067-.083-.1-.124q-.19-.219-.388-.431c-.131.055-.261.111-.39.168l-.106.052c.184.131.364.268.541.407C368,2774.328,368.153,2774.3,368.3,2774.282Z" transform="translate(-341.471 -99.868)" fill="#fff"/>
    <path id="Path_9201" data-name="Path 9201" d="M352.26,2760.408q.271-.124.545-.237-.331-.349-.686-.672-.3.218-.581.45c.126.076.252.151.377.229S352.146,2760.33,352.26,2760.408Z" transform="translate(-326.612 -86.466)" fill="#fff"/>
    <path id="Path_9202" data-name="Path 9202" d="M429.1,2848.9c0-.024.006-.048.008-.072l-.041-.06c0,.023.007.045.011.068Z" transform="translate(-399.632 -170.544)" fill="#fff"/>
    <path id="Path_9203" data-name="Path 9203" d="M355.064,2781.357c.1-.024.2-.047.3-.069q-.222-.158-.449-.306-.167.086-.331.178c.149.058.3.117.445.179Z" transform="translate(-329.478 -106.701)" fill="#fff"/>
    <path id="Path_9204" data-name="Path 9204" d="M369.629,2789.714c-.086-.067-.174-.133-.262-.2l-.191.044c.1.048.2.1.306.15Z" transform="translate(-343.223 -114.739)" fill="#fff"/>
    <path id="Path_9205" data-name="Path 9205" d="M292.936,2777.683c.146-.014.293-.027.44-.037s.276-.012.413-.016q.146-.259.3-.513c-.315-.058-.632-.106-.95-.14C293.066,2777.21,293,2777.446,292.936,2777.683Z" transform="translate(-271.417 -102.929)" fill="#fff"/>
    <path id="Path_9206" data-name="Path 9206" d="M160.859,2746.146a14.735,14.735,0,0,1,1.8-.618,14.585,14.585,0,0,1-.308-1.881,13.78,13.78,0,0,0-2.094.444A13.682,13.682,0,0,0,160.859,2746.146Z" transform="translate(-146.457 -71.536)" fill="#fff"/>
    <path id="Path_9207" data-name="Path 9207" d="M469.172,3000.862c-.143,0-.286-.009-.43-.018-.034.458-.092.911-.168,1.361A14.237,14.237,0,0,0,469.172,3000.862Z" transform="translate(-436.841 -313.777)" fill="#fff"/>
    <path id="Path_9208" data-name="Path 9208" d="M351.856,3048.674a14.546,14.546,0,0,1-1.7-1.177,14.611,14.611,0,0,1-1.341,1.355,13.7,13.7,0,0,0,1.7,1.518A13.77,13.77,0,0,0,351.856,3048.674Z" transform="translate(-324.049 -357.717)" fill="#fff"/>
    <path id="Path_9209" data-name="Path 9209" d="M379.768,3017.776c.164-.314.314-.637.453-.965a14.692,14.692,0,0,1-1.562-.746,14.329,14.329,0,0,1-1.016,1.428c.232.184.467.361.71.527.307.211.623.408.943.594Q379.545,3018.2,379.768,3017.776Z" transform="translate(-351.197 -328.112)" fill="#fff"/>
    <path id="Path_9210" data-name="Path 9210" d="M191.64,2944.335a14.3,14.3,0,0,1,.221-1.571,14.447,14.447,0,0,1-1.511-.485c-.1.277-.2.556-.281.839q-.135.457-.239.92.462.108.933.186C191.053,2944.272,191.346,2944.307,191.64,2944.335Z" transform="translate(-174.307 -258.617)" fill="#fff"/>
    <path id="Path_9211" data-name="Path 9211" d="M282.621,2908.431c-.084-.068-.166-.138-.249-.208,0,.119,0,.239.008.358.105.057.212.11.319.164C282.673,2908.641,282.646,2908.536,282.621,2908.431Z" transform="translate(-261.467 -226.543)" fill="#fff"/>
    <path id="Path_9212" data-name="Path 9212" d="M324.463,3025.176q.359-.31.7-.646c.21-.206.41-.422.606-.644a14.288,14.288,0,0,1-1.141-1.1,14.291,14.291,0,0,1-1.28.938c.163.246.333.487.513.721Q324.149,3024.818,324.463,3025.176Z" transform="translate(-300.058 -334.439)" fill="#fff"/>
    <path id="Path_9213" data-name="Path 9213" d="M146.186,2926.145a13.763,13.763,0,0,0,2.014.724,14.593,14.593,0,0,1,.56-1.823,14.637,14.637,0,0,1-1.7-.856A13.672,13.672,0,0,0,146.186,2926.145Z" transform="translate(-133.201 -241.58)" fill="#fff"/>
    <path id="Path_9214" data-name="Path 9214" d="M165.766,2891.623q.406.245.83.465c.261.135.528.26.8.377a14.387,14.387,0,0,1,.7-1.427,14.423,14.423,0,0,1-1.288-.927c-.184.232-.361.467-.526.71Q166.008,2891.214,165.766,2891.623Z" transform="translate(-151.642 -209.483)" fill="#fff"/>
    <path id="Path_9215" data-name="Path 9215" d="M174.4,2786.179c.131.263.275.521.425.775a14.485,14.485,0,0,1,1.4-.745,14.352,14.352,0,0,1-.5-1.507c-.285.079-.567.166-.843.265q-.45.16-.886.348Q174.188,2785.752,174.4,2786.179Z" transform="translate(-159.4 -110.205)" fill="#fff"/>
    <path id="Path_9216" data-name="Path 9216" d="M194.154,2818.605c-.277.131-.55.269-.816.42q-.256.147-.507.3c.106.166.214.33.325.492.174.251.359.495.552.733.153-.132.309-.262.469-.388.177-.14.359-.274.543-.405-.109-.2-.215-.4-.313-.6C194.319,2818.976,194.235,2818.792,194.154,2818.605Z" transform="translate(-177.134 -142.136)" fill="#fff"/>
    <path id="Path_9217" data-name="Path 9217" d="M189.663,2865.052c-.132.146-.261.294-.389.444.152.124.305.248.461.368.243.185.494.359.751.526.105-.173.213-.345.326-.514.125-.188.256-.371.391-.552-.165-.155-.327-.312-.483-.475-.141-.147-.278-.3-.412-.448C190.086,2864.61,189.869,2864.826,189.663,2865.052Z" transform="translate(-173.783 -185.268)" fill="#fff"/>
    <path id="Path_9218" data-name="Path 9218" d="M214.3,2845.555c-.161.12-.321.242-.475.37s-.3.259-.454.391q.2.227.4.449c.136.147.277.29.421.43q.294-.37.609-.724l.051-.055c-.014-.021-.03-.041-.044-.062Q214.54,2845.963,214.3,2845.555Z" transform="translate(-196.477 -167.519)" fill="#fff"/>
    <path id="Path_9219" data-name="Path 9219" d="M202.025,2911.944c.183.071.367.141.552.207.288.1.581.189.877.269.046-.2.1-.394.151-.589.06-.217.129-.433.2-.647-.2-.1-.407-.2-.606-.3-.179-.1-.355-.2-.53-.3-.147.269-.287.541-.413.819C202.177,2911.581,202.1,2911.762,202.025,2911.944Z" transform="translate(-185.792 -228.765)" fill="#fff"/>
    <path id="Path_9220" data-name="Path 9220" d="M271.986,2883.554c-.035.114-.071.228-.1.343.083.086.168.17.253.255.007-.108.014-.216.022-.323C272.1,2883.738,272.043,2883.646,271.986,2883.554Z" transform="translate(-251.588 -203.308)" fill="#fff"/>
    <path id="Path_9221" data-name="Path 9221" d="M233.252,2867.542q.344.314.707.61c.119-.239.247-.474.379-.707-.171-.206-.339-.415-.5-.629Q233.536,2867.172,233.252,2867.542Z" transform="translate(-215.203 -187.544)" fill="#fff"/>
    <path id="Path_9222" data-name="Path 9222" d="M266.926,2984.52c-.078-.187-.154-.375-.224-.566-.079-.211-.15-.426-.217-.642-.222.042-.444.082-.668.111-.2.028-.4.051-.6.07.039.3.086.606.147.905.04.193.084.384.131.575q.285-.073.569-.156C266.351,2984.73,266.639,2984.629,266.926,2984.52Z" transform="translate(-245.305 -297.265)" fill="#fff"/>
    <path id="Path_9223" data-name="Path 9223" d="M263.93,2933.471c-.26-.066-.518-.136-.773-.216-.025.311-.041.622-.049.933.309.035.619.061.931.079C263.994,2934,263.96,2933.736,263.93,2933.471Z" transform="translate(-243.323 -250.118)" fill="#fff"/>
    <path id="Path_9224" data-name="Path 9224" d="M296.628,2978.126q-.261-.394-.5-.8l-.036-.066-.072.022q-.456.129-.917.233c.064.191.131.38.2.567s.152.369.232.552c.184-.077.368-.156.55-.238S296.45,2978.22,296.628,2978.126Z" transform="translate(-273.457 -291.562)" fill="#fff"/>
    <path id="Path_9225" data-name="Path 9225" d="M264.1,2957.46c-.005-.024-.009-.049-.014-.074h-.075q-.473-.018-.945-.062c0,.2.008.4.02.6s.03.4.05.6c.2-.016.4-.034.6-.057s.4-.053.6-.087Q264.2,2957.923,264.1,2957.46Z" transform="translate(-243.284 -272.787)" fill="#fff"/>
    <path id="Path_9226" data-name="Path 9226" d="M306.859,3000.833q.248-.159.492-.325c.251-.174.494-.359.733-.552-.132-.153-.262-.309-.388-.469-.14-.177-.274-.359-.4-.543-.2.109-.4.215-.6.313-.183.089-.367.173-.553.253.131.277.269.55.42.816C306.655,3000.5,306.756,3000.666,306.859,3000.833Z" transform="translate(-283.85 -311.989)" fill="#fff"/>
    <path id="Path_9227" data-name="Path 9227" d="M229.837,2954.125q.294.018.589.027c.305.007.611,0,.917-.016-.017-.2-.03-.4-.038-.607-.01-.225-.011-.451-.008-.677-.224-.028-.448-.06-.67-.1q-.3-.053-.6-.121c-.057.3-.105.6-.14.907C229.869,2953.734,229.852,2953.93,229.837,2954.125Z" transform="translate(-211.987 -268.368)" fill="#fff"/>
    <path id="Path_9228" data-name="Path 9228" d="M274.486,3013.373a14.391,14.391,0,0,1-.745-1.4,14.34,14.34,0,0,1-1.508.5c.079.284.166.567.265.844q.16.449.348.885.437-.184.864-.4C273.974,3013.667,274.232,3013.523,274.486,3013.373Z" transform="translate(-251.919 -324.257)" fill="#fff"/>
    <path id="Path_9229" data-name="Path 9229" d="M212.346,3124.883c-.1-.123-.19-.252-.286-.379-.2-.25-.367-.521-.546-.786-.111-.176-.219-.356-.325-.537-.2.058-.4.111-.607.163-.314.067-.624.144-.938.189-.157.025-.312.055-.469.074l-.469.054-.117.013h-.01l.18.352c.067.13.131.261.207.387.14.247.287.486.439.721a14.183,14.183,0,0,0,3.153,0Z" transform="translate(-191.964 -428.999)" fill="#fff"/>
    <path id="Path_9230" data-name="Path 9230" d="M28.671,2959.028l-.253-.245q-.1.405-.178.811a14.681,14.681,0,0,0-.236,2.064,14.624,14.624,0,0,0,1.653,1.258q.345.225.709.433c0-.118,0-.235,0-.353,0-.15.011-.3.017-.45.007-.3.04-.6.069-.907.011-.152.037-.305.059-.459l.069-.462.034-.173-.148-.094-.381-.27c-.126-.091-.255-.178-.372-.275-.24-.19-.48-.375-.7-.578C28.895,2959.227,28.779,2959.131,28.671,2959.028Z" transform="translate(-21.89 -274.162)" fill="#fff"/>
    <path id="Path_9231" data-name="Path 9231" d="M32.242,3023.616c-.015-.144-.034-.288-.045-.434l-.019-.333-.292-.162c-.126-.073-.248-.153-.371-.229s-.247-.15-.363-.235a14.354,14.354,0,0,1-1.245-.948,14.173,14.173,0,0,0,2.539,3.616q-.086-.416-.15-.845C32.269,3023.9,32.259,3023.76,32.242,3023.616Z" transform="translate(-23.683 -333.019)" fill="#fff"/>
    <path id="Path_9232" data-name="Path 9232" d="M6.256,2860.18l.107-.336c.046-.142.1-.281.155-.422.1-.285.224-.562.346-.842.058-.141.129-.279.2-.418l.208-.418.086-.153-.112-.136-.279-.374c-.092-.125-.187-.249-.269-.377-.169-.254-.341-.5-.49-.767-.076-.13-.157-.257-.227-.389l-.165-.311q-.223.354-.42.716c-.207.379-.391.762-.559,1.147q-.059.553-.075,1.113a14.586,14.586,0,0,0,.955,1.337C5.888,2859.764,6.068,2859.975,6.256,2860.18Z" transform="translate(0 -176.637)" fill="#fff"/>
    <path id="Path_9233" data-name="Path 9233" d="M5.915,2925.535c.019-.143.054-.283.082-.425s.057-.284.091-.427l.085-.323-.228-.244c-.1-.109-.189-.222-.282-.333s-.189-.219-.273-.335q-.278-.357-.528-.724a14.2,14.2,0,0,0,.874,4.374A14.4,14.4,0,0,1,5.915,2925.535Z" transform="translate(-0.096 -240.2)" fill="#fff"/>
    <path id="Path_9234" data-name="Path 9234" d="M130.5,2864.188a14.587,14.587,0,0,1,1.1-1.56,14.571,14.571,0,0,1-1.355-1.341,13.692,13.692,0,0,0-1.433,1.59A13.742,13.742,0,0,0,130.5,2864.188Z" transform="translate(-116.832 -182.335)" fill="#fff"/>
    <path id="Path_9235" data-name="Path 9235" d="M113.664,2756.759c.067.144.14.285.21.428l.079.16a14.383,14.383,0,0,1,1.922-1.077,14.267,14.267,0,0,1-.642-2.107l-.168.061c-.15.055-.3.106-.448.164-.291.125-.587.237-.869.377-.245.111-.484.234-.718.362.081.255.168.508.268.759C113.4,2756.182,113.54,2756.467,113.664,2756.759Z" transform="translate(-101.973 -81.442)" fill="#fff"/>
    <path id="Path_9236" data-name="Path 9236" d="M134.291,2968.623c-.054.264-.095.529-.129.793.253.085.51.164.771.229.3.088.613.146.922.217.156.03.313.055.47.082l.176.03a14.282,14.282,0,0,1,.258-2.187,14.264,14.264,0,0,1-2.082-.719l-.05.171c-.044.153-.09.306-.131.459C134.427,2968.008,134.343,2968.313,134.291,2968.623Z" transform="translate(-121.876 -281.966)" fill="#fff"/>
    <path id="Path_9237" data-name="Path 9237" d="M383.325,3069.71a14.486,14.486,0,0,1-1.3,1.755l.064.049.2.134c.132.089.263.18.4.266l.194.117a14.173,14.173,0,0,0,1.833-1.63A14.306,14.306,0,0,1,383.325,3069.71Z" transform="translate(-355.321 -378.638)" fill="#fff"/>
    <path id="Path_9238" data-name="Path 9238" d="M141.649,2691.3c0-.019,0-.037,0-.055-.074.035-.148.069-.221.106Z" transform="translate(-128.721 -22.186)" fill="#fff"/>
    <path id="Path_9239" data-name="Path 9239" d="M331.145,3141.187c-.1.067-.2.131-.294.2.122-.042.244-.087.366-.133Z" transform="translate(-307.127 -445.958)" fill="#fff"/>
    <path id="Path_9240" data-name="Path 9240" d="M186.2,2981.917a14.74,14.74,0,0,1-1.884-.289,13.692,13.692,0,0,0-.225,2.128,13.686,13.686,0,0,0,2.139.066A14.6,14.6,0,0,1,186.2,2981.917Z" transform="translate(-168.901 -295.678)" fill="#fff"/>
    <path id="Path_9241" data-name="Path 9241" d="M339.146,2962.114q-.257-.149-.508-.31c-.123.063-.246.125-.372.182s-.269.118-.4.175c.167.18.338.356.514.525Q338.77,2962.415,339.146,2962.114Z" transform="translate(-313.729 -277.008)" fill="#fff"/>
    <path id="Path_9242" data-name="Path 9242" d="M262.916,2841.835c.008.019.017.037.025.055q.137-.188.28-.373-.049-.227-.09-.457l-.047.039q-.175.152-.345.309C262.8,2841.55,262.855,2841.693,262.916,2841.835Z" transform="translate(-242.976 -163.286)" fill="#fff"/>
    <path id="Path_9243" data-name="Path 9243" d="M256.293,2823.57c.08-.068.159-.138.24-.206s.157-.124.236-.186c-.014-.1-.03-.2-.042-.3s-.02-.21-.03-.315q-.321.157-.633.329Q256.169,2823.235,256.293,2823.57Z" transform="translate(-236.689 -145.866)" fill="#fff"/>
    <path id="Path_9244" data-name="Path 9244" d="M295.046,2918.3c-.025-.042-.048-.085-.072-.128-.065-.046-.13-.09-.194-.137.016.056.035.11.052.166C294.9,2918.234,294.974,2918.268,295.046,2918.3Z" transform="translate(-273.153 -235.784)" fill="#fff"/>
    <path id="Path_9245" data-name="Path 9245" d="M250.452,2802.119c.237-.124.479-.239.723-.35-.018-.267-.031-.535-.033-.8q-.455.109-.9.242C250.3,2801.514,250.373,2801.818,250.452,2802.119Z" transform="translate(-231.203 -125.524)" fill="#fff"/>
    <path id="Path_9246" data-name="Path 9246" d="M276.4,2872.785c-.017-.052-.036-.1-.053-.155-.019.054-.037.11-.056.165.028.05.055.1.084.152C276.382,2872.892,276.392,2872.838,276.4,2872.785Z" transform="translate(-255.74 -193.019)" fill="#fff"/>
    <path id="Path_9247" data-name="Path 9247" d="M246.353,2776.2c.024.2.054.4.087.6q.456-.127.919-.229l.074-.014c0-.026,0-.051,0-.076q.018-.474.062-.945c-.2,0-.4.007-.6.02s-.4.03-.6.049C246.312,2775.8,246.331,2776,246.353,2776.2Z" transform="translate(-227.489 -101.57)" fill="#fff"/>
    <path id="Path_9248" data-name="Path 9248" d="M298.842,2929.4c-.057-.084-.112-.169-.167-.255l-.038-.014c-.116-.045-.231-.092-.347-.139.039.113.077.226.119.338Q298.625,2929.367,298.842,2929.4Z" transform="translate(-276.459 -246.102)" fill="#fff"/>
    <path id="Path_9249" data-name="Path 9249" d="M311.21,2956.237c-.132-.147-.261-.3-.388-.451-.136.021-.273.042-.41.058-.1.012-.21.021-.315.031q.157.322.329.632Q310.822,2956.385,311.21,2956.237Z" transform="translate(-287.58 -271.339)" fill="#fff"/>
    <path id="Path_9250" data-name="Path 9250" d="M320.982,2969.919c.029-.018.057-.039.086-.058-.189-.178-.372-.363-.551-.551-.286.116-.575.227-.867.325q.244.4.509.783Q320.577,2970.181,320.982,2969.919Z" transform="translate(-296.577 -284.076)" fill="#fff"/>
    <path id="Path_9251" data-name="Path 9251" d="M269.678,2857.4c-.069.1-.138.195-.2.295.052.107.107.213.162.319.04-.1.08-.2.121-.3C269.729,2857.608,269.7,2857.5,269.678,2857.4Z" transform="translate(-249.319 -178.674)" fill="#fff"/>
    <path id="Path_9252" data-name="Path 9252" d="M303.435,2942.581c.154-.01.307-.021.461-.036.053,0,.106-.012.159-.018-.092-.119-.182-.239-.271-.361q-.28-.027-.558-.065c.008.019.015.038.022.056Q303.339,2942.37,303.435,2942.581Z" transform="translate(-281.108 -258.45)" fill="#fff"/>
    <path id="Path_9253" data-name="Path 9253" d="M245.447,2742.305c-.012.2-.021.392-.027.589-.007.305,0,.611.016.917.2-.017.4-.031.607-.039.225-.01.451-.011.677-.009.028-.224.06-.448.1-.67.035-.2.076-.4.12-.6-.3-.057-.6-.1-.907-.14C245.839,2742.337,245.643,2742.32,245.447,2742.305Z" transform="translate(-226.662 -70.273)" fill="#fff"/>
    <path id="Path_9254" data-name="Path 9254" d="M443.606,2937.8c-.019-.255-.043-.51-.076-.765s-.077-.509-.126-.761q-.613.187-1.243.319c-.013.428-.043.856-.093,1.28.258,0,.515,0,.772-.011S443.351,2937.826,443.606,2937.8Z" transform="translate(-411.876 -252.961)" fill="#fff"/>
    <path id="Path_9255" data-name="Path 9255" d="M276.1,2747.932c-.039.2-.072.395-.1.594q.472.021.944.067c.071.007.141.018.211.026q.173-.469.377-.923c-.237-.077-.476-.15-.717-.212-.194-.049-.389-.095-.583-.138C276.18,2747.541,276.137,2747.735,276.1,2747.932Z" transform="translate(-255.461 -75.021)" fill="#fff"/>
    <path id="Path_9256" data-name="Path 9256" d="M421.13,2943.623q.061-.55.084-1.1c0-.046,0-.091,0-.137q-.449.089-.9.149-.127.519-.291,1.025h0C420.393,2943.591,420.762,2943.613,421.13,2943.623Z" transform="translate(-391.112 -258.714)" fill="#fff"/>
    <path id="Path_9257" data-name="Path 9257" d="M388.66,2963.806q.234-.5.435-1.02c.013-.033.023-.066.035-.1-.258-.033-.514-.075-.77-.122q-.281.453-.594.885h0Q388.21,2963.642,388.66,2963.806Z" transform="translate(-360.733 -277.724)" fill="#fff"/>
    <path id="Path_9258" data-name="Path 9258" d="M353.133,2972.231c.252-.27.495-.549.729-.836.022-.027.042-.056.064-.083-.235-.111-.466-.23-.694-.354-.271.229-.55.45-.838.658l0,0Q352.755,2971.936,353.133,2972.231Z" transform="translate(-327.416 -285.63)" fill="#fff"/>
    <path id="Path_9259" data-name="Path 9259" d="M283.438,2922.414c-.142-.063-.283-.128-.423-.2,0,.02,0,.041,0,.06.013.154.029.307.046.46.149.038.3.075.45.109l.06.012Q283.5,2922.638,283.438,2922.414Z" transform="translate(-262.073 -239.724)" fill="#fff"/>
    <path id="Path_9260" data-name="Path 9260" d="M333.848,2985.645c.151-.13.3-.262.449-.4.183-.169.359-.346.532-.526q-.394-.3-.768-.635c-.058.041-.115.083-.174.123q-.394.264-.8.506c.12.161.242.32.37.475S333.716,2985.5,333.848,2985.645Z" transform="translate(-309.233 -297.995)" fill="#fff"/>
    <path id="Path_9261" data-name="Path 9261" d="M400.852,2945.875q-.3.03-.593.048c-.063.123-.127.245-.194.365s-.148.254-.224.38q.361.071.724.123Q400.725,2946.339,400.852,2945.875Z" transform="translate(-372.105 -262.004)" fill="#fff"/>
    <path id="Path_9262" data-name="Path 9262" d="M294.578,2675.852c-.195.315-.38.638-.551.969-.136.261-.26.529-.377.8a14.275,14.275,0,0,1,1.57.778,14.748,14.748,0,0,1,1.024-1.4c-.278-.224-.563-.437-.855-.637C295.124,2676.184,294.853,2676.013,294.578,2675.852Z" transform="translate(-272.089 -7.684)" fill="#fff"/>
    <path id="Path_9263" data-name="Path 9263" d="M282.338,2715.046c-.1.288-.189.58-.269.877.2.046.394.1.589.15.266.074.529.16.791.251.1-.2.194-.39.3-.581s.2-.353.3-.526c-.315-.177-.635-.343-.962-.492-.18-.081-.36-.158-.542-.233C282.473,2714.676,282.4,2714.86,282.338,2715.046Z" transform="translate(-261.182 -44.079)" fill="#fff"/>
    <path id="Path_9264" data-name="Path 9264" d="M469.431,2926.038c-.03-.079-.058-.158-.089-.237-.235.1-.473.2-.715.295s-.5.181-.758.262c.049.263.093.527.128.792s.058.512.078.77c.382-.045.76-.106,1.135-.182A14.245,14.245,0,0,0,469.431,2926.038Z" transform="translate(-436.177 -243.098)" fill="#fff"/>
    <path id="Path_9265" data-name="Path 9265" d="M323.173,2698.993c.222.131.442.266.657.41.23.154.454.316.674.483.151-.156.3-.311.462-.459.187-.178.38-.349.576-.515a13.823,13.823,0,0,0-1.354-1.285A13.77,13.77,0,0,0,323.173,2698.993Z" transform="translate(-299.895 -28.192)" fill="#fff"/>
    <path id="Path_9266" data-name="Path 9266" d="M344.009,2690.208c.291-.242.591-.47.9-.687A14.251,14.251,0,0,0,343,2688.5q-.18.193-.353.392A14.859,14.859,0,0,1,344.009,2690.208Z" transform="translate(-318.232 -19.598)" fill="#fff"/>
    <path id="Path_9267" data-name="Path 9267" d="M370.725,2958.813q-.291-.063-.579-.137c-.1.1-.2.194-.3.288s-.22.2-.331.292c.214.119.431.233.651.34Q370.461,2959.215,370.725,2958.813Z" transform="translate(-343.545 -274.061)" fill="#fff"/>
    <path id="Path_9268" data-name="Path 9268" d="M249.308,2852.852c-.044-.09-.09-.179-.132-.27s-.084-.193-.126-.29q-.257.248-.5.509.205.292.426.572c.055-.09.108-.181.164-.271S249.252,2852.935,249.308,2852.852Z" transform="translate(-229.612 -173.864)" fill="#fff"/>
    <path id="Path_9269" data-name="Path 9269" d="M268.446,2897.38c-.116-.1-.229-.21-.342-.317,0,.02-.011.039-.015.06-.035.15-.067.3-.1.452.13.082.262.163.394.242l.053.03C268.438,2897.691,268.441,2897.536,268.446,2897.38Z" transform="translate(-247.922 -216.031)" fill="#fff"/>
    <path id="Path_9270" data-name="Path 9270" d="M353.027,3001.912c.125-.152.248-.3.368-.462.218-.285.421-.583.615-.888q-.26-.155-.515-.322c-.182-.119-.36-.243-.536-.37-.187.2-.378.4-.578.594-.146.142-.3.278-.448.412.21.223.426.44.651.646C352.729,3001.656,352.877,3001.784,353.027,3001.912Z" transform="translate(-326.982 -312.861)" fill="#fff"/>
    <path id="Path_9271" data-name="Path 9271" d="M243.64,2902.11c-.227-.144-.451-.29-.668-.445q-.179.432-.335.872.425.193.861.363C243.537,2902.635,243.586,2902.372,243.64,2902.11Z" transform="translate(-224.043 -220.366)" fill="#fff"/>
    <path id="Path_9272" data-name="Path 9272" d="M218.747,2886.492c.01-.023.022-.046.032-.069l-.06-.045q-.373-.293-.728-.605c-.116.164-.23.329-.338.5s-.21.341-.311.513q.256.156.516.3c.175.1.353.19.533.28Q218.557,2886.926,218.747,2886.492Z" transform="translate(-200.219 -205.398)" fill="#fff"/>
    <path id="Path_9273" data-name="Path 9273" d="M234.878,2925.447q.291.069.585.13c.2.039.395.072.594.1q.021-.473.067-.944c0-.025.007-.049.009-.074l-.071-.024q-.445-.163-.879-.351c-.06.192-.117.384-.167.579S234.921,2925.253,234.878,2925.447Z" transform="translate(-216.735 -241.67)" fill="#fff"/>
    <path id="Path_9274" data-name="Path 9274" d="M252.125,2884.64c.024-.1.047-.206.073-.308s.054-.193.082-.289c-.07-.072-.141-.142-.209-.216s-.14-.158-.21-.238q-.168.315-.318.638Q251.828,2884.442,252.125,2884.64Z" transform="translate(-232.431 -203.341)" fill="#fff"/>
    <path id="Path_9275" data-name="Path 9275" d="M265.405,2914c-.006-.1-.008-.2-.011-.3-.089-.046-.178-.092-.265-.141s-.182-.107-.273-.16q-.062.352-.105.705.337.115.681.212C265.422,2914.209,265.412,2914.1,265.405,2914Z" transform="translate(-244.87 -231.415)" fill="#fff"/>
    <path id="Path_9276" data-name="Path 9276" d="M289.651,2958.638c-.124-.237-.239-.479-.35-.723-.267.018-.535.031-.8.034q.109.455.242.9Q289.2,2958.758,289.651,2958.638Z" transform="translate(-267.238 -273.345)" fill="#fff"/>
    <path id="Path_9277" data-name="Path 9277" d="M223.584,2808.557c.084.182.174.362.267.54q.394-.261.8-.5l.066-.036c-.007-.024-.015-.048-.022-.072q-.129-.455-.233-.917c-.19.064-.38.132-.566.205s-.37.152-.553.232C223.422,2808.191,223.5,2808.374,223.584,2808.557Z" transform="translate(-205.873 -131.742)" fill="#fff"/>
    <path id="Path_9278" data-name="Path 9278" d="M236.355,2833.427c.187-.191.381-.375.579-.556-.1-.249-.194-.5-.28-.753q-.4.244-.783.509Q236.1,2833.034,236.355,2833.427Z" transform="translate(-217.67 -154.864)" fill="#fff"/>
    <path id="Path_9279" data-name="Path 9279" d="M260.972,2869.1c-.011.017-.022.033-.033.051q-.119.2-.233.4.148.178.3.352c.013.015.028.03.041.044q.072-.221.151-.44C261.121,2869.371,261.045,2869.235,260.972,2869.1Z" transform="translate(-241.061 -189.693)" fill="#fff"/>
    <path id="Path_9280" data-name="Path 9280" d="M285.685,2939.489c-.041-.1-.083-.194-.122-.292s-.069-.188-.1-.282c-.1-.017-.2-.033-.3-.052s-.206-.045-.309-.069q.05.354.118.7C285.209,2939.5,285.447,2939.5,285.685,2939.489Z" transform="translate(-263.805 -255.335)" fill="#fff"/>
    <path id="Path_9281" data-name="Path 9281" d="M412.288,2966.371c.047-.253.084-.508.116-.763q-.573-.011-1.145-.066c-.023.067-.044.135-.068.2q-.19.516-.411,1.019c.2.065.4.126.6.18.248.067.5.126.747.179C412.185,2966.873,412.241,2966.623,412.288,2966.371Z" transform="translate(-382.408 -280.528)" fill="#fff"/>
    <path id="Path_9282" data-name="Path 9282" d="M438.607,2965.421c-.256.026-.513.047-.771.059s-.534.017-.8.015c-.035.266-.074.53-.124.793s-.1.505-.163.755a13.735,13.735,0,0,0,1.851.244A13.861,13.861,0,0,0,438.607,2965.421Z" transform="translate(-406.865 -280.414)" fill="#fff"/>
    <path id="Path_9283" data-name="Path 9283" d="M472.715,2962.284c-.358.068-.719.125-1.084.166a14.748,14.748,0,0,1,0,1.9c.163.008.326.013.488.016A14.346,14.346,0,0,0,472.715,2962.284Z" transform="translate(-439.72 -277.46)" fill="#fff"/>
    <path id="Path_9284" data-name="Path 9284" d="M282.509,2897.032c-.009-.051-.017-.1-.025-.153-.034-.045-.068-.091-.1-.138,0,.058,0,.115,0,.173C282.424,2896.954,282.466,2896.994,282.509,2897.032Z" transform="translate(-261.476 -215.728)" fill="#fff"/>
    <path id="Path_9285" data-name="Path 9285" d="M320.944,2678.312a14.242,14.242,0,0,0-1.523-.545q.625.417,1.212.9C320.734,2678.545,320.839,2678.428,320.944,2678.312Z" transform="translate(-296.361 -9.487)" fill="#fff"/>
    <path id="Path_9286" data-name="Path 9286" d="M398.758,2989.574c-.251-.055-.5-.114-.751-.182-.209-.057-.417-.12-.625-.187-.115.251-.235.5-.366.744s-.251.452-.385.672a13.832,13.832,0,0,0,1.542.725A13.868,13.868,0,0,0,398.758,2989.574Z" transform="translate(-369.081 -302.815)" fill="#fff"/>
    <path id="Path_9287" data-name="Path 9287" d="M372.992,2981.326c.122-.218.234-.44.343-.665q-.468-.168-.927-.367c-.043.057-.083.115-.127.17q-.34.433-.706.843c.168.122.338.242.512.355s.34.216.512.319Q372.8,2981.657,372.992,2981.326Z" transform="translate(-345.483 -294.422)" fill="#fff"/>
    <path id="Path_9288" data-name="Path 9288" d="M255.809,2670.045a14.6,14.6,0,0,1,.882-1.741,14.257,14.257,0,0,0-2.209-.289,13.723,13.723,0,0,0-.495,1.47A14.473,14.473,0,0,1,255.809,2670.045Z" transform="translate(-234.733 -0.303)" fill="#fff"/>
    <path id="Path_9289" data-name="Path 9289" d="M212.509,2778.527c.088.292.189.581.3.868q.28-.118.566-.225c.211-.078.426-.15.641-.217-.042-.222-.081-.445-.112-.668-.028-.2-.05-.4-.07-.6-.3.039-.606.086-.906.147-.193.04-.384.084-.575.13C212.4,2778.148,212.453,2778.337,212.509,2778.527Z" transform="translate(-195.519 -103.591)" fill="#fff"/>
    <path id="Path_9290" data-name="Path 9290" d="M205.611,2742.564c.043.29.1.58.165.868a14.44,14.44,0,0,1,1.563-.275,14.331,14.331,0,0,1-.006-1.587c-.3-.012-.59-.017-.884-.008q-.477.012-.95.057Q205.539,2742.092,205.611,2742.564Z" transform="translate(-189.064 -69.569)" fill="#fff"/>
    <path id="Path_9291" data-name="Path 9291" d="M246.719,2703.232c-.049.29-.084.583-.112.877a14.333,14.333,0,0,1,1.572.222,14.37,14.37,0,0,1,.485-1.512c-.277-.1-.556-.2-.838-.281q-.458-.135-.921-.239Q246.8,2702.76,246.719,2703.232Z" transform="translate(-227.782 -32.593)" fill="#fff"/>
    <g id="Group_5228" data-name="Group 5228" transform="translate(5.664 2670.999)">
      <path id="Path_9292" data-name="Path 9292" d="M22.13,2774.975c-.042-.125-.085-.249-.117-.374-.041-.146-.082-.291-.121-.436a14.333,14.333,0,0,0-1.6,3.072c.072.179.146.357.226.534l.206-.287c.088-.121.185-.235.278-.354.183-.24.387-.465.589-.693.058-.069.121-.135.184-.2a1.1,1.1,0,0,1,.353-1.261Z" transform="translate(-20.293 -2771.279)" fill="#fff"/>
      <path id="Path_9293" data-name="Path 9293" d="M77.942,2778.077l-.113-.222c-.074-.148-.152-.295-.223-.444-.133-.3-.276-.6-.387-.908-.089-.222-.167-.447-.242-.673-.133.08-.265.161-.4.243-.255.174-.514.337-.754.526l-.262.2a1.113,1.113,0,0,1-.264,1.514c.031.06.061.12.092.18.134.274.3.535.45.8q.123.2.25.391c.165-.171.333-.34.51-.5.234-.23.492-.435.743-.649.129-.1.263-.2.394-.3l.2-.151h0Z" transform="translate(-72.104 -2772.847)" fill="#fff"/>
      <path id="Path_9294" data-name="Path 9294" d="M30.3,2818c-.035.037-.072.071-.105.11a14.55,14.55,0,0,0-1.217,1.522,14.541,14.541,0,0,0,1,1.674c.08.124.17.237.258.355l.239.315.006-.009.062-.1.252-.4c.086-.132.181-.259.272-.389.178-.263.381-.509.579-.762.134-.16.271-.318.41-.476-.117-.174-.232-.35-.342-.527-.161-.277-.33-.549-.47-.834l-.122-.239a1.028,1.028,0,0,1-.117.012A1.108,1.108,0,0,1,30.3,2818Z" transform="translate(-28.471 -2812.566)" fill="#fff"/>
      <path id="Path_9295" data-name="Path 9295" d="M56.287,2728.1c.12-.1.246-.186.369-.279.25-.2.52-.367.786-.547.176-.111.356-.219.537-.325-.057-.2-.112-.4-.163-.606-.067-.314-.144-.625-.189-.939-.025-.157-.055-.312-.075-.469l-.045-.393a14.2,14.2,0,0,0-2.188,2.281c.068.292.145.585.232.876.028.105.063.207.1.309a1.126,1.126,0,0,1,.163-.017A1.112,1.112,0,0,1,56.287,2728.1Z" transform="translate(-53.283 -2724.542)" fill="#fff"/>
    </g>
    <g id="Group_5229" data-name="Group 5229" transform="translate(6.699 2678.77)">
      <path id="Path_9296" data-name="Path 9296" d="M84.593,2951.322c-.038,0-.075-.008-.112-.011-.033.1-.068.194-.1.292-.044.146-.093.29-.132.436l-.112.439-.054.212-.022.106.092.058.19.107.395.222c.133.073.27.137.406.207.269.143.553.259.835.384.143.058.287.115.432.169.033-.235.07-.47.118-.705.054-.323.142-.641.22-.962.044-.159.094-.317.141-.476l.072-.239h0l-.222-.113c-.147-.077-.3-.15-.442-.228-.208-.122-.417-.241-.621-.366A1.489,1.489,0,0,1,84.593,2951.322Z" transform="translate(-81.391 -2945.46)" fill="#fff"/>
      <path id="Path_9297" data-name="Path 9297" d="M39.8,2905.664a1.485,1.485,0,0,1,.232-.793c-.046-.045-.095-.087-.14-.133-.112-.112-.228-.22-.336-.335l-.319-.348-.079-.086-.007-.008-.179.352c-.065.131-.134.26-.191.4a14.514,14.514,0,0,0-.687,1.824,14.438,14.438,0,0,0,1.468,1.283c.114.093.235.174.355.258l.324.227,0-.01.029-.115.117-.457c.041-.152.092-.3.138-.454.027-.092.059-.183.09-.275A1.49,1.49,0,0,1,39.8,2905.664Z" transform="translate(-38.091 -2901.298)" fill="#fff"/>
      <path id="Path_9298" data-name="Path 9298" d="M111.856,2896.457l-.1.147c-.089.133-.18.263-.266.4-.106.178-.213.353-.318.53a1.474,1.474,0,0,1,.348,1.594c.2.121.394.236.592.355.139.077.281.148.422.223l.158.083a14.329,14.329,0,0,1,.922-2A14.277,14.277,0,0,1,111.856,2896.457Z" transform="translate(-106.922 -2894.23)" fill="#fff"/>
      <path id="Path_9299" data-name="Path 9299" d="M63.933,2861.147c.1-.175.213-.349.321-.524.091-.138.188-.272.281-.409l.142-.2h0l-.176-.176c-.117-.119-.235-.234-.349-.353-.22-.246-.448-.485-.648-.744-.153-.184-.3-.374-.438-.566q-.153.176-.3.354c-.189.243-.384.479-.554.733-.087.125-.178.246-.26.373l-.243.383-.117.184-.054.094.069.083.148.16.306.334c.1.11.215.214.322.322.042.043.088.084.132.126a1.477,1.477,0,0,1,1.418-.166Z" transform="translate(-60.174 -2858.167)" fill="#fff"/>
    </g>
    <g id="Group_5230" data-name="Group 5230" transform="translate(18.539 2689.558)">
      <path id="Path_9300" data-name="Path 9300" d="M288.154,3046.112a13.7,13.7,0,0,0,1.292-.917,14.649,14.649,0,0,1-1.145-1.524,14.614,14.614,0,0,1-1.694.874,13.594,13.594,0,0,0,.821,1.46.838.838,0,0,1,.726.107Z" transform="translate(-283.995 -3043.67)" fill="#fff"/>
      <path id="Path_9301" data-name="Path 9301" d="M318.434,3076.9a14.294,14.294,0,0,1-1.317.959.836.836,0,0,1-.118.777l.033.042c.209.238.407.485.627.71s.422.44.644.646c.216-.151.429-.306.635-.473.254-.191.488-.407.731-.616.118-.108.232-.221.349-.332l.141-.135A14.277,14.277,0,0,1,318.434,3076.9Z" transform="translate(-312.62 -3074.965)" fill="#fff"/>
      <path id="Path_9302" data-name="Path 9302" d="M244.662,3063.882a14.223,14.223,0,0,1-.86-1.583,14.268,14.268,0,0,1-2.107.641l.061.168c.055.149.107.3.164.448.125.292.237.587.377.868.111.246.234.484.362.718.255-.08.508-.167.758-.267.3-.106.581-.242.874-.366.073-.034.145-.071.217-.107,0-.008,0-.017,0-.026A.861.861,0,0,1,244.662,3063.882Z" transform="translate(-241.695 -3061.216)" fill="#fff"/>
      <path id="Path_9303" data-name="Path 9303" d="M265.125,3107.77c-.061.031-.121.062-.183.092-.3.133-.6.276-.908.386-.222.089-.447.167-.673.241.08.133.161.265.243.4.173.255.337.514.525.754.092.121.18.245.275.363l.289.349.139.168.01.011q.334-.054.668-.124l.142-.062c.14-.064.271-.135.409-.2.274-.13.539-.289.81-.441q.208-.126.415-.259c-.2-.187-.389-.378-.573-.58-.23-.233-.435-.492-.649-.743-.021-.026-.04-.053-.061-.079a.884.884,0,0,1-.225.033A.862.862,0,0,1,265.125,3107.77Z" transform="translate(-262.101 -3104.042)" fill="#fff"/>
    </g>
    <g id="Group_5231" data-name="Group 5231" transform="translate(13.502 2667.693)">
      <path id="Path_9304" data-name="Path 9304" d="M157.855,2673.324c.017-.106.033-.211.052-.316l.011-.052a14.305,14.305,0,0,0-2.556.8c0,.068-.009.136-.012.2.234-.042.469-.079.707-.105.324-.049.654-.063.983-.088.13-.006.26-.008.39-.01A.865.865,0,0,1,157.855,2673.324Z" transform="translate(-155.334 -2672.65)" fill="#fff"/>
      <path id="Path_9305" data-name="Path 9305" d="M211.18,2667.693a14.169,14.169,0,0,0-2.45.188c-.02.093-.04.186-.062.279-.01.052-.018.1-.027.157a.865.865,0,0,1,.583.534,14.069,14.069,0,0,1,1.521.214A14.222,14.222,0,0,1,211.18,2667.693Z" transform="translate(-205.526 -2667.693)" fill="#fff"/>
      <path id="Path_9306" data-name="Path 9306" d="M157.127,2696.609c-.1,0-.21.006-.314.011-.316.029-.632.043-.943.09-.268.03-.532.073-.795.123,0,.267,0,.535.02.8.009.314.051.627.078.943.02.158.045.314.068.473l.026.177a14.257,14.257,0,0,1,2.16-.43,14.25,14.25,0,0,1,0-1.732A.861.861,0,0,1,157.127,2696.609Z" transform="translate(-155.075 -2694.927)" fill="#fff"/>
      <path id="Path_9307" data-name="Path 9307" d="M204.652,2697.9a13.694,13.694,0,0,0-.013,1.494,14.719,14.719,0,0,1,1.906-.03,14.608,14.608,0,0,1,.289-1.885,13.688,13.688,0,0,0-1.382-.182A.863.863,0,0,1,204.652,2697.9Z" transform="translate(-201.743 -2695.58)" fill="#fff"/>
    </g>
    <g id="Group_5232" data-name="Group 5232" transform="translate(9.035 2686.716)">
      <path id="Path_9308" data-name="Path 9308" d="M139.309,3078.1l-.044-.109-.174-.438c-.056-.147-.1-.3-.155-.448-.108-.3-.188-.608-.277-.917-.051-.2-.1-.406-.143-.611q-.315-.012-.627-.033c-.319-.033-.638-.056-.951-.11-.153-.024-.307-.043-.459-.072a1.125,1.125,0,0,1-.507.442c.014.086.029.173.05.259a14.517,14.517,0,0,0,.516,1.88,14.465,14.465,0,0,0,1.942.175c.147.008.292,0,.439,0l.4-.007Z" transform="translate(-132.615 -3070.678)" fill="#fff"/>
      <path id="Path_9309" data-name="Path 9309" d="M132.956,3020.444c0,.006,0,.011,0,.017.125.021.251.04.377.06.3.052.606.075.912.106q.231.016.463.028c-.041-.234-.079-.47-.105-.708-.049-.324-.063-.654-.088-.983-.007-.165-.009-.331-.013-.5l-.005-.249h0l-.246-.039c-.164-.027-.328-.051-.49-.08-.323-.071-.647-.129-.962-.221-.232-.058-.46-.128-.687-.2-.014.155-.025.309-.036.463-.01.308-.029.614-.018.919,0,.1,0,.192.006.289A1.12,1.12,0,0,1,132.956,3020.444Z" transform="translate(-128.923 -3016.346)" fill="#fff"/>
      <path id="Path_9310" data-name="Path 9310" d="M80.54,3054.212c-.065-.021-.129-.043-.192-.068-.287-.107-.573-.208-.847-.333-.138-.061-.278-.116-.412-.181l-.317-.155q.028.417.081.826a14.558,14.558,0,0,0,.293,1.574q.46.417.951.79c.367.132.743.254,1.13.359q.4.108.808.192l-.111-.334c-.046-.143-.082-.289-.123-.433-.086-.289-.148-.586-.215-.885-.024-.1-.042-.2-.059-.295A1.114,1.114,0,0,1,80.54,3054.212Z" transform="translate(-78.742 -3050.064)" fill="#fff"/>
      <path id="Path_9311" data-name="Path 9311" d="M80.809,2997.851c0-.109,0-.218-.006-.327-.011-.317.009-.636.02-.957.014-.208.032-.417.053-.626-.2-.072-.393-.147-.586-.224-.294-.13-.589-.251-.871-.4-.141-.072-.285-.139-.423-.215l-.411-.232-.1-.058-.009-.005-.061.39c-.022.145-.048.288-.059.435a14.509,14.509,0,0,0-.09,1.948,14.529,14.529,0,0,0,1.792.767c.042.016.085.03.128.044A1.116,1.116,0,0,1,80.809,2997.851Z" transform="translate(-78.259 -2994.808)" fill="#fff"/>
    </g>
  </g>
</svg>
