<svg xmlns="http://www.w3.org/2000/svg" width="22.514" height="14.986" viewBox="0 0 22.514 14.986">
  <path id="Path_1372" data-name="Path 1372" d="M-711.636,1836.307h-18.1a4.857,4.857,0,0,1-.608-.022.838.838,0,0,1-.742-.83.838.838,0,0,1,.739-.834,4.148,4.148,0,0,1,.568-.02h18.254c-.17-.178-.265-.281-.363-.379q-2.3-2.3-4.6-4.6a2.576,2.576,0,0,1-.3-.33.823.823,0,0,1,.1-1.076.837.837,0,0,1,1.078-.1,2.264,2.264,0,0,1,.3.269q3.21,3.2,6.417,6.4a.858.858,0,0,1,.011,1.323q-3.235,3.231-6.475,6.458c-.464.463-.984.507-1.352.125s-.312-.873.163-1.349q2.312-2.316,4.629-4.626a2.846,2.846,0,0,1,.361-.263Z" transform="translate(731.086 -1827.963)" fill="#81c357"/>
</svg>
