<svg id="reporticon" xmlns="http://www.w3.org/2000/svg" width="38.252" height="51" viewBox="0 0 38.252 51">
  <path id="Path_1488" data-name="Path 1488" d="M1401.833,3605.4h19.623q0,6.2,0,12.4a3.225,3.225,0,0,0,3.56,3.537h12.378v.59q0,15.464,0,30.928a3.221,3.221,0,0,1-3.552,3.544h-31.127a3.231,3.231,0,0,1-3.571-3.575q0-17.356,0-34.713,0-4.707,0-9.413a2.916,2.916,0,0,1,1.007-2.4A9.805,9.805,0,0,1,1401.833,3605.4Zm22.844,22.336v22.25h6.317v-22.25ZM1421.422,3650v-15.875h-6.315V3650Zm-15.88-.011h6.314v-9.5h-6.314Z" transform="translate(-1399.142 -3605.401)" fill="#61d281"/>
  <path id="Path_1489" data-name="Path 1489" d="M1590.881,3605.4a4.172,4.172,0,0,0,.324.416q5.929,5.937,11.863,11.869c.125.125.245.257.415.436h-12.7V3605.4Z" transform="translate(-1565.279 -3605.401)" fill="#61d281"/>
</svg>
