<svg id="riyadh" xmlns="http://www.w3.org/2000/svg" xmlns:xlink="http://www.w3.org/1999/xlink" width="45.177" height="70" viewBox="0 0 45.177 70">
  <defs>
    <clipPath id="clip-path">
      <rect id="Rectangle_3732" data-name="Rectangle 3732" width="45.177" height="70" fill="none"/>
    </clipPath>
  </defs>
  <g id="Group_5261" data-name="Group 5261" clip-path="url(#clip-path)">
    <path id="Path_9314" data-name="Path 9314" d="M169.326,403.527H156.289a.132.132,0,0,1-.052-.011l-3.711-1.6a.13.13,0,0,1-.079-.12v-2.507a.13.13,0,0,1,.13-.131H158.7a.131.131,0,1,1,0,.261h-5.986v2.291l3.607,1.56H169.2v-3.851h-7.958a.131.131,0,0,1,0-.261h8.089a.13.13,0,0,1,.131.131V403.4a.13.13,0,0,1-.131.131" transform="translate(-127.483 -333.788)" fill="#73bc45"/>
    <path id="Path_9315" data-name="Path 9315" d="M139.776,414.724h-2.507a.131.131,0,0,1,0-.261h2.507a.131.131,0,1,1,0,.261" transform="translate(-114.68 -346.59)" fill="#73bc45"/>
    <path id="Path_9316" data-name="Path 9316" d="M143.486,424.523h-6.218a.131.131,0,1,1,0-.261h6.218a.131.131,0,1,1,0,.261" transform="translate(-114.68 -354.784)" fill="#73bc45"/>
    <path id="Path_9317" data-name="Path 9317" d="M137.269,28.718a.131.131,0,1,1,0-.261c6.226,0,8.473-26.475,8.495-26.742A.129.129,0,0,1,145.9,1.6a.131.131,0,0,1,.119.141c-.09,1.1-2.29,26.982-8.755,26.982" transform="translate(-114.68 -1.334)" fill="#73bc45"/>
    <path id="Path_9318" data-name="Path 9318" d="M215.143,390.025h-9.695a.131.131,0,1,1,0-.261h9.695a.131.131,0,1,1,0,.261" transform="translate(-171.695 -325.936)" fill="#73bc45"/>
    <path id="Path_9319" data-name="Path 9319" d="M145.893,390.433h-8.625a.131.131,0,0,1,0-.261h8.625a.131.131,0,0,1,0,.261" transform="translate(-114.68 -326.277)" fill="#73bc45"/>
    <path id="Path_9320" data-name="Path 9320" d="M145.893,381.451h-8.625a.131.131,0,1,1,0-.261h8.625a.131.131,0,1,1,0,.261" transform="translate(-114.68 -318.766)" fill="#73bc45"/>
    <path id="Path_9321" data-name="Path 9321" d="M145.893,372.47h-8.625a.131.131,0,1,1,0-.261h8.625a.131.131,0,1,1,0,.261" transform="translate(-114.68 -311.255)" fill="#73bc45"/>
    <path id="Path_9322" data-name="Path 9322" d="M145.893,363.487h-8.625a.131.131,0,1,1,0-.261h8.625a.131.131,0,1,1,0,.261" transform="translate(-114.68 -303.743)" fill="#73bc45"/>
    <path id="Path_9323" data-name="Path 9323" d="M145.893,354.506h-8.625a.131.131,0,1,1,0-.261h8.625a.131.131,0,1,1,0,.261" transform="translate(-114.68 -296.233)" fill="#73bc45"/>
    <path id="Path_9324" data-name="Path 9324" d="M139.776,408.4h-2.507a.131.131,0,0,1,0-.261h2.507a.131.131,0,1,1,0,.261" transform="translate(-114.68 -341.298)" fill="#73bc45"/>
    <path id="Path_9325" data-name="Path 9325" d="M139.776,399.415h-2.507a.131.131,0,0,1,0-.261h2.507a.131.131,0,1,1,0,.261" transform="translate(-114.68 -333.788)" fill="#73bc45"/>
    <path id="Path_9326" data-name="Path 9326" d="M145.893,390.433h-8.625a.131.131,0,0,1,0-.261h8.625a.131.131,0,0,1,0,.261" transform="translate(-114.68 -326.277)" fill="#73bc45"/>
    <path id="Path_9327" data-name="Path 9327" d="M145.893,345.524h-8.625a.131.131,0,0,1,0-.261h8.625a.131.131,0,0,1,0,.261" transform="translate(-114.68 -288.722)" fill="#73bc45"/>
    <path id="Path_9328" data-name="Path 9328" d="M145.893,336.542h-8.625a.131.131,0,1,1,0-.261h8.625a.131.131,0,1,1,0,.261" transform="translate(-114.68 -281.211)" fill="#73bc45"/>
    <path id="Path_9329" data-name="Path 9329" d="M145.893,327.56h-8.625a.131.131,0,0,1,0-.261h8.625a.131.131,0,0,1,0,.261" transform="translate(-114.68 -273.7)" fill="#73bc45"/>
    <path id="Path_9330" data-name="Path 9330" d="M145.893,318.579h-8.625a.131.131,0,1,1,0-.261h8.625a.131.131,0,1,1,0,.261" transform="translate(-114.68 -266.19)" fill="#73bc45"/>
    <path id="Path_9331" data-name="Path 9331" d="M145.893,309.6h-8.625a.131.131,0,1,1,0-.261h8.625a.131.131,0,0,1,0,.261" transform="translate(-114.68 -258.679)" fill="#73bc45"/>
    <path id="Path_9332" data-name="Path 9332" d="M145.893,300.615h-8.625a.131.131,0,1,1,0-.261h8.625a.131.131,0,1,1,0,.261" transform="translate(-114.68 -251.167)" fill="#73bc45"/>
    <path id="Path_9333" data-name="Path 9333" d="M145.893,291.633h-8.625a.131.131,0,1,1,0-.261h8.625a.131.131,0,0,1,0,.261" transform="translate(-114.68 -243.656)" fill="#73bc45"/>
    <path id="Path_9334" data-name="Path 9334" d="M145.893,282.651h-8.625a.131.131,0,1,1,0-.261h8.625a.131.131,0,1,1,0,.261" transform="translate(-114.68 -236.145)" fill="#73bc45"/>
    <path id="Path_9335" data-name="Path 9335" d="M145.893,273.67h-8.625a.131.131,0,1,1,0-.261h8.625a.131.131,0,1,1,0,.261" transform="translate(-114.68 -228.635)" fill="#73bc45"/>
    <path id="Path_9336" data-name="Path 9336" d="M145.893,264.687h-8.625a.131.131,0,1,1,0-.261h8.625a.131.131,0,1,1,0,.261" transform="translate(-114.68 -221.123)" fill="#73bc45"/>
    <path id="Path_9337" data-name="Path 9337" d="M145.893,255.706h-8.625a.131.131,0,1,1,0-.261h8.625a.131.131,0,1,1,0,.261" transform="translate(-114.68 -213.613)" fill="#73bc45"/>
    <path id="Path_9338" data-name="Path 9338" d="M145.893,246.723h-8.625a.131.131,0,1,1,0-.261h8.625a.131.131,0,1,1,0,.261" transform="translate(-114.68 -206.101)" fill="#73bc45"/>
    <path id="Path_9339" data-name="Path 9339" d="M145.893,237.742h-8.625a.131.131,0,1,1,0-.261h8.625a.131.131,0,1,1,0,.261" transform="translate(-114.68 -198.591)" fill="#73bc45"/>
    <path id="Path_9340" data-name="Path 9340" d="M145.893,228.761h-8.625a.131.131,0,1,1,0-.261h8.625a.131.131,0,1,1,0,.261" transform="translate(-114.68 -191.08)" fill="#73bc45"/>
    <path id="Path_9341" data-name="Path 9341" d="M145.893,219.778h-8.625a.131.131,0,1,1,0-.261h8.625a.131.131,0,1,1,0,.261" transform="translate(-114.68 -183.568)" fill="#73bc45"/>
    <path id="Path_9342" data-name="Path 9342" d="M145.893,210.8h-8.625a.131.131,0,1,1,0-.261h8.625a.131.131,0,1,1,0,.261" transform="translate(-114.68 -176.058)" fill="#73bc45"/>
    <path id="Path_9343" data-name="Path 9343" d="M145.893,201.814h-8.625a.131.131,0,0,1,0-.261h8.625a.131.131,0,1,1,0,.261" transform="translate(-114.68 -168.546)" fill="#73bc45"/>
    <path id="Path_9344" data-name="Path 9344" d="M145.893,192.833h-8.625a.131.131,0,1,1,0-.261h8.625a.131.131,0,1,1,0,.261" transform="translate(-114.68 -161.036)" fill="#73bc45"/>
    <path id="Path_9345" data-name="Path 9345" d="M145.893,183.851h-8.625a.131.131,0,1,1,0-.261h8.625a.131.131,0,1,1,0,.261" transform="translate(-114.68 -153.525)" fill="#73bc45"/>
    <path id="Path_9346" data-name="Path 9346" d="M145.893,174.869h-8.625a.131.131,0,1,1,0-.261h8.625a.131.131,0,1,1,0,.261" transform="translate(-114.68 -146.014)" fill="#73bc45"/>
    <path id="Path_9347" data-name="Path 9347" d="M145.893,165.888h-8.625a.131.131,0,1,1,0-.261h8.625a.131.131,0,1,1,0,.261" transform="translate(-114.68 -138.504)" fill="#73bc45"/>
    <path id="Path_9348" data-name="Path 9348" d="M158.58,156.906h-6.14a.131.131,0,1,1,0-.261h6.14a.131.131,0,1,1,0,.261" transform="translate(-127.367 -130.993)" fill="#73bc45"/>
    <path id="Path_9349" data-name="Path 9349" d="M163.474,147.924h-5.182a.131.131,0,0,1,0-.261h5.182a.131.131,0,0,1,0,.261" transform="translate(-132.261 -123.481)" fill="#73bc45"/>
    <path id="Path_9350" data-name="Path 9350" d="M167.077,138.942H162.6a.131.131,0,1,1,0-.261h4.476a.131.131,0,1,1,0,.261" transform="translate(-135.864 -115.97)" fill="#73bc45"/>
    <path id="Path_9351" data-name="Path 9351" d="M170.008,129.96h-3.9a.131.131,0,1,1,0-.261h3.9a.131.131,0,1,1,0,.261" transform="translate(-138.795 -108.459)" fill="#73bc45"/>
    <path id="Path_9352" data-name="Path 9352" d="M172.5,120.978h-3.413a.131.131,0,0,1,0-.261H172.5a.131.131,0,0,1,0,.261" transform="translate(-141.292 -100.948)" fill="#73bc45"/>
    <path id="Path_9353" data-name="Path 9353" d="M174.693,112h-2.985a.131.131,0,0,1,0-.261h2.985a.131.131,0,0,1,0,.261" transform="translate(-143.48 -93.438)" fill="#73bc45"/>
    <path id="Path_9354" data-name="Path 9354" d="M176.643,103.015h-2.6a.131.131,0,0,1,0-.261h2.6a.131.131,0,0,1,0,.261" transform="translate(-145.429 -85.927)" fill="#73bc45"/>
    <path id="Path_9355" data-name="Path 9355" d="M178.506,94.033h-2.238a.131.131,0,1,1,0-.261h2.238a.131.131,0,0,1,0,.261" transform="translate(-147.292 -78.416)" fill="#73bc45"/>
    <path id="Path_9356" data-name="Path 9356" d="M180,85.051H178.06a.131.131,0,0,1,0-.261H180a.131.131,0,0,1,0,.261" transform="translate(-148.791 -70.905)" fill="#73bc45"/>
    <path id="Path_9357" data-name="Path 9357" d="M181.472,76.069h-1.657a.131.131,0,1,1,0-.261h1.657a.131.131,0,0,1,0,.261" transform="translate(-150.259 -63.394)" fill="#73bc45"/>
    <path id="Path_9358" data-name="Path 9358" d="M182.823,67.087h-1.393a.131.131,0,0,1,0-.261h1.393a.131.131,0,1,1,0,.261" transform="translate(-151.61 -55.882)" fill="#73bc45"/>
    <path id="Path_9359" data-name="Path 9359" d="M184.071,58.105h-1.148a.131.131,0,1,1,0-.261h1.148a.131.131,0,1,1,0,.261" transform="translate(-152.858 -48.371)" fill="#73bc45"/>
    <path id="Path_9360" data-name="Path 9360" d="M185.225,49.124H184.3a.131.131,0,0,1,0-.261h.922a.131.131,0,0,1,0,.261" transform="translate(-154.012 -40.861)" fill="#73bc45"/>
    <path id="Path_9361" data-name="Path 9361" d="M186.294,40.142h-.713a.131.131,0,1,1,0-.261h.713a.131.131,0,0,1,0,.261" transform="translate(-155.08 -33.35)" fill="#73bc45"/>
    <path id="Path_9362" data-name="Path 9362" d="M187.28,31.16h-.52a.131.131,0,0,1,0-.261h.52a.131.131,0,1,1,0,.261" transform="translate(-156.067 -25.839)" fill="#73bc45"/>
    <path id="Path_9363" data-name="Path 9363" d="M188.189,22.178h-.342a.131.131,0,1,1,0-.261h.342a.131.131,0,1,1,0,.261" transform="translate(-156.976 -18.328)" fill="#73bc45"/>
    <path id="Path_9364" data-name="Path 9364" d="M178.495,4.4a.131.131,0,0,1-.1-.208l1.873-2.545a.13.13,0,1,1,.21.155L178.6,4.348a.131.131,0,0,1-.105.053" transform="translate(-149.155 -1.333)" fill="#73bc45"/>
    <path id="Path_9365" data-name="Path 9365" d="M173.271,4.29a.131.131,0,0,1-.1-.208l1.792-2.435a.131.131,0,1,1,.21.155l-1.792,2.435a.131.131,0,0,1-.105.053" transform="translate(-144.786 -1.333)" fill="#73bc45"/>
    <path id="Path_9366" data-name="Path 9366" d="M167.984,4.194a.13.13,0,0,1-.1-.208L169.6,1.647a.13.13,0,1,1,.21.155l-1.721,2.339a.13.13,0,0,1-.105.053" transform="translate(-140.365 -1.333)" fill="#73bc45"/>
    <path id="Path_9367" data-name="Path 9367" d="M162.639,4.111a.13.13,0,0,1-.1-.208l1.66-2.255a.13.13,0,1,1,.21.155l-1.66,2.255a.13.13,0,0,1-.105.053" transform="translate(-135.896 -1.333)" fill="#73bc45"/>
    <path id="Path_9368" data-name="Path 9368" d="M157.237,4.04a.13.13,0,0,1-.1-.208l1.608-2.185a.13.13,0,1,1,.21.155l-1.608,2.185a.131.131,0,0,1-.105.053" transform="translate(-131.378 -1.333)" fill="#73bc45"/>
    <path id="Path_9369" data-name="Path 9369" d="M151.776,3.983a.129.129,0,0,1-.077-.025.131.131,0,0,1-.028-.182l1.566-2.127a.13.13,0,0,1,.21.155L151.881,3.93a.13.13,0,0,1-.105.053" transform="translate(-126.812 -1.334)" fill="#73bc45"/>
    <path id="Path_9370" data-name="Path 9370" d="M146.243,3.941a.13.13,0,0,1-.1-.208l1.535-2.086a.13.13,0,1,1,.21.155l-1.535,2.086a.13.13,0,0,1-.105.053" transform="translate(-122.185 -1.333)" fill="#73bc45"/>
    <path id="Path_9371" data-name="Path 9371" d="M140.649,3.913a.13.13,0,0,1-.1-.208l1.514-2.058a.13.13,0,1,1,.21.155L140.754,3.86a.13.13,0,0,1-.105.053" transform="translate(-117.507 -1.333)" fill="#73bc45"/>
    <path id="Path_9372" data-name="Path 9372" d="M137.269,3.393a.13.13,0,0,1-.1-.208L138.3,1.647a.13.13,0,1,1,.21.155l-1.131,1.537a.13.13,0,0,1-.105.053" transform="translate(-114.68 -1.333)" fill="#73bc45"/>
    <path id="Path_9373" data-name="Path 9373" d="M163,406.531h-1.036a.13.13,0,0,1-.131-.13v-1.6a.13.13,0,0,1,.131-.13H163a.13.13,0,0,1,.131.13v1.6a.13.13,0,0,1-.131.13m-.906-.261h.775v-1.344H162.1Z" transform="translate(-135.335 -338.397)" fill="#73bc45"/>
    <path id="Path_9374" data-name="Path 9374" d="M176.274,406.531h-1.036a.13.13,0,0,1-.13-.13v-1.6a.13.13,0,0,1,.13-.13h1.036a.13.13,0,0,1,.13.13v1.6a.13.13,0,0,1-.13.13m-.906-.261h.775v-1.344h-.775Z" transform="translate(-146.431 -338.397)" fill="#73bc45"/>
    <path id="Path_9375" data-name="Path 9375" d="M189.542,406.531h-1.036a.13.13,0,0,1-.131-.13v-1.6a.13.13,0,0,1,.131-.13h1.036a.13.13,0,0,1,.131.13v1.6a.13.13,0,0,1-.131.13m-.906-.261h.775v-1.344h-.775Z" transform="translate(-157.526 -338.397)" fill="#73bc45"/>
    <path id="Path_9376" data-name="Path 9376" d="M202.811,406.531h-1.036a.13.13,0,0,1-.131-.13v-1.6a.13.13,0,0,1,.131-.13h1.036a.13.13,0,0,1,.131.13v1.6a.13.13,0,0,1-.131.13m-.906-.261h.775v-1.344H201.9Z" transform="translate(-168.622 -338.397)" fill="#73bc45"/>
    <path id="Path_9377" data-name="Path 9377" d="M216.079,406.531h-1.036a.13.13,0,0,1-.131-.13v-1.6a.13.13,0,0,1,.131-.13h1.036a.13.13,0,0,1,.131.13v1.6a.13.13,0,0,1-.131.13m-.906-.261h.775v-1.344h-.775Z" transform="translate(-179.718 -338.397)" fill="#73bc45"/>
    <path id="Path_9378" data-name="Path 9378" d="M229.348,406.531h-1.036a.13.13,0,0,1-.131-.13v-1.6a.13.13,0,0,1,.131-.13h1.036a.13.13,0,0,1,.131.13v1.6a.13.13,0,0,1-.131.13m-.906-.261h.775v-1.344h-.775Z" transform="translate(-190.814 -338.397)" fill="#73bc45"/>
    <path id="Path_9379" data-name="Path 9379" d="M242.616,406.531H241.58a.13.13,0,0,1-.131-.13v-1.6a.13.13,0,0,1,.131-.13h1.036a.13.13,0,0,1,.131.13v1.6a.13.13,0,0,1-.131.13m-.906-.261h.775v-1.344h-.775Z" transform="translate(-201.909 -338.397)" fill="#73bc45"/>
    <path id="Path_9380" data-name="Path 9380" d="M32.726,403.527H19.689a.13.13,0,0,1-.131-.131v-4.112a.13.13,0,0,1,.131-.131h8.089a.131.131,0,1,1,0,.261H19.819v3.851H32.7l3.607-1.56v-2.291H30.32a.131.131,0,1,1,0-.261h6.117a.13.13,0,0,1,.131.131v2.507a.13.13,0,0,1-.079.12l-3.711,1.6a.131.131,0,0,1-.052.011" transform="translate(-16.355 -333.788)" fill="#73bc45"/>
    <path id="Path_9381" data-name="Path 9381" d="M124.467,414.724h-2.507a.131.131,0,0,1,0-.261h2.507a.131.131,0,0,1,0,.261" transform="translate(-101.878 -346.59)" fill="#73bc45"/>
    <path id="Path_9382" data-name="Path 9382" d="M105.517,424.523H99.3a.131.131,0,1,1,0-.261h6.218a.131.131,0,1,1,0,.261" transform="translate(-82.929 -354.784)" fill="#73bc45"/>
    <path id="Path_9383" data-name="Path 9383" d="M93.227,28.718c-2.733,0-5.037-4.554-6.847-13.536A133.675,133.675,0,0,1,84.473,1.736a.13.13,0,1,1,.26-.021c.022.267,2.269,26.742,8.495,26.742a.131.131,0,0,1,0,.261" transform="translate(-70.639 -1.334)" fill="#73bc45"/>
    <path id="Path_9384" data-name="Path 9384" d="M19.584,390.025H9.89a.131.131,0,1,1,0-.261h9.694a.131.131,0,1,1,0,.261" transform="translate(-8.161 -325.936)" fill="#73bc45"/>
    <path id="Path_9385" data-name="Path 9385" d="M93.227,390.433H84.6a.131.131,0,0,1,0-.261h8.625a.131.131,0,0,1,0,.261" transform="translate(-70.639 -326.277)" fill="#73bc45"/>
    <path id="Path_9386" data-name="Path 9386" d="M93.227,381.451H84.6a.131.131,0,0,1,0-.261h8.625a.131.131,0,0,1,0,.261" transform="translate(-70.639 -318.766)" fill="#73bc45"/>
    <path id="Path_9387" data-name="Path 9387" d="M93.227,372.47H84.6a.131.131,0,1,1,0-.261h8.625a.131.131,0,1,1,0,.261" transform="translate(-70.639 -311.255)" fill="#73bc45"/>
    <path id="Path_9388" data-name="Path 9388" d="M93.227,363.487H84.6a.131.131,0,1,1,0-.261h8.625a.131.131,0,1,1,0,.261" transform="translate(-70.639 -303.743)" fill="#73bc45"/>
    <path id="Path_9389" data-name="Path 9389" d="M93.227,354.506H84.6a.131.131,0,1,1,0-.261h8.625a.131.131,0,1,1,0,.261" transform="translate(-70.639 -296.233)" fill="#73bc45"/>
    <path id="Path_9390" data-name="Path 9390" d="M124.467,408.4h-2.507a.131.131,0,0,1,0-.261h2.507a.131.131,0,1,1,0,.261" transform="translate(-101.878 -341.298)" fill="#73bc45"/>
    <path id="Path_9391" data-name="Path 9391" d="M124.467,399.415h-2.507a.131.131,0,0,1,0-.261h2.507a.131.131,0,1,1,0,.261" transform="translate(-101.878 -333.788)" fill="#73bc45"/>
    <path id="Path_9392" data-name="Path 9392" d="M93.227,390.433H84.6a.131.131,0,0,1,0-.261h8.625a.131.131,0,0,1,0,.261" transform="translate(-70.639 -326.277)" fill="#73bc45"/>
    <path id="Path_9393" data-name="Path 9393" d="M93.227,345.524H84.6a.131.131,0,0,1,0-.261h8.625a.131.131,0,0,1,0,.261" transform="translate(-70.639 -288.722)" fill="#73bc45"/>
    <path id="Path_9394" data-name="Path 9394" d="M93.227,336.542H84.6a.131.131,0,0,1,0-.261h8.625a.131.131,0,0,1,0,.261" transform="translate(-70.639 -281.211)" fill="#73bc45"/>
    <path id="Path_9395" data-name="Path 9395" d="M93.227,327.56H84.6a.131.131,0,0,1,0-.261h8.625a.131.131,0,0,1,0,.261" transform="translate(-70.639 -273.7)" fill="#73bc45"/>
    <path id="Path_9396" data-name="Path 9396" d="M93.227,318.579H84.6a.131.131,0,1,1,0-.261h8.625a.131.131,0,1,1,0,.261" transform="translate(-70.639 -266.19)" fill="#73bc45"/>
    <path id="Path_9397" data-name="Path 9397" d="M93.227,309.6H84.6a.131.131,0,0,1,0-.261h8.625a.131.131,0,0,1,0,.261" transform="translate(-70.639 -258.679)" fill="#73bc45"/>
    <path id="Path_9398" data-name="Path 9398" d="M93.227,300.615H84.6a.131.131,0,1,1,0-.261h8.625a.131.131,0,1,1,0,.261" transform="translate(-70.639 -251.167)" fill="#73bc45"/>
    <path id="Path_9399" data-name="Path 9399" d="M93.227,291.633H84.6a.131.131,0,0,1,0-.261h8.625a.131.131,0,0,1,0,.261" transform="translate(-70.639 -243.656)" fill="#73bc45"/>
    <path id="Path_9400" data-name="Path 9400" d="M93.227,282.651H84.6a.131.131,0,0,1,0-.261h8.625a.131.131,0,0,1,0,.261" transform="translate(-70.639 -236.145)" fill="#73bc45"/>
    <path id="Path_9401" data-name="Path 9401" d="M93.227,273.67H84.6a.131.131,0,1,1,0-.261h8.625a.131.131,0,1,1,0,.261" transform="translate(-70.639 -228.635)" fill="#73bc45"/>
    <path id="Path_9402" data-name="Path 9402" d="M93.227,264.687H84.6a.131.131,0,0,1,0-.261h8.625a.131.131,0,0,1,0,.261" transform="translate(-70.639 -221.123)" fill="#73bc45"/>
    <path id="Path_9403" data-name="Path 9403" d="M93.227,255.706H84.6a.131.131,0,1,1,0-.261h8.625a.131.131,0,1,1,0,.261" transform="translate(-70.639 -213.613)" fill="#73bc45"/>
    <path id="Path_9404" data-name="Path 9404" d="M93.227,246.723H84.6a.131.131,0,1,1,0-.261h8.625a.131.131,0,0,1,0,.261" transform="translate(-70.639 -206.101)" fill="#73bc45"/>
    <path id="Path_9405" data-name="Path 9405" d="M93.227,237.742H84.6a.131.131,0,0,1,0-.261h8.625a.131.131,0,0,1,0,.261" transform="translate(-70.639 -198.591)" fill="#73bc45"/>
    <path id="Path_9406" data-name="Path 9406" d="M93.227,228.761H84.6a.131.131,0,1,1,0-.261h8.625a.131.131,0,0,1,0,.261" transform="translate(-70.639 -191.08)" fill="#73bc45"/>
    <path id="Path_9407" data-name="Path 9407" d="M93.227,219.778H84.6a.131.131,0,1,1,0-.261h8.625a.131.131,0,0,1,0,.261" transform="translate(-70.639 -183.568)" fill="#73bc45"/>
    <path id="Path_9408" data-name="Path 9408" d="M93.227,210.8H84.6a.131.131,0,0,1,0-.261h8.625a.131.131,0,0,1,0,.261" transform="translate(-70.639 -176.058)" fill="#73bc45"/>
    <path id="Path_9409" data-name="Path 9409" d="M93.227,201.814H84.6a.131.131,0,0,1,0-.261h8.625a.131.131,0,0,1,0,.261" transform="translate(-70.639 -168.546)" fill="#73bc45"/>
    <path id="Path_9410" data-name="Path 9410" d="M93.227,192.833H84.6a.131.131,0,1,1,0-.261h8.625a.131.131,0,0,1,0,.261" transform="translate(-70.639 -161.036)" fill="#73bc45"/>
    <path id="Path_9411" data-name="Path 9411" d="M93.227,183.851H84.6a.131.131,0,0,1,0-.261h8.625a.131.131,0,0,1,0,.261" transform="translate(-70.639 -153.525)" fill="#73bc45"/>
    <path id="Path_9412" data-name="Path 9412" d="M93.227,174.869H84.6a.131.131,0,1,1,0-.261h8.625a.131.131,0,0,1,0,.261" transform="translate(-70.639 -146.014)" fill="#73bc45"/>
    <path id="Path_9413" data-name="Path 9413" d="M93.227,165.888H84.6a.131.131,0,0,1,0-.261h8.625a.131.131,0,0,1,0,.261" transform="translate(-70.639 -138.504)" fill="#73bc45"/>
    <path id="Path_9414" data-name="Path 9414" d="M90.743,156.906H84.6a.131.131,0,1,1,0-.261h6.14a.131.131,0,0,1,0,.261" transform="translate(-70.639 -130.993)" fill="#73bc45"/>
    <path id="Path_9415" data-name="Path 9415" d="M89.784,147.924H84.6a.131.131,0,0,1,0-.261h5.182a.131.131,0,1,1,0,.261" transform="translate(-70.639 -123.481)" fill="#73bc45"/>
    <path id="Path_9416" data-name="Path 9416" d="M89.079,138.942H84.6a.131.131,0,1,1,0-.261h4.476a.131.131,0,1,1,0,.261" transform="translate(-70.639 -115.97)" fill="#73bc45"/>
    <path id="Path_9417" data-name="Path 9417" d="M88.5,129.96H84.6a.131.131,0,1,1,0-.261h3.9a.131.131,0,1,1,0,.261" transform="translate(-70.639 -108.459)" fill="#73bc45"/>
    <path id="Path_9418" data-name="Path 9418" d="M88.016,120.978H84.6a.131.131,0,1,1,0-.261h3.413a.131.131,0,1,1,0,.261" transform="translate(-70.639 -100.948)" fill="#73bc45"/>
    <path id="Path_9419" data-name="Path 9419" d="M87.587,112H84.6a.131.131,0,0,1,0-.261h2.985a.131.131,0,1,1,0,.261" transform="translate(-70.639 -93.438)" fill="#73bc45"/>
    <path id="Path_9420" data-name="Path 9420" d="M87.206,103.015H84.6a.131.131,0,0,1,0-.261h2.6a.131.131,0,1,1,0,.261" transform="translate(-70.639 -85.927)" fill="#73bc45"/>
    <path id="Path_9421" data-name="Path 9421" d="M86.841,94.033H84.6a.131.131,0,1,1,0-.261h2.238a.131.131,0,1,1,0,.261" transform="translate(-70.639 -78.416)" fill="#73bc45"/>
    <path id="Path_9422" data-name="Path 9422" d="M86.547,85.051H84.6a.131.131,0,1,1,0-.261h1.945a.131.131,0,0,1,0,.261" transform="translate(-70.639 -70.905)" fill="#73bc45"/>
    <path id="Path_9423" data-name="Path 9423" d="M86.26,76.069H84.6a.131.131,0,1,1,0-.261H86.26a.131.131,0,1,1,0,.261" transform="translate(-70.639 -63.394)" fill="#73bc45"/>
    <path id="Path_9424" data-name="Path 9424" d="M86,67.087H84.6a.131.131,0,1,1,0-.261H86a.131.131,0,0,1,0,.261" transform="translate(-70.639 -55.882)" fill="#73bc45"/>
    <path id="Path_9425" data-name="Path 9425" d="M85.75,58.105H84.6a.131.131,0,0,1,0-.261H85.75a.131.131,0,1,1,0,.261" transform="translate(-70.638 -48.371)" fill="#73bc45"/>
    <path id="Path_9426" data-name="Path 9426" d="M85.525,49.124H84.6a.131.131,0,0,1,0-.261h.922a.131.131,0,0,1,0,.261" transform="translate(-70.639 -40.861)" fill="#73bc45"/>
    <path id="Path_9427" data-name="Path 9427" d="M85.315,40.142H84.6a.131.131,0,0,1,0-.261h.713a.131.131,0,0,1,0,.261" transform="translate(-70.639 -33.35)" fill="#73bc45"/>
    <path id="Path_9428" data-name="Path 9428" d="M85.122,31.16H84.6a.131.131,0,0,1,0-.261h.52a.131.131,0,1,1,0,.261" transform="translate(-70.639 -25.839)" fill="#73bc45"/>
    <path id="Path_9429" data-name="Path 9429" d="M84.944,22.178H84.6a.131.131,0,0,1,0-.261h.342a.131.131,0,0,1,0,.261" transform="translate(-70.639 -18.328)" fill="#73bc45"/>
    <path id="Path_9430" data-name="Path 9430" d="M86.476,4.4a.131.131,0,0,1-.105-.053L84.5,1.8a.13.13,0,1,1,.21-.155L86.58,4.193a.13.13,0,0,1-.1.208" transform="translate(-70.638 -1.333)" fill="#73bc45"/>
    <path id="Path_9431" data-name="Path 9431" d="M92.115,4.29a.13.13,0,0,1-.105-.053L90.217,1.8a.13.13,0,1,1,.21-.155L92.22,4.083a.13.13,0,0,1-.1.208" transform="translate(-75.422 -1.333)" fill="#73bc45"/>
    <path id="Path_9432" data-name="Path 9432" d="M97.764,4.194a.13.13,0,0,1-.105-.053L95.937,1.8a.13.13,0,1,1,.21-.155l1.721,2.339a.13.13,0,0,1-.1.208" transform="translate(-80.205 -1.333)" fill="#73bc45"/>
    <path id="Path_9433" data-name="Path 9433" d="M103.422,4.111a.13.13,0,0,1-.105-.053L101.657,1.8a.13.13,0,1,1,.21-.155l1.66,2.255a.13.13,0,0,1-.1.208" transform="translate(-84.988 -1.333)" fill="#73bc45"/>
    <path id="Path_9434" data-name="Path 9434" d="M109.089,4.04a.13.13,0,0,1-.105-.053L107.376,1.8a.13.13,0,1,1,.21-.155l1.608,2.185a.13.13,0,0,1-.1.208" transform="translate(-89.771 -1.333)" fill="#73bc45"/>
    <path id="Path_9435" data-name="Path 9435" d="M114.767,3.982a.13.13,0,0,1-.105-.053L113.1,1.8a.13.13,0,1,1,.21-.155l1.566,2.127a.131.131,0,0,1-.028.182.129.129,0,0,1-.077.025" transform="translate(-94.554 -1.333)" fill="#73bc45"/>
    <path id="Path_9436" data-name="Path 9436" d="M120.455,3.941a.131.131,0,0,1-.105-.053L118.815,1.8a.131.131,0,1,1,.21-.155l1.535,2.086a.131.131,0,0,1-.1.208" transform="translate(-99.336 -1.333)" fill="#73bc45"/>
    <path id="Path_9437" data-name="Path 9437" d="M126.154,3.913a.131.131,0,0,1-.105-.053L124.535,1.8a.131.131,0,0,1,.21-.155L126.259,3.7a.131.131,0,0,1-.1.208" transform="translate(-104.119 -1.333)" fill="#73bc45"/>
    <path id="Path_9438" data-name="Path 9438" d="M131.491,3.392a.131.131,0,0,1-.105-.053L130.255,1.8a.131.131,0,1,1,.21-.155L131.6,3.184a.131.131,0,0,1-.1.208" transform="translate(-108.903 -1.333)" fill="#73bc45"/>
    <path id="Path_9439" data-name="Path 9439" d="M101.46,34.377c-1.94,0-4.474-7.406-7.135-20.855a.391.391,0,0,1,.328-.463,47.383,47.383,0,0,1,13.616,0,.392.392,0,0,1,.328.463c-2.661,13.449-5.2,20.855-7.135,20.855m-6.286-20.6c3.907,19.588,6.262,19.815,6.286,19.815s2.378-.227,6.286-19.815a46.315,46.315,0,0,0-12.572,0" transform="translate(-78.872 -10.509)" fill="#73bc45"/>
    <path id="Path_9440" data-name="Path 9440" d="M43.448,70H1.729a.392.392,0,0,1-.392-.391V64.181L.19,63.492a.391.391,0,0,1,.2-.727H12.761a.391.391,0,0,1,.2.727l-1.147.688v.925h1.758V.392A.392.392,0,0,1,13.964,0H31.213A.392.392,0,0,1,31.6.392V65.105h1.758v-.925l-1.147-.688a.391.391,0,0,1,.2-.727H44.785a.391.391,0,0,1,.2.727l-1.147.688v5.428a.391.391,0,0,1-.391.391M2.12,69.217H43.057V63.959a.391.391,0,0,1,.19-.336l.125-.075H33.83l.125.075a.391.391,0,0,1,.19.336s0,1.434,0,1.528v.01a.392.392,0,0,1-.391.392H31.213a.391.391,0,0,1-.391-.392V.783H14.355c0,5.41,0,64.336,0,64.711v0a.392.392,0,0,1-.392.392H11.423a.391.391,0,0,1-.392-.392V63.959a.391.391,0,0,1,.19-.336l.125-.075H1.805l.125.075a.391.391,0,0,1,.19.336Z" transform="translate(0)" fill="#73bc45"/>
    <path id="Path_9441" data-name="Path 9441" d="M107.277,406.531H106.24a.13.13,0,0,1-.13-.13v-1.6a.13.13,0,0,1,.13-.13h1.036a.13.13,0,0,1,.13.13v1.6a.13.13,0,0,1-.13.13m-.906-.261h.775v-1.344h-.775Z" transform="translate(-88.733 -338.397)" fill="#73bc45"/>
    <path id="Path_9442" data-name="Path 9442" d="M94.008,406.531H92.972a.13.13,0,0,1-.131-.13v-1.6a.13.13,0,0,1,.131-.13h1.036a.13.13,0,0,1,.131.13v1.6a.13.13,0,0,1-.131.13m-.906-.261h.775v-1.344H93.1Z" transform="translate(-77.637 -338.397)" fill="#73bc45"/>
    <path id="Path_9443" data-name="Path 9443" d="M80.739,406.531H79.7a.13.13,0,0,1-.131-.13v-1.6a.13.13,0,0,1,.131-.13h1.036a.13.13,0,0,1,.131.13v1.6a.13.13,0,0,1-.131.13m-.906-.261h.775v-1.344h-.775Z" transform="translate(-66.541 -338.397)" fill="#73bc45"/>
    <path id="Path_9444" data-name="Path 9444" d="M67.471,406.531H66.435a.13.13,0,0,1-.131-.13v-1.6a.13.13,0,0,1,.131-.13h1.036a.13.13,0,0,1,.131.13v1.6a.13.13,0,0,1-.131.13m-.906-.261h.775v-1.344h-.775Z" transform="translate(-55.446 -338.397)" fill="#73bc45"/>
    <path id="Path_9445" data-name="Path 9445" d="M54.2,406.531H53.166a.13.13,0,0,1-.131-.13v-1.6a.13.13,0,0,1,.131-.13H54.2a.13.13,0,0,1,.131.13v1.6a.13.13,0,0,1-.131.13m-.906-.261h.775v-1.344H53.3Z" transform="translate(-44.35 -338.397)" fill="#73bc45"/>
    <path id="Path_9446" data-name="Path 9446" d="M40.934,406.531H39.9a.13.13,0,0,1-.131-.13v-1.6a.13.13,0,0,1,.131-.13h1.036a.13.13,0,0,1,.131.13v1.6a.13.13,0,0,1-.131.13m-.906-.261H40.8v-1.344h-.775Z" transform="translate(-33.255 -338.397)" fill="#73bc45"/>
    <path id="Path_9447" data-name="Path 9447" d="M27.665,406.531H26.629a.13.13,0,0,1-.131-.13v-1.6a.13.13,0,0,1,.131-.13h1.036a.13.13,0,0,1,.131.13v1.6a.13.13,0,0,1-.131.13m-.906-.261h.775v-1.344h-.775Z" transform="translate(-22.159 -338.397)" fill="#73bc45"/>
  </g>
</svg>
