<svg xmlns="http://www.w3.org/2000/svg" width="67.692" height="70.31" viewBox="0 0 67.692 70.31">
  <g id="jeddah" transform="translate(-2945.155 -1597.918)">
    <g id="Group_4982" data-name="Group 4982" transform="translate(2945.155 1639.812)">
      <g id="Group_4973" data-name="Group 4973">
        <g id="Group_4967" data-name="Group 4967" transform="translate(0.847 12.529)">
          <path id="Path_1398" data-name="Path 1398" d="M2950.553,1960.475v-15.887h66v15.887Zm65.526-.47v0Zm-64.583-.472h64.112v-14H2951.5v14Z" transform="translate(-2950.553 -1944.588)" fill="#73bc45"/>
        </g>
        <g id="Group_4968" data-name="Group 4968" transform="translate(0 12.529)">
          <path id="Path_1399" data-name="Path 1399" d="M2945.155,1945.53v-.942h67.692v.942Z" transform="translate(-2945.155 -1944.588)" fill="#73bc45"/>
        </g>
        <g id="Group_4971" data-name="Group 4971" transform="translate(19.687 13)">
          <g id="Group_4969" data-name="Group 4969">
            <path id="Path_1400" data-name="Path 1400" d="M3070.558,1962.535v-14.945h.941v14.945Z" transform="translate(-3070.558 -1947.591)" fill="#73bc45"/>
          </g>
          <g id="Group_4970" data-name="Group 4970" transform="translate(27.377)">
            <path id="Path_1401" data-name="Path 1401" d="M3244.948,1962.535v-14.945h.942v14.945Z" transform="translate(-3244.948 -1947.591)" fill="#73bc45"/>
          </g>
        </g>
        <g id="Group_4972" data-name="Group 4972" transform="translate(9.22)">
          <path id="Path_1402" data-name="Path 1402" d="M3004.806,1878.253h-.922l.539-.748a30.124,30.124,0,0,1,24.086-12.723h0A30.125,30.125,0,0,1,3052.6,1877.5h0l.542.748Zm46.469-.941a29.1,29.1,0,0,0-22.765-11.589h0a29.1,29.1,0,0,0-22.765,11.589h45.53Z" transform="translate(-3003.884 -1864.782)" fill="#73bc45"/>
        </g>
      </g>
      <g id="Group_4976" data-name="Group 4976" transform="translate(8.643 16.762)">
        <g id="Group_4974" data-name="Group 4974">
          <path id="Path_1403" data-name="Path 1403" d="M3000.213,1982.736v-11.183h.941v11.183Z" transform="translate(-3000.213 -1971.554)" fill="#73bc45"/>
        </g>
        <g id="Group_4975" data-name="Group 4975" transform="translate(49.464)">
          <path id="Path_1404" data-name="Path 1404" d="M3315.293,1982.736v-11.183h.943v11.183Z" transform="translate(-3315.293 -1971.554)" fill="#73bc45"/>
        </g>
      </g>
      <g id="Group_4979" data-name="Group 4979" transform="translate(29.752 16.762)">
        <g id="Group_4977" data-name="Group 4977">
          <path id="Path_1405" data-name="Path 1405" d="M3134.675,1982.736v-11.183h.47v11.183Z" transform="translate(-3134.675 -1971.554)" fill="#73bc45"/>
        </g>
        <g id="Group_4978" data-name="Group 4978" transform="translate(7.719)">
          <path id="Path_1406" data-name="Path 1406" d="M3183.844,1982.736v-11.183h.47v11.183Z" transform="translate(-3183.844 -1971.554)" fill="#73bc45"/>
        </g>
      </g>
      <g id="Group_4980" data-name="Group 4980" transform="translate(19.516 7.294)">
        <path id="Path_1407" data-name="Path 1407" d="M3069.474,1911.714v-.471h28.659v.471Z" transform="translate(-3069.474 -1911.243)" fill="#73bc45"/>
      </g>
      <g id="Group_4981" data-name="Group 4981" transform="translate(29.471 9.776)">
        <path id="Path_1408" data-name="Path 1408" d="M3132.881,1930.75v-3.695h8.281v0h.47v3.695Zm.943-.943h6.866V1928h-6.866v1.809Z" transform="translate(-3132.881 -1927.055)" fill="#73bc45"/>
      </g>
    </g>
    <g id="Group_4994" data-name="Group 4994" transform="translate(3000.137 1597.918)">
      <g id="Group_4983" data-name="Group 4983" transform="translate(0.786 40.927)">
        <path id="Path_1409" data-name="Path 1409" d="M3300.867,1873.06h0Zm0,0v-.941l5.589,0v-12.552h-5.118V1870.9h-.943v-12.282h7v14.438Z" transform="translate(-3300.396 -1858.622)" fill="#73bc45"/>
      </g>
      <g id="Group_4984" data-name="Group 4984" transform="translate(1.358 22.273)">
        <path id="Path_1410" data-name="Path 1410" d="M3304.041,1756.049v-16.255h5.388v0h.47v16.255Zm.941-.942h3.975v-14.371h-3.975v14.372Z" transform="translate(-3304.041 -1739.795)" fill="#73bc45"/>
      </g>
      <g id="Group_4985" data-name="Group 4985" transform="translate(1.358 10.825)">
        <path id="Path_1411" data-name="Path 1411" d="M3304.041,1672.96v-6.086h5.387v0h.472v6.086Zm.941-.944h3.975v-4.2h-3.975v4.2Z" transform="translate(-3304.041 -1666.874)" fill="#73bc45"/>
      </g>
      <g id="Group_4986" data-name="Group 4986" transform="translate(0.19 37.587)">
        <path id="Path_1412" data-name="Path 1412" d="M3296.6,1840.195v-2.853h8.2v2.853Zm7.726-.471v0Zm-6.784-.471h6.313v-.97h-6.313v.97Z" transform="translate(-3296.598 -1837.342)" fill="#73bc45"/>
      </g>
      <g id="Group_4987" data-name="Group 4987" transform="translate(0.454 39.497)">
        <path id="Path_1413" data-name="Path 1413" d="M3298.281,1851.885v-2.373h7.668v2.373Zm7.2-.471v0Zm-6.255-.472h5.784v-.489h-5.784v.489Z" transform="translate(-3298.281 -1849.512)" fill="#73bc45"/>
      </g>
      <g id="Group_4988" data-name="Group 4988" transform="translate(0 15.968)">
        <path id="Path_1414" data-name="Path 1414" d="M3295.388,1703.27v-3.635h8.576v3.635Zm8.105-.471v0Zm-7.163-.471h6.691v-1.75h-6.691v1.75Z" transform="translate(-3295.388 -1699.635)" fill="#73bc45"/>
      </g>
      <g id="Group_4989" data-name="Group 4989" transform="translate(0.392 18.661)">
        <path id="Path_1415" data-name="Path 1415" d="M3297.883,1719.436v-2.649h7.792v2.649Zm7.322-.471v0Zm-6.38-.471h5.909v-.766h-5.909v.766Z" transform="translate(-3297.883 -1716.787)" fill="#73bc45"/>
      </g>
      <g id="Group_4990" data-name="Group 4990" transform="translate(0.924 20.368)">
        <path id="Path_1416" data-name="Path 1416" d="M3301.276,1730.51v-2.847H3308v2.847Zm6.255-.471v0Zm-5.314-.471h4.844v-.963h-4.844v.963Z" transform="translate(-3301.276 -1727.663)" fill="#73bc45"/>
      </g>
      <g id="Group_4991" data-name="Group 4991" transform="translate(0.623 8.396)">
        <path id="Path_1417" data-name="Path 1417" d="M3299.355,1654.771V1651.4h6.858v0h.472v3.371Zm.943-.942h5.445v-1.487H3300.3v1.487Z" transform="translate(-3299.355 -1651.4)" fill="#73bc45"/>
      </g>
      <g id="Group_4992" data-name="Group 4992" transform="translate(1.839)">
        <path id="Path_1418" data-name="Path 1418" d="M3307.1,1607.257v-4l1.476-1.44v-3.894h1.946v3.894l1.334,1.3-.328.336.328-.336.144.138v4Zm2.417-5.048-1.475,1.441v2.665h3.014v-2.665l-1.477-1.441v-3.349h-.062v3.349Z" transform="translate(-3307.104 -1597.918)" fill="#73bc45"/>
      </g>
      <g id="Group_4993" data-name="Group 4993" transform="translate(4.053 44.53)">
        <path id="Path_1419" data-name="Path 1419" d="M3321.206,1888.1v-6.531h.472v6.531Z" transform="translate(-3321.206 -1881.573)" fill="#73bc45"/>
      </g>
    </g>
  </g>
</svg>
