<svg xmlns="http://www.w3.org/2000/svg" width="105.083" height="66.62" viewBox="0 0 105.083 66.62">
  <g id="khobar" transform="translate(-675.5 -834.221)">
    <g id="Group_4998" data-name="Group 4998" transform="translate(691.878 850.293)">
      <path id="Path_1420" data-name="Path 1420" d="M826.064,957.671H753.738l3.286-5.838h17.249c3.94,0,6.941-1.052,8.92-3.128a9.873,9.873,0,0,0,2.53-6.625V921.04l-11.5-9.36a.384.384,0,0,1,.242-.682h30.864a.384.384,0,0,1,.243.682l-11.5,9.36v21.025a9.877,9.877,0,0,0,2.529,6.64c1.979,2.076,4.98,3.128,8.92,3.128h17.249Zm-71.252-.628H824.99l-2.579-4.581H805.53c-4.123,0-7.279-1.12-9.381-3.33a10.333,10.333,0,0,1-2.7-7.083V920.741l11.194-9.115H775.156l11.194,9.115v21.323a10.328,10.328,0,0,1-2.7,7.067c-2.1,2.21-5.258,3.33-9.381,3.33H757.391Z" transform="translate(-753.738 -910.998)" fill="#73bc45"/>
    </g>
    <g id="Group_5011" data-name="Group 5011" transform="translate(697.442 892.124)">
      <g id="Group_4999" data-name="Group 4999" transform="translate(0 0)">
        <path id="Path_1421" data-name="Path 1421" d="M784.212,1115.665h-3.894v-4.09h.631l.549-.468a1.178,1.178,0,0,1,1.534,0l.549.468h.631Zm-3.266-.628h2.638V1112.2h-.234l-.725-.618a.552.552,0,0,0-.719,0l-.725.618h-.234Z" transform="translate(-780.318 -1110.822)" fill="#73bc45"/>
      </g>
      <g id="Group_5000" data-name="Group 5000" transform="translate(5.209 0)">
        <path id="Path_1422" data-name="Path 1422" d="M809.1,1115.664H805.2v-4.091h.631l.548-.468a1.178,1.178,0,0,1,1.534,0l.549.468h.631Zm-3.266-.628h2.638V1112.2h-.235l-.725-.618a.553.553,0,0,0-.719,0l-.724.618h-.235Z" transform="translate(-805.203 -1110.822)" fill="#73bc45"/>
      </g>
      <g id="Group_5001" data-name="Group 5001" transform="translate(10.419 0)">
        <path id="Path_1423" data-name="Path 1423" d="M833.983,1115.664h-3.894v-4.091h.631l.549-.468a1.178,1.178,0,0,1,1.534,0l.549.468h.631Zm-3.266-.628h2.638V1112.2h-.234l-.725-.618a.552.552,0,0,0-.719,0l-.725.618h-.234Z" transform="translate(-830.089 -1110.822)" fill="#73bc45"/>
      </g>
      <g id="Group_5002" data-name="Group 5002" transform="translate(15.629 0)">
        <path id="Path_1424" data-name="Path 1424" d="M858.869,1115.665h-3.894v-4.09h.631l.549-.468a1.178,1.178,0,0,1,1.534,0l.549.468h.631Zm-3.266-.628h2.638V1112.2h-.234l-.725-.618a.552.552,0,0,0-.719,0l-.725.618H855.6Z" transform="translate(-854.975 -1110.822)" fill="#73bc45"/>
      </g>
      <g id="Group_5003" data-name="Group 5003" transform="translate(20.838 0)">
        <path id="Path_1425" data-name="Path 1425" d="M883.754,1115.664H879.86v-4.09h.631l.549-.468a1.177,1.177,0,0,1,1.534,0l.549.468h.631Zm-3.266-.628h2.638V1112.2h-.234l-.725-.618a.552.552,0,0,0-.719,0l-.725.618h-.234Z" transform="translate(-879.86 -1110.821)" fill="#73bc45"/>
      </g>
      <g id="Group_5004" data-name="Group 5004" transform="translate(26.047 0)">
        <path id="Path_1426" data-name="Path 1426" d="M908.64,1115.664h-3.894v-4.09h.631l.549-.468a1.177,1.177,0,0,1,1.534,0l.549.468h.631Zm-3.266-.628h2.638V1112.2h-.234l-.725-.618a.552.552,0,0,0-.719,0l-.725.618h-.234Z" transform="translate(-904.746 -1110.821)" fill="#73bc45"/>
      </g>
      <g id="Group_5005" data-name="Group 5005" transform="translate(31.257 0)">
        <path id="Path_1427" data-name="Path 1427" d="M933.525,1115.664h-3.894v-4.091h.631l.549-.468a1.178,1.178,0,0,1,1.534,0l.549.468h.631Zm-3.266-.628H932.9V1112.2h-.235l-.725-.618a.552.552,0,0,0-.719,0l-.724.618h-.235Z" transform="translate(-929.631 -1110.822)" fill="#73bc45"/>
      </g>
      <g id="Group_5006" data-name="Group 5006" transform="translate(36.466 0)">
        <path id="Path_1428" data-name="Path 1428" d="M958.411,1115.664h-3.894v-4.091h.631l.548-.468a1.178,1.178,0,0,1,1.534,0l.549.468h.631Zm-3.266-.628h2.638V1112.2h-.234l-.725-.618a.552.552,0,0,0-.719,0l-.724.618h-.235Z" transform="translate(-954.517 -1110.822)" fill="#73bc45"/>
      </g>
      <g id="Group_5007" data-name="Group 5007" transform="translate(41.676 0)">
        <path id="Path_1429" data-name="Path 1429" d="M983.3,1115.664H979.4v-4.091h.631l.549-.468a1.178,1.178,0,0,1,1.534,0l.549.468h.631Zm-3.266-.628h2.638V1112.2h-.234l-.725-.618a.552.552,0,0,0-.719,0l-.725.618h-.234Z" transform="translate(-979.402 -1110.822)" fill="#73bc45"/>
      </g>
      <g id="Group_5008" data-name="Group 5008" transform="translate(46.885 0)">
        <path id="Path_1430" data-name="Path 1430" d="M1008.182,1115.665h-3.894v-4.09h.631l.549-.468a1.178,1.178,0,0,1,1.534,0l.549.468h.631Zm-3.266-.628h2.638V1112.2h-.234l-.725-.618a.553.553,0,0,0-.719,0l-.725.618h-.234Z" transform="translate(-1004.288 -1110.822)" fill="#73bc45"/>
      </g>
      <g id="Group_5009" data-name="Group 5009" transform="translate(52.095 0)">
        <path id="Path_1431" data-name="Path 1431" d="M1033.068,1115.664h-3.894v-4.09h.631l.549-.468a1.177,1.177,0,0,1,1.534,0l.549.468h.631Zm-3.266-.628h2.638V1112.2h-.234l-.725-.618a.552.552,0,0,0-.719,0l-.725.618h-.234Z" transform="translate(-1029.174 -1110.821)" fill="#73bc45"/>
      </g>
      <g id="Group_5010" data-name="Group 5010" transform="translate(57.304 0)">
        <path id="Path_1432" data-name="Path 1432" d="M1057.954,1115.664h-3.894v-4.09h.631l.549-.468a1.177,1.177,0,0,1,1.534,0l.549.468h.631Zm-3.266-.628h2.638V1112.2h-.234l-.725-.618a.552.552,0,0,0-.719,0l-.725.618h-.234Z" transform="translate(-1054.06 -1110.821)" fill="#73bc45"/>
      </g>
    </g>
    <g id="Group_5012" data-name="Group 5012" transform="translate(695.348 891.129)">
      <line id="Line_72" data-name="Line 72" x2="65.387" transform="translate(0 0.314)" fill="#fff"/>
      <rect id="Rectangle_3595" data-name="Rectangle 3595" width="65.387" height="0.628" transform="translate(0)" fill="#73bc45"/>
    </g>
    <g id="Group_5013" data-name="Group 5013" transform="translate(720.73 889.617)">
      <path id="Path_1433" data-name="Path 1433" d="M906.184,1100.984H891.561v-2.14h14.623Zm-14-.628h13.367v-.884H892.189Z" transform="translate(-891.561 -1098.844)" fill="#73bc45"/>
    </g>
    <g id="Group_5014" data-name="Group 5014" transform="translate(712.125 843.235)">
      <path id="Path_1434" data-name="Path 1434" d="M881.9,884.968H850.839a.383.383,0,0,1-.365-.5c.246-.735,2.617-7.182,9.968-7.182H872.3c7.351,0,9.722,6.446,9.968,7.181a.383.383,0,0,1-.365.5Zm-30.715-.628h30.366a9.846,9.846,0,0,0-9.254-6.43H860.443A9.847,9.847,0,0,0,851.189,884.34Z" transform="translate(-850.455 -877.282)" fill="#73bc45"/>
    </g>
    <g id="Group_5015" data-name="Group 5015" transform="translate(718.227 839.718)">
      <path id="Path_1435" data-name="Path 1435" d="M898.878,865.15H879.963a.358.358,0,0,1-.292-.151.353.353,0,0,1-.044-.32,6.471,6.471,0,0,1,6.184-4.2h7.221a6.47,6.47,0,0,1,6.184,4.2.352.352,0,0,1-.044.321A.358.358,0,0,1,898.878,865.15Zm-18.506-.628h18.1a5.809,5.809,0,0,0-5.439-3.412H885.81A5.808,5.808,0,0,0,880.372,864.522Z" transform="translate(-879.606 -860.482)" fill="#73bc45"/>
    </g>
    <g id="Group_5016" data-name="Group 5016" transform="translate(726.537 840.686)">
      <path id="Path_1436" data-name="Path 1436" d="M922.312,868.806H919.3v-3.152h.514l.376-.321a.943.943,0,0,1,1.229,0l.376.321h.514Zm-2.38-.628h1.752v-1.9h-.116l-.552-.471a.317.317,0,0,0-.414,0l-.552.471h-.117Z" transform="translate(-919.304 -865.106)" fill="#73bc45"/>
    </g>
    <g id="Group_5019" data-name="Group 5019" transform="translate(722.055 840.686)">
      <g id="Group_5017" data-name="Group 5017" transform="translate(8.964)">
        <path id="Path_1437" data-name="Path 1437" d="M943.723,868.806h-3.008v-3.152h.514l.376-.321a.943.943,0,0,1,1.228,0l.376.321h.514Zm-2.38-.628H943.1v-1.9h-.116l-.552-.471a.317.317,0,0,0-.414,0l-.552.471h-.117Z" transform="translate(-940.715 -865.106)" fill="#73bc45"/>
      </g>
      <g id="Group_5018" data-name="Group 5018">
        <path id="Path_1438" data-name="Path 1438" d="M900.9,868.806h-3.008v-3.152h.514l.376-.321a.943.943,0,0,1,1.228,0l.376.321h.514Zm-2.38-.628h1.752v-1.9h-.116l-.552-.471a.317.317,0,0,0-.413,0l-.552.471h-.117Z" transform="translate(-897.893 -865.106)" fill="#73bc45"/>
      </g>
    </g>
    <g id="Group_5026" data-name="Group 5026" transform="translate(715.332 847.222)">
      <g id="Group_5020" data-name="Group 5020" transform="translate(0 0)">
        <path id="Path_1439" data-name="Path 1439" d="M868.785,900.024h-3.008v-3.152h.514l.376-.32a.943.943,0,0,1,1.228,0l.376.32h.514Zm-2.38-.628h1.752v-1.9h-.116l-.552-.471a.318.318,0,0,0-.414,0l-.552.471H866.4Z" transform="translate(-865.777 -896.324)" fill="#73bc45"/>
      </g>
      <g id="Group_5021" data-name="Group 5021" transform="translate(4.482 0)">
        <path id="Path_1440" data-name="Path 1440" d="M890.2,900.024h-3.008v-3.152h.514l.376-.32a.943.943,0,0,1,1.229,0l.376.32h.514Zm-2.38-.628h1.752v-1.9h-.116l-.552-.471a.318.318,0,0,0-.414,0l-.552.471h-.117Z" transform="translate(-887.188 -896.324)" fill="#73bc45"/>
      </g>
      <g id="Group_5022" data-name="Group 5022" transform="translate(8.964 0)">
        <path id="Path_1441" data-name="Path 1441" d="M911.607,900.024H908.6v-3.152h.514l.376-.32a.943.943,0,0,1,1.228,0l.376.32h.514Zm-2.38-.628h1.752v-1.9h-.116l-.552-.471a.318.318,0,0,0-.414,0l-.552.471h-.117Z" transform="translate(-908.599 -896.324)" fill="#73bc45"/>
      </g>
      <g id="Group_5023" data-name="Group 5023" transform="translate(13.446 0)">
        <path id="Path_1442" data-name="Path 1442" d="M933.017,900.024h-3.008v-3.152h.514l.376-.32a.943.943,0,0,1,1.228,0l.376.32h.514Zm-2.38-.628h1.752l0-1.9h-.116l-.552-.471a.318.318,0,0,0-.414,0l-.552.471h-.117Z" transform="translate(-930.009 -896.324)" fill="#73bc45"/>
      </g>
      <g id="Group_5024" data-name="Group 5024" transform="translate(17.928 0)">
        <path id="Path_1443" data-name="Path 1443" d="M954.428,900.024H951.42v-3.152h.514l.376-.32a.943.943,0,0,1,1.228,0l.376.32h.514Zm-2.38-.628H953.8v-1.9h-.116l-.552-.471a.318.318,0,0,0-.414,0l-.552.471h-.117Z" transform="translate(-951.42 -896.324)" fill="#73bc45"/>
      </g>
      <g id="Group_5025" data-name="Group 5025" transform="translate(22.41 0)">
        <path id="Path_1444" data-name="Path 1444" d="M975.838,900.024H972.83v-3.152h.514l.376-.32a.942.942,0,0,1,1.228,0l.376.32h.514Zm-2.38-.628h1.752l0-1.9h-.116l-.552-.471a.318.318,0,0,0-.414,0l-.552.471h-.117Z" transform="translate(-972.83 -896.324)" fill="#73bc45"/>
      </g>
    </g>
    <g id="Group_5027" data-name="Group 5027" transform="translate(726.677 859.746)">
      <path id="Path_1445" data-name="Path 1445" d="M922.7,985.139h-2.73V956.153h2.73Zm-2.1-.628h1.474v-27.73H920.6Z" transform="translate(-919.969 -956.153)" fill="#73bc45"/>
    </g>
    <g id="Group_5030" data-name="Group 5030" transform="translate(723.958 857.187)">
      <g id="Group_5028" data-name="Group 5028" transform="translate(4.781 0)">
        <path id="Path_1446" data-name="Path 1446" d="M933.207,973.647h-.628V946.889l-1.065-1.752-1.065,1.752v26.758h-.628V946.713l1.693-2.785,1.693,2.785Z" transform="translate(-929.82 -943.928)" fill="#73bc45"/>
      </g>
      <g id="Group_5029" data-name="Group 5029" transform="translate(0 0)">
        <path id="Path_1447" data-name="Path 1447" d="M910.367,973.647h-.628V946.889l-1.065-1.752-1.065,1.752v26.758h-.628V946.713l1.693-2.785,1.693,2.785Z" transform="translate(-906.98 -943.928)" fill="#73bc45"/>
      </g>
    </g>
    <g id="Group_5031" data-name="Group 5031" transform="translate(726.99 862.267)">
      <line id="Line_73" data-name="Line 73" x2="2.102" transform="translate(0 0.314)" fill="#fff"/>
      <rect id="Rectangle_3596" data-name="Rectangle 3596" width="2.102" height="0.628" transform="translate(0 0)" fill="#73bc45"/>
    </g>
    <g id="Group_5032" data-name="Group 5032" transform="translate(726.99 866.93)">
      <line id="Line_74" data-name="Line 74" x2="2.102" transform="translate(0 0.314)" fill="#fff"/>
      <rect id="Rectangle_3597" data-name="Rectangle 3597" width="2.102" height="0.628" transform="translate(0 0)" fill="#73bc45"/>
    </g>
    <g id="Group_5033" data-name="Group 5033" transform="translate(726.99 871.593)">
      <line id="Line_75" data-name="Line 75" x2="2.102" transform="translate(0 0.314)" fill="#fff"/>
      <rect id="Rectangle_3598" data-name="Rectangle 3598" width="2.102" height="0.628" transform="translate(0)" fill="#73bc45"/>
    </g>
    <g id="Group_5034" data-name="Group 5034" transform="translate(726.99 876.257)">
      <line id="Line_76" data-name="Line 76" x2="2.102" transform="translate(0 0.314)" fill="#fff"/>
      <rect id="Rectangle_3599" data-name="Rectangle 3599" width="2.102" height="0.628" transform="translate(0)" fill="#73bc45"/>
    </g>
    <g id="Group_5035" data-name="Group 5035" transform="translate(726.99 880.92)">
      <line id="Line_77" data-name="Line 77" x2="2.102" transform="translate(0 0.314)" fill="#fff"/>
      <rect id="Rectangle_3600" data-name="Rectangle 3600" width="2.102" height="0.628" transform="translate(0)" fill="#73bc45"/>
    </g>
    <g id="Group_5036" data-name="Group 5036" transform="translate(726.99 885.583)">
      <line id="Line_78" data-name="Line 78" x2="2.102" transform="translate(0 0.314)" fill="#fff"/>
      <rect id="Rectangle_3601" data-name="Rectangle 3601" width="2.102" height="0.628" transform="translate(0)" fill="#73bc45"/>
    </g>
    <g id="Group_5037" data-name="Group 5037" transform="translate(722.194 888.104)">
      <path id="Path_1448" data-name="Path 1448" d="M910.252,1093.76H898.558v-2.141h11.694Zm-11.066-.628h10.438v-.884H899.186Z" transform="translate(-898.558 -1091.619)" fill="#73bc45"/>
    </g>
    <g id="Group_5038" data-name="Group 5038" transform="translate(723.918 886.592)">
      <path id="Path_1449" data-name="Path 1449" d="M915.038,1086.535h-8.247v-2.14h8.247Zm-7.619-.628h6.991v-.884h-6.991Z" transform="translate(-906.791 -1084.395)" fill="#73bc45"/>
    </g>
    <g id="Group_5039" data-name="Group 5039" transform="translate(690.043 896.338)">
      <path id="Path_1450" data-name="Path 1450" d="M820.967,1133.052h-76v-2.1h76Zm-75.369-.628h74.741v-.843H745.6Z" transform="translate(-744.97 -1130.954)" fill="#73bc45"/>
    </g>
    <g id="Group_5042" data-name="Group 5042" transform="translate(717.154 851.886)">
      <g id="Group_5040" data-name="Group 5040" transform="translate(0 0.001)">
        <line id="Line_79" data-name="Line 79" x2="7.588" y2="6.821" transform="translate(0.21 0.233)" fill="#fff"/>
        <rect id="Rectangle_3602" data-name="Rectangle 3602" width="0.628" height="10.203" transform="matrix(0.669, -0.744, 0.744, 0.669, 0, 0.467)" fill="#73bc45"/>
      </g>
      <g id="Group_5041" data-name="Group 5041" transform="translate(13.767 0)">
        <line id="Line_80" data-name="Line 80" x1="7.588" y2="6.821" transform="translate(0.209 0.234)" fill="#fff"/>
        <rect id="Rectangle_3603" data-name="Rectangle 3603" width="10.203" height="0.628" transform="translate(0 6.823) rotate(-41.965)" fill="#73bc45"/>
      </g>
    </g>
    <g id="Group_5043" data-name="Group 5043" transform="translate(675.5 897.809)">
      <path id="Path_1451" data-name="Path 1451" d="M780.583,1141.011H675.5v-3.032H780.583Zm-104.455-.628H779.955v-1.776H676.128Z" transform="translate(-675.5 -1137.979)" fill="#73bc45"/>
    </g>
    <g id="Group_5046" data-name="Group 5046" transform="translate(722.322 851.966)">
      <g id="Group_5044" data-name="Group 5044" transform="translate(0 0)">
        <line id="Line_81" data-name="Line 81" x2="3.182" y2="5.672" transform="translate(0.274 0.154)" fill="#fff"/>
        <rect id="Rectangle_3604" data-name="Rectangle 3604" width="0.628" height="6.503" transform="translate(0 0.307) rotate(-29.294)" fill="#73bc45"/>
      </g>
      <g id="Group_5045" data-name="Group 5045" transform="translate(7.709 0)">
        <line id="Line_82" data-name="Line 82" x1="3.182" y2="5.672" transform="translate(0.274 0.154)" fill="#fff"/>
        <rect id="Rectangle_3605" data-name="Rectangle 3605" width="6.503" height="0.628" transform="matrix(0.489, -0.872, 0.872, 0.489, 0, 5.671)" fill="#73bc45"/>
      </g>
    </g>
    <g id="Group_5047" data-name="Group 5047" transform="translate(727.727 852.12)">
      <line id="Line_83" data-name="Line 83" y2="6.259" transform="translate(0.314 0)" fill="#fff"/>
      <rect id="Rectangle_3606" data-name="Rectangle 3606" width="0.628" height="6.259" transform="translate(0)" fill="#73bc45"/>
    </g>
    <g id="Group_5048" data-name="Group 5048" transform="translate(722.995 834.221)">
      <path id="Path_1452" data-name="Path 1452" d="M912.476,840.346H902.383v-.314c0-3.2,2.264-5.811,5.046-5.811s5.047,2.607,5.047,5.811Zm-9.457-.628h8.821c-.139-2.713-2.064-4.869-4.411-4.869S903.158,837.006,903.019,839.718Z" transform="translate(-902.383 -834.221)" fill="#73bc45"/>
    </g>
    <g id="Group_5054" data-name="Group 5054" transform="translate(725.048 837.284)">
      <g id="Group_5049" data-name="Group 5049" transform="translate(0 0)">
        <line id="Line_84" data-name="Line 84" y2="2.749" transform="translate(0.314 0)" fill="#fff"/>
        <rect id="Rectangle_3607" data-name="Rectangle 3607" width="0.628" height="2.749" fill="#73bc45"/>
      </g>
      <g id="Group_5050" data-name="Group 5050" transform="translate(1.34 0)">
        <line id="Line_85" data-name="Line 85" y2="2.749" transform="translate(0.314 0)" fill="#fff"/>
        <rect id="Rectangle_3608" data-name="Rectangle 3608" width="0.628" height="2.749" fill="#73bc45"/>
      </g>
      <g id="Group_5051" data-name="Group 5051" transform="translate(2.679 0)">
        <line id="Line_86" data-name="Line 86" y2="2.749" transform="translate(0.314 0)" fill="#fff"/>
        <rect id="Rectangle_3609" data-name="Rectangle 3609" width="0.628" height="2.749" fill="#73bc45"/>
      </g>
      <g id="Group_5052" data-name="Group 5052" transform="translate(4.019 0)">
        <line id="Line_87" data-name="Line 87" y2="2.749" transform="translate(0.314 0)" fill="#fff"/>
        <rect id="Rectangle_3610" data-name="Rectangle 3610" width="0.628" height="2.749" fill="#73bc45"/>
      </g>
      <g id="Group_5053" data-name="Group 5053" transform="translate(5.359 0)">
        <line id="Line_88" data-name="Line 88" y2="2.749" transform="translate(0.314 0)" fill="#fff"/>
        <rect id="Rectangle_3611" data-name="Rectangle 3611" width="0.628" height="2.749" fill="#73bc45"/>
      </g>
    </g>
  </g>
</svg>
