<svg xmlns="http://www.w3.org/2000/svg" width="92.886" height="47.481" viewBox="0 0 92.886 47.481">
  <g id="riyadh" transform="translate(-836.299 -935)">
    <g id="Group_5056" data-name="Group 5056" transform="translate(842.747 958.154)">
      <path id="Path_1453" data-name="Path 1453" d="M933.32,1059.571H878.978l-.1-.131-12.725-17.23h79.989Zm-54.015-.648h53.688l11.868-16.066H867.44Z" transform="translate(-866.156 -1042.209)" fill="#73bc45"/>
    </g>
    <g id="Group_5061" data-name="Group 5061" transform="translate(836.299 955.17)">
      <g id="Group_5057" data-name="Group 5057" transform="translate(0)">
        <path id="Path_1454" data-name="Path 1454" d="M926.228,1032.022H839.256l-2.957-3.632h92.886Zm-86.664-.648H925.92l1.9-2.337h-90.16Z" transform="translate(-836.299 -1028.39)" fill="#73bc45"/>
      </g>
      <g id="Group_5058" data-name="Group 5058" transform="translate(4.534 5.572)">
        <path id="Path_1455" data-name="Path 1455" d="M938.157,1057.823H860.246l-2.953-3.633H941.11Zm-77.6-.648h77.295l1.9-2.337H858.655Z" transform="translate(-857.293 -1054.19)" fill="#73bc45"/>
      </g>
      <g id="Group_5059" data-name="Group 5059" transform="translate(9.061 11.142)">
        <path id="Path_1456" data-name="Path 1456" d="M950.062,1083.61h-68.85l-2.957-3.632h74.76Zm-68.542-.648h68.233l1.9-2.337H879.618Z" transform="translate(-878.255 -1079.978)" fill="#73bc45"/>
      </g>
      <g id="Group_5060" data-name="Group 5060" transform="translate(13.595 16.714)">
        <path id="Path_1457" data-name="Path 1457" d="M961.987,1109.411H902.2l-2.954-3.633h65.7Zm-59.477-.648h59.169l1.9-2.337H900.61Z" transform="translate(-899.248 -1105.778)" fill="#73bc45"/>
      </g>
    </g>
    <g id="Group_5066" data-name="Group 5066" transform="translate(856.815 955.17)">
      <g id="Group_5062" data-name="Group 5062" transform="translate(0)">
        <path id="Path_1458" data-name="Path 1458" d="M981.505,1032.022H932.938l-1.643-3.632h51.853Zm-48.149-.648h47.731l1.057-2.337H932.3Z" transform="translate(-931.295 -1028.39)" fill="#73bc45"/>
      </g>
      <g id="Group_5063" data-name="Group 5063" transform="translate(2.519 5.572)">
        <path id="Path_1459" data-name="Path 1459" d="M988.133,1057.823H944.6l-1.641-3.633h46.815Zm-43.115-.648h42.7l1.056-2.337H943.962Z" transform="translate(-942.959 -1054.19)" fill="#73bc45"/>
      </g>
      <g id="Group_5064" data-name="Group 5064" transform="translate(5.034 11.142)">
        <path id="Path_1460" data-name="Path 1460" d="M994.747,1083.61h-38.5l-1.643-3.632h41.782Zm-38.081-.648h37.662l1.056-2.337H955.609Z" transform="translate(-954.605 -1079.978)" fill="#73bc45"/>
      </g>
      <g id="Group_5065" data-name="Group 5065" transform="translate(7.553 16.714)">
        <path id="Path_1461" data-name="Path 1461" d="M1001.373,1109.411H967.91l-1.641-3.633h36.746Zm-33.044-.648h32.626l1.057-2.337H967.272Z" transform="translate(-966.269 -1105.778)" fill="#73bc45"/>
      </g>
    </g>
    <g id="Group_5067" data-name="Group 5067" transform="translate(845.633 951.32)">
      <path id="Path_1462" data-name="Path 1462" d="M953.736,1014.987H879.518l2.712-4.423h68.794Zm-73.06-.648h71.9l-1.917-3.127H882.593Z" transform="translate(-879.518 -1010.564)" fill="#73bc45"/>
    </g>
    <g id="Group_5068" data-name="Group 5068" transform="translate(863.078 947.545)">
      <path id="Path_1463" data-name="Path 1463" d="M999.62,997.509H960.291l1.427-4.423h36.475Zm-38.439-.648H998.73l-1.009-3.127H962.189Z" transform="translate(-960.291 -993.086)" fill="#73bc45"/>
    </g>
    <g id="Group_5069" data-name="Group 5069" transform="translate(867.208 938.228)">
      <path id="Path_1464" data-name="Path 1464" d="M1010.484,959.911H979.416l.094-.4c1.311-5.543,7.8-9.566,15.439-9.566s14.128,4.023,15.439,9.566Zm-30.238-.648h29.408c-1.456-5.047-7.553-8.669-14.7-8.669S981.7,954.216,980.245,959.263Z" transform="translate(-979.416 -949.946)" fill="#73bc45"/>
    </g>
    <g id="Group_5070" data-name="Group 5070" transform="translate(882.418 935)">
      <rect id="Rectangle_3612" data-name="Rectangle 3612" width="0.648" height="3.552" transform="translate(0 0)" fill="#73bc45"/>
    </g>
    <g id="Group_5079" data-name="Group 5079" transform="translate(871.972 945.197)">
      <g id="Group_5071" data-name="Group 5071" transform="translate(0 0)">
        <rect id="Rectangle_3613" data-name="Rectangle 3613" width="0.648" height="1.343" fill="#73bc45"/>
      </g>
      <g id="Group_5072" data-name="Group 5072" transform="translate(2.985 0)">
        <rect id="Rectangle_3614" data-name="Rectangle 3614" width="0.648" height="1.343" fill="#73bc45"/>
      </g>
      <g id="Group_5073" data-name="Group 5073" transform="translate(5.969 0)">
        <rect id="Rectangle_3615" data-name="Rectangle 3615" width="0.648" height="1.343" fill="#73bc45"/>
      </g>
      <g id="Group_5074" data-name="Group 5074" transform="translate(8.954 0)">
        <rect id="Rectangle_3616" data-name="Rectangle 3616" width="0.648" height="1.343" fill="#73bc45"/>
      </g>
      <g id="Group_5075" data-name="Group 5075" transform="translate(11.939 0)">
        <rect id="Rectangle_3617" data-name="Rectangle 3617" width="0.648" height="1.343" fill="#73bc45"/>
      </g>
      <g id="Group_5076" data-name="Group 5076" transform="translate(14.923 0)">
        <rect id="Rectangle_3618" data-name="Rectangle 3618" width="0.648" height="1.343" fill="#73bc45"/>
      </g>
      <g id="Group_5077" data-name="Group 5077" transform="translate(17.908 0)">
        <rect id="Rectangle_3619" data-name="Rectangle 3619" width="0.648" height="1.343" fill="#73bc45"/>
      </g>
      <g id="Group_5078" data-name="Group 5078" transform="translate(20.892 0)">
        <rect id="Rectangle_3620" data-name="Rectangle 3620" width="0.648" height="1.343" fill="#73bc45"/>
      </g>
    </g>
    <g id="Group_5080" data-name="Group 5080" transform="translate(856.153 974.868)">
      <path id="Path_1465" data-name="Path 1465" d="M981.406,1124.425H928.229V1119.6h53.177Zm-52.529-.648h51.881v-3.532H928.877Z" transform="translate(-928.229 -1119.598)" fill="#73bc45"/>
    </g>
    <g id="Group_5091" data-name="Group 5091" transform="translate(856.153 974.868)">
      <g id="Group_5085" data-name="Group 5085" transform="translate(0 0)">
        <g id="Group_5081" data-name="Group 5081">
          <path id="Path_1466" data-name="Path 1466" d="M930.767,1124.425h-2.538V1119.6h2.538Zm-1.89-.648h1.242v-3.532h-1.242Z" transform="translate(-928.229 -1119.598)" fill="#73bc45"/>
        </g>
        <g id="Group_5082" data-name="Group 5082" transform="translate(5.614)">
          <path id="Path_1467" data-name="Path 1467" d="M956.762,1124.425h-2.538V1119.6h2.538Zm-1.89-.648h1.242v-3.532h-1.242Z" transform="translate(-954.224 -1119.598)" fill="#73bc45"/>
        </g>
        <g id="Group_5083" data-name="Group 5083" transform="translate(11.228)">
          <path id="Path_1468" data-name="Path 1468" d="M982.757,1124.425h-2.538V1119.6h2.538Zm-1.89-.648h1.242v-3.532h-1.242Z" transform="translate(-980.219 -1119.598)" fill="#73bc45"/>
        </g>
        <g id="Group_5084" data-name="Group 5084" transform="translate(16.842)">
          <path id="Path_1469" data-name="Path 1469" d="M1008.751,1124.425h-2.538V1119.6h2.538Zm-1.89-.648h1.242v-3.532h-1.242Z" transform="translate(-1006.213 -1119.598)" fill="#73bc45"/>
        </g>
      </g>
      <g id="Group_5090" data-name="Group 5090" transform="translate(33.797 0)">
        <g id="Group_5086" data-name="Group 5086">
          <path id="Path_1470" data-name="Path 1470" d="M1087.256,1124.425h-2.538V1119.6h2.538Zm-1.89-.648h1.242v-3.532h-1.242Z" transform="translate(-1084.718 -1119.598)" fill="#73bc45"/>
        </g>
        <g id="Group_5087" data-name="Group 5087" transform="translate(5.614)">
          <path id="Path_1471" data-name="Path 1471" d="M1113.25,1124.425h-2.538V1119.6h2.538Zm-1.89-.648h1.242v-3.532h-1.242Z" transform="translate(-1110.712 -1119.598)" fill="#73bc45"/>
        </g>
        <g id="Group_5088" data-name="Group 5088" transform="translate(11.228)">
          <path id="Path_1472" data-name="Path 1472" d="M1139.244,1124.425h-2.538V1119.6h2.538Zm-1.89-.648h1.242v-3.532h-1.242Z" transform="translate(-1136.706 -1119.598)" fill="#73bc45"/>
        </g>
        <g id="Group_5089" data-name="Group 5089" transform="translate(16.842)">
          <path id="Path_1473" data-name="Path 1473" d="M1165.239,1124.425H1162.7V1119.6h2.538Zm-1.89-.648h1.242v-3.532h-1.242Z" transform="translate(-1162.701 -1119.598)" fill="#73bc45"/>
        </g>
      </g>
    </g>
    <g id="Group_5092" data-name="Group 5092" transform="translate(847.896 979.047)">
      <path id="Path_1474" data-name="Path 1474" d="M959.688,1142.383H890v-3.433h69.692Zm-69.044-.648h68.4V1139.6h-68.4Z" transform="translate(-889.996 -1138.95)" fill="#73bc45"/>
    </g>
  </g>
</svg>
